<svg width="121" height="94" viewBox="0 0 121 94" fill="none" xmlns="http://www.w3.org/2000/svg">
<path d="M21.742 9.69287H11.758C11.5437 9.69287 11.3314 9.73508 11.1334 9.8171C10.9354 9.89912 10.7555 10.0193 10.604 10.1709C10.4524 10.3224 10.3322 10.5023 10.2502 10.7003C10.1682 10.8983 10.126 11.1106 10.126 11.3249V17.4429H23.374V11.3209C23.3729 10.8887 23.2005 10.4747 22.8946 10.1695C22.5886 9.86426 22.1741 9.69287 21.742 9.69287Z" fill="#331C48"/>
<path d="M10.125 13.1299H23.374V17.4429H10.125V13.1299Z" fill="#331C48"/>
<path d="M87.973 11.6939L84.749 5.32993C84.0061 3.86291 82.8712 2.6304 81.4703 1.76917C80.0695 0.907932 78.4574 0.451643 76.813 0.450928H43.594C41.9346 0.451467 40.3084 0.915918 38.899 1.79184C37.4896 2.66776 36.3532 3.92027 35.618 5.40793L32.555 11.6079C31.8198 13.0956 30.6834 14.3481 29.274 15.224C27.8646 16.0999 26.2384 16.5644 24.579 16.5649H8.9C6.53957 16.5649 4.27582 17.5026 2.60675 19.1717C0.937676 20.8407 0 23.1045 0 25.4649L0 84.8509C0 87.2114 0.937676 89.4751 2.60675 91.1442C4.27582 92.8133 6.53957 93.7509 8.9 93.7509H111.653C112.822 93.7509 113.979 93.5207 115.059 93.0735C116.139 92.6262 117.12 91.9706 117.946 91.1442C118.773 90.3177 119.428 89.3366 119.876 88.2568C120.323 87.177 120.553 86.0197 120.553 84.8509V25.4659C120.553 24.2972 120.323 23.1398 119.876 22.06C119.428 20.9802 118.773 19.9991 117.946 19.1727C117.12 18.3462 116.139 17.6907 115.059 17.2434C113.979 16.7961 112.822 16.5659 111.653 16.5659H95.909C94.2653 16.5659 92.6537 16.1106 91.253 15.2507C89.8522 14.3907 88.7169 13.1596 87.973 11.6939Z" fill="#331C48"/>
<path d="M69.7031 5.33093L72.9271 11.6949C73.6706 13.1612 74.8057 14.3929 76.2065 15.2534C77.6073 16.1139 79.2191 16.5696 80.8631 16.5699H95.9081C94.2641 16.5696 92.6523 16.1139 91.2515 15.2534C89.8507 14.3929 88.7156 13.1612 87.9721 11.6949L84.7481 5.33093C84.0046 3.86466 82.8695 2.63297 81.4687 1.77247C80.0679 0.911964 78.4561 0.456273 76.8121 0.455933H61.7671C63.4111 0.456273 65.0229 0.911964 66.4237 1.77247C67.8245 2.63297 68.9596 3.86466 69.7031 5.33093Z" fill="#331C48"/>
<path d="M111.653 16.5699H96.6079C97.7767 16.5699 98.934 16.8002 100.014 17.2474C101.094 17.6947 102.075 18.3503 102.901 19.1767C103.728 20.0031 104.383 20.9843 104.83 22.0641C105.278 23.1439 105.508 24.3012 105.508 25.4699V84.8579C105.508 87.2184 104.57 89.4821 102.901 91.1512C101.232 92.8203 98.9683 93.7579 96.6079 93.7579H111.653C114.013 93.7579 116.277 92.8203 117.946 91.1512C119.615 89.4821 120.553 87.2184 120.553 84.8579V25.466C120.552 23.1062 119.614 20.8435 117.945 19.1753C116.276 17.5071 114.013 16.5699 111.653 16.5699Z" fill="#331C48"/>
<path d="M55.2351 86.536C71.9484 86.536 85.4971 72.9872 85.4971 56.274C85.4971 39.5607 71.9484 26.012 55.2351 26.012C38.5219 26.012 24.9731 39.5607 24.9731 56.274C24.9731 72.9872 38.5219 86.536 55.2351 86.536Z" fill="#331C48"/>
<path d="M60.2741 82.9219C76.3296 82.9219 89.3451 69.9064 89.3451 53.8509C89.3451 37.7954 76.3296 24.7799 60.2741 24.7799C44.2187 24.7799 31.2031 37.7954 31.2031 53.8509C31.2031 69.9064 44.2187 82.9219 60.2741 82.9219Z" fill="#877697"/>
<path d="M60.2738 74.4059C71.6265 74.4059 80.8298 65.2027 80.8298 53.8499C80.8298 42.4972 71.6265 33.2939 60.2738 33.2939C48.921 33.2939 39.7178 42.4972 39.7178 53.8499C39.7178 65.2027 48.921 74.4059 60.2738 74.4059Z" fill="#C9BED4"/>
<path d="M60.2711 33.2909C56.9474 33.2896 53.6731 34.0952 50.7294 35.6385C47.7857 37.1818 45.2606 39.4165 43.3711 42.1509C47.3292 39.4141 52.122 38.1526 56.9146 38.5862C61.7071 39.0197 66.1957 41.1209 69.5984 44.5236C73.0011 47.9263 75.1023 52.4149 75.5358 57.2074C75.9694 62 74.7079 66.7928 71.9711 70.7509C75.5737 68.2573 78.2854 64.6779 79.7106 60.5347C81.1358 56.3916 81.2 51.9014 79.8937 47.7192C78.5875 43.5371 75.9792 39.8816 72.4493 37.2861C68.9194 34.6906 64.6525 33.2908 60.2711 33.2909Z" fill="#C9BED4"/>
<path d="M12.6331 33.0139C14.9069 33.0139 16.7501 31.1707 16.7501 28.8969C16.7501 26.6232 14.9069 24.7799 12.6331 24.7799C10.3594 24.7799 8.51611 26.6232 8.51611 28.8969C8.51611 31.1707 10.3594 33.0139 12.6331 33.0139Z" fill="white"/>
<path d="M69.2869 11.5149H51.2619C50.7788 11.5149 50.3155 11.323 49.9739 10.9814C49.6323 10.6398 49.4404 10.1765 49.4404 9.69345C49.4404 9.21036 49.6323 8.74705 49.9739 8.40545C50.3155 8.06386 50.7788 7.87195 51.2619 7.87195H69.2869C69.77 7.87195 70.2333 8.06386 70.5749 8.40545C70.9165 8.74705 71.1084 9.21036 71.1084 9.69345C71.1084 10.1765 70.9165 10.6398 70.5749 10.9814C70.2333 11.323 69.77 11.5149 69.2869 11.5149Z" fill="#FF9452"/>
<path d="M110.188 28.405H107.326C106.843 28.405 106.379 28.2131 106.038 27.8715C105.696 27.5299 105.504 27.0666 105.504 26.5835C105.504 26.1004 105.696 25.6371 106.038 25.2955C106.379 24.9539 106.843 24.762 107.326 24.762H110.188C110.671 24.762 111.134 24.9539 111.476 25.2955C111.817 25.6371 112.009 26.1004 112.009 26.5835C112.009 27.0666 111.817 27.5299 111.476 27.8715C111.134 28.2131 110.671 28.405 110.188 28.405Z" fill="white"/>
</svg>
