<svg width="24" height="24" viewBox="0 0 24 24" fill="none" xmlns="http://www.w3.org/2000/svg">
<g clip-path="url(#clip0_1_7515)">
<path d="M-0.000152588 11.247C0.144472 8.90703 0.970694 6.66052 2.37665 4.78444C3.78261 2.90835 5.70685 1.48471 7.91213 0.689009C10.1174 -0.106688 12.5073 -0.239652 14.7873 0.30651C17.0672 0.852672 19.1375 2.05408 20.7429 3.76263C22.3483 5.47118 23.4186 7.61218 23.8219 9.92167C24.2252 12.2312 23.9439 14.6082 23.0125 16.7597C22.0812 18.9113 20.5406 20.7432 18.5807 22.0298C16.6208 23.3163 14.3273 24.0012 11.9828 24H4.99985C3.67417 23.9987 2.40317 23.4715 1.46577 22.5341C0.528379 21.5967 0.00117111 20.3257 -0.000152588 19V11.247ZM1.99985 19C1.99985 19.7957 2.31592 20.5587 2.87853 21.1213C3.44114 21.6839 4.2042 22 4.99985 22H11.9828C13.3939 21.9994 14.789 21.7013 16.0772 21.1253C17.3653 20.5493 18.5176 19.7083 19.4588 18.657C20.4047 17.6063 21.1149 16.3655 21.542 15.0178C21.969 13.6701 22.1029 12.2467 21.9348 10.843C21.6694 8.62895 20.6747 6.5662 19.1074 4.97994C17.5402 3.39367 15.4895 2.37412 13.2788 2.08201C12.8476 2.02797 12.4135 2.00058 11.9788 2.00001C9.64837 1.99366 7.39004 2.80792 5.59985 4.30001C4.55432 5.16896 3.69614 6.24117 3.07732 7.45164C2.4585 8.66212 2.09194 9.98565 1.99985 11.342V19Z" fill="#331C48"/>
<path d="M16 9H12C11.7348 9 11.4804 8.89464 11.2929 8.70711C11.1054 8.51957 11 8.26522 11 8C11 7.73478 11.1054 7.48043 11.2929 7.29289C11.4804 7.10536 11.7348 7 12 7H16C16.2652 7 16.5196 7.10536 16.7071 7.29289C16.8946 7.48043 17 7.73478 17 8C17 8.26522 16.8946 8.51957 16.7071 8.70711C16.5196 8.89464 16.2652 9 16 9Z" fill="#331C48"/>
<path d="M8 11H16C16.2652 11 16.5196 11.1054 16.7071 11.2929C16.8946 11.4804 17 11.7348 17 12C17 12.2652 16.8946 12.5196 16.7071 12.7071C16.5196 12.8946 16.2652 13 16 13H8C7.73478 13 7.48043 12.8946 7.29289 12.7071C7.10536 12.5196 7 12.2652 7 12C7 11.7348 7.10536 11.4804 7.29289 11.2929C7.48043 11.1054 7.73478 11 8 11Z" fill="#331C48"/>
<path d="M8 15H16C16.2652 15 16.5196 15.1054 16.7071 15.2929C16.8946 15.4804 17 15.7348 17 16C17 16.2652 16.8946 16.5196 16.7071 16.7071C16.5196 16.8946 16.2652 17 16 17H8C7.73478 17 7.48043 16.8946 7.29289 16.7071C7.10536 16.5196 7 16.2652 7 16C7 15.7348 7.10536 15.4804 7.29289 15.2929C7.48043 15.1054 7.73478 15 8 15Z" fill="#331C48"/>
</g>
<defs>
<clipPath id="clip0_1_7515">
<rect width="24" height="24" fill="white" transform="matrix(-1 0 0 1 24 0)"/>
</clipPath>
</defs>
</svg>
