<svg width="24" height="24" viewBox="0 0 24 24" fill="none" xmlns="http://www.w3.org/2000/svg">
<path d="M12.3807 23.156C18.7751 23.156 23.9587 17.9723 23.9587 11.578C23.9587 5.18364 18.7751 0 12.3807 0C5.98638 0 0.802734 5.18364 0.802734 11.578C0.802734 17.9723 5.98638 23.156 12.3807 23.156Z" fill="#FFD93B"/>
<path d="M23.9004 11.5485C23.9001 13.9374 23.159 16.2674 21.7792 18.2175C20.3994 20.1676 18.4488 21.6419 16.1962 22.4372C13.9436 23.2325 11.4998 23.3098 9.2015 22.6582C6.90318 22.0067 4.86343 20.6586 3.36328 18.7994C5.58191 20.5863 8.38267 21.4902 11.2273 21.3373C14.0719 21.1844 16.7597 19.9856 18.774 17.9713C20.7884 15.9569 21.9872 13.2692 22.14 10.4245C22.2929 7.57993 21.3891 4.77918 19.6022 2.56055C20.9447 3.64232 22.0277 5.01124 22.7715 6.56664C23.5153 8.12205 23.9011 9.8244 23.9004 11.5485Z" fill="#F4C534"/>
<path d="M4.53997 9.10635L4.11743 9.98099L5.02164 9.62046C5.13484 9.57503 7.87053 8.53455 10.8557 10.9775L11.8125 11.7541C10.6733 7.97862 6.2532 5.55659 4.53997 9.10635Z" fill="#3E4347"/>
<path d="M20.5885 9.96515C20.5885 10.721 20.3644 11.4599 19.9445 12.0883C19.5245 12.7168 18.9277 13.2066 18.2294 13.4958C17.5311 13.7851 16.7627 13.8608 16.0214 13.7133C15.28 13.5659 14.5991 13.2019 14.0646 12.6674C13.5302 12.133 13.1662 11.452 13.0187 10.7107C12.8713 9.96939 12.947 9.201 13.2362 8.50269C13.5255 7.80438 14.0153 7.20753 14.6437 6.78761C15.2722 6.36769 16.0111 6.14355 16.7669 6.14355C17.7797 6.14603 18.7503 6.54946 19.4665 7.26561C20.1826 7.98176 20.586 8.95236 20.5885 9.96515Z" fill="#F4C534"/>
<path d="M19.892 9.96564C19.8619 10.8187 19.5077 11.6281 18.9014 12.2289C18.2951 12.8297 17.4824 13.1766 16.6292 13.1989C16.2165 13.1952 15.8089 13.1072 15.4315 12.9403C15.054 12.7734 14.7147 12.5312 14.4343 12.2284C14.1538 11.9256 13.9382 11.5687 13.8007 11.1796C13.6632 10.7905 13.6067 10.3774 13.6346 9.96564C13.6636 9.11227 14.0175 8.30222 14.6241 7.70121C15.2306 7.10019 16.0438 6.75363 16.8974 6.73242C17.3099 6.73672 17.7172 6.82511 18.0943 6.99221C18.4715 7.15931 18.8106 7.40158 19.0909 7.70423C19.3712 8.00687 19.5868 8.36352 19.7245 8.75235C19.8623 9.14119 19.9192 9.55403 19.892 9.96564Z" fill="white"/>
<path d="M17.5147 10.2286C17.5154 10.5623 17.4171 10.8888 17.2323 11.1667C17.0474 11.4445 16.7843 11.6614 16.4763 11.7897C16.1682 11.9181 15.829 11.9522 15.5015 11.8877C15.1741 11.8232 14.8731 11.6631 14.6366 11.4276C14.4002 11.192 14.2389 10.8917 14.1732 10.5645C14.1075 10.2372 14.1402 9.8979 14.2674 9.58933C14.3946 9.28077 14.6104 9.01684 14.8875 8.83093C15.1647 8.64503 15.4908 8.54549 15.8245 8.54492C16.2715 8.5453 16.7002 8.7226 17.0169 9.03808C17.3336 9.35356 17.5126 9.78157 17.5147 10.2286Z" fill="#3E4347"/>
<path d="M16.7595 9.95663C16.6715 10.0138 16.5651 10.0356 16.4617 10.0176C16.3583 9.9995 16.2656 9.94295 16.2022 9.85929C16.0147 9.67182 15.9758 9.42666 16.0983 9.29543C16.2209 9.16419 16.4747 9.21755 16.6557 9.39854C16.7398 9.46165 16.7971 9.55402 16.8163 9.65737C16.8355 9.76071 16.8153 9.86751 16.7595 9.95663Z" fill="white"/>
<path d="M19.7368 15.4292C19.2355 16.9947 18.2499 18.3605 16.9221 19.3295C15.5943 20.2985 13.993 20.8207 12.3493 20.8207C10.7055 20.8207 9.10419 20.2985 7.77641 19.3295C6.44862 18.3605 5.46298 16.9947 4.96167 15.4292C4.9332 15.3335 4.93008 15.232 4.95262 15.1347C4.97516 15.0374 5.02259 14.9476 5.09026 14.8741C5.15792 14.8006 5.24352 14.7459 5.33865 14.7155C5.43379 14.685 5.53521 14.6798 5.63298 14.7003C10.065 15.6025 14.6335 15.6025 19.0655 14.7003C19.1635 14.6784 19.2655 14.6827 19.3613 14.7127C19.4571 14.7427 19.5433 14.7974 19.6114 14.8712C19.6794 14.9451 19.7267 15.0355 19.7488 15.1334C19.7708 15.2314 19.7667 15.3334 19.7368 15.4292Z" fill="#3E4347"/>
<path d="M18.0302 14.8818C14.2717 15.5271 10.4306 15.5271 6.67212 14.8818C7.38741 16.8121 9.65657 17.3334 12.3512 17.3334C15.0457 17.3334 17.3149 16.8128 18.0302 14.8818Z" fill="white"/>
<path d="M12.3534 20.8213C13.779 20.8219 15.1768 20.4271 16.3913 19.6806C15.8794 18.5709 14.1661 17.7539 12.1263 17.7539C10.2205 17.7539 8.60102 18.467 7.97803 19.465C9.26528 20.3501 10.7912 20.8231 12.3534 20.8213Z" fill="#E24B4B"/>
</svg>
