<svg width="24" height="24" viewBox="0 0 24 24" fill="none" xmlns="http://www.w3.org/2000/svg">
<path d="M11.98 23.958C18.5958 23.958 23.959 18.5948 23.959 11.979C23.959 5.36318 18.5958 0 11.98 0C5.36416 0 0.000976562 5.36318 0.000976562 11.979C0.000976562 18.5948 5.36416 23.958 11.98 23.958Z" fill="#FFD93B"/>
<path d="M23.7344 11.8078C23.6957 14.2661 22.9027 16.6532 21.4629 18.6461C20.023 20.6389 18.0057 22.1414 15.684 22.9502C13.3622 23.759 10.848 23.835 8.48163 23.168C6.11522 22.5011 4.01081 21.1233 2.45312 19.2211C4.20652 20.619 6.31651 21.4976 8.54384 21.7573C10.7712 22.017 13.0267 21.6474 15.0547 20.6904C17.0826 19.7335 18.8019 18.2274 20.0174 16.343C21.233 14.4587 21.8963 12.2714 21.932 10.0293C21.9354 7.32512 20.998 4.704 19.2806 2.61523C20.6676 3.7129 21.7886 5.10983 22.5598 6.70165C23.3311 8.29347 23.7326 10.039 23.7344 11.8078Z" fill="#F4C534"/>
<path d="M19.961 14.9121C19.5019 16.7386 18.4457 18.3594 16.9602 19.5171C15.4748 20.6748 13.6451 21.3031 11.7618 21.3023C9.87849 21.3014 8.04942 20.6714 6.56501 19.5124C5.0806 18.3533 4.02594 16.7315 3.56847 14.9046C3.55328 14.8407 3.55522 14.774 3.57408 14.7111C3.59295 14.6483 3.62807 14.5915 3.6759 14.5465C3.72374 14.5016 3.78258 14.47 3.84651 14.4551C3.91043 14.4402 3.97716 14.4424 4.03996 14.4615C9.07438 16.0026 14.4543 16.0052 19.4902 14.4689C19.553 14.45 19.6196 14.4479 19.6834 14.4629C19.7472 14.4779 19.806 14.5095 19.8537 14.5544C19.9014 14.5994 19.9365 14.6561 19.9553 14.7189C19.9741 14.7816 19.9761 14.8483 19.961 14.9121Z" fill="#3E4347"/>
<path d="M11.2877 18.2064C8.22453 18.2064 6.04239 17.3172 6.46688 19.4187C6.46688 19.4299 6.4736 19.4404 6.47583 19.4516C7.98018 20.6494 9.84631 21.3016 11.7693 21.3016C13.6923 21.3016 15.5584 20.6494 17.0627 19.4516C17.0627 19.4396 17.0695 19.4292 17.0717 19.418C17.4932 17.3172 14.3464 18.2064 11.2877 18.2064Z" fill="#E24B4B"/>
<path d="M4.16089 14.4922C4.61298 16.0939 7.83658 17.3271 11.7517 17.3271C15.6527 17.3271 18.8651 16.1006 19.3366 14.5071C14.3855 15.9864 9.10915 15.9812 4.16089 14.4922Z" fill="white"/>
<path d="M16.7607 14.4396C19.302 14.4396 21.3622 12.4065 21.3622 9.89851C21.3622 7.39053 19.302 5.35742 16.7607 5.35742C14.2193 5.35742 12.1592 7.39053 12.1592 9.89851C12.1592 12.4065 14.2193 14.4396 16.7607 14.4396Z" fill="#F4C534"/>
<path d="M20.6987 9.9004C20.6254 10.9559 20.1566 11.945 19.3858 12.6698C18.615 13.3947 17.5991 13.802 16.5411 13.8103C16.0339 13.8183 15.5305 13.7211 15.0627 13.525C14.5948 13.3289 14.1727 13.038 13.8228 12.6707C13.4729 12.3034 13.2028 11.8677 13.0295 11.3909C12.8563 10.9141 12.7836 10.4066 12.8161 9.9004C12.8908 8.84358 13.3607 7.85366 14.1325 7.12782C14.9042 6.40198 15.9211 5.99349 16.9805 5.98374C17.4877 5.97678 17.9909 6.07488 18.4583 6.27188C18.9258 6.46887 19.3474 6.76049 19.6967 7.12839C20.046 7.49629 20.3153 7.9325 20.4877 8.40956C20.6602 8.88663 20.732 9.39422 20.6987 9.9004Z" fill="white"/>
<path d="M18.625 9.89941C18.6295 10.2692 18.5239 10.632 18.3217 10.9416C18.1194 11.2513 17.8297 11.4938 17.4893 11.6384C17.149 11.783 16.7733 11.8231 16.41 11.7537C16.0468 11.6843 15.7124 11.5085 15.4493 11.2485C15.1862 10.9886 15.0063 10.6563 14.9325 10.294C14.8587 9.93157 14.8943 9.55543 15.0348 9.21332C15.1753 8.87122 15.4143 8.5786 15.7215 8.37266C16.0287 8.16671 16.3901 8.05674 16.76 8.05671C17.0036 8.05455 17.2453 8.10057 17.4711 8.19213C17.6969 8.28369 17.9023 8.41899 18.0757 8.59024C18.249 8.76148 18.3868 8.96531 18.481 9.18998C18.5753 9.41466 18.6243 9.65575 18.625 9.89941Z" fill="#3E4347"/>
<path d="M17.1905 9.47125C16.9742 9.25497 16.9098 8.97116 17.0491 8.83295C17.1884 8.69474 17.4785 8.75804 17.6959 8.97222C17.9132 9.18639 17.976 9.47178 17.8372 9.61052C17.6985 9.74926 17.4068 9.68754 17.1905 9.47125Z" fill="white"/>
<path d="M6.77729 14.4396C9.31864 14.4396 11.3788 12.4065 11.3788 9.89851C11.3788 7.39053 9.31864 5.35742 6.77729 5.35742C4.23595 5.35742 2.17578 7.39053 2.17578 9.89851C2.17578 12.4065 4.23595 14.4396 6.77729 14.4396Z" fill="#F4C534"/>
<path d="M2.83904 9.90041C2.91228 10.9559 3.38115 11.945 4.15192 12.6698C4.9227 13.3947 5.93862 13.802 6.99666 13.8104C7.50388 13.8183 8.00725 13.7211 8.47507 13.525C8.9429 13.3289 9.36506 13.038 9.71496 12.6707C10.0649 12.3034 10.3349 11.8677 10.5082 11.3909C10.6814 10.9141 10.7541 10.4066 10.7216 9.90041C10.647 8.84359 10.177 7.85367 9.40525 7.12783C8.6335 6.40199 7.61665 5.99351 6.55725 5.98376C6.04999 5.97668 5.54676 6.07471 5.07925 6.27166C4.61173 6.46862 4.19006 6.76024 3.84078 7.12816C3.4915 7.49608 3.22218 7.93233 3.04978 8.40945C2.87737 8.88656 2.80562 9.3942 2.83904 9.90041Z" fill="white"/>
<path d="M4.91224 9.89941C4.90781 10.2692 5.01341 10.632 5.21563 10.9416C5.41785 11.2513 5.70756 11.4938 6.04794 11.6384C6.38832 11.783 6.76401 11.8231 7.12726 11.7537C7.49051 11.6843 7.82493 11.5085 8.08801 11.2485C8.35108 10.9886 8.53095 10.6563 8.60475 10.294C8.67855 9.93157 8.64294 9.55543 8.50246 9.21332C8.36198 8.87122 8.12296 8.5786 7.81579 8.37266C7.50861 8.16671 7.14714 8.05674 6.77732 8.05671C6.53367 8.05455 6.292 8.10057 6.0662 8.19213C5.84041 8.28369 5.63494 8.41899 5.46161 8.59024C5.28828 8.76148 5.15052 8.96531 5.05624 9.18998C4.96196 9.41466 4.91302 9.65575 4.91224 9.89941Z" fill="#3E4347"/>
<path d="M5.69987 9.6115C5.56114 9.47276 5.62338 9.18789 5.84125 8.97319C6.05912 8.75849 6.3482 8.69624 6.48799 8.83393C6.62779 8.97161 6.5629 9.25595 6.34662 9.47223C6.13033 9.68851 5.83861 9.75023 5.69987 9.6115Z" fill="white"/>
<path d="M7.0555 3.36156C7.0555 3.36156 4.62419 3.02435 2.07202 5.93984C2.07128 5.94282 3.72075 0.71912 7.0555 3.36156Z" fill="#3E4347"/>
<path d="M16.4846 3.36156C16.4846 3.36156 18.9159 3.02435 21.4681 5.93984C21.4659 5.94282 19.8156 0.71912 16.4846 3.36156Z" fill="#3E4347"/>
</svg>
