<svg width="120" height="100" viewBox="0 0 120 100" fill="none" xmlns="http://www.w3.org/2000/svg">
<path d="M60.0006 1.31912e-06C48.6374 -0.00012616 37.5078 3.22654 27.9068 9.30455C18.3057 15.3826 10.6281 24.062 5.76711 34.333C0.906147 44.604 -0.938248 56.0441 0.448539 67.3224C1.83532 78.6006 6.39627 89.2532 13.6007 98.0406C14.9119 87.5422 25.3975 78.663 40.1014 74.4582C45.3775 79.5536 52.4068 82.4315 59.7414 82.4991C67.0759 82.5666 74.1571 79.8187 79.5261 74.8214C94.3565 79.3942 104.617 88.7918 104.955 99.7158C112.606 91.0615 117.595 80.3823 119.323 68.9611C121.052 57.5399 119.446 45.8626 114.698 35.3321C109.951 24.8015 102.264 15.8657 92.561 9.59802C82.858 3.33039 71.5518 -0.00242067 60.0006 1.31912e-06ZM60.0006 75.3942C56.2639 75.3797 52.596 74.3885 49.3606 72.519C41.6374 68.1246 36.3206 59.1319 36.3206 48.7495C36.3206 34.0575 46.9454 22.104 60.0054 22.104C73.0653 22.104 83.6901 34.0575 83.6901 48.7495C83.6901 59.2919 78.2061 68.3951 70.291 72.7134C67.1413 74.4593 63.6017 75.3814 60.0006 75.3942Z" fill="#331C48" fill-opacity="0.1"/>
</svg>
