<svg width="369" height="897" viewBox="0 0 369 897" fill="none" xmlns="http://www.w3.org/2000/svg">
<path d="M255.296 888.479L248.468 889.757L246.947 897L245.426 889.757L238.616 888.479L245.393 886.809L246.948 879.958L248.502 886.809L255.296 888.479Z" fill="#877697"/>
<path d="M139.158 495.98L132.331 497.259L130.81 504.501L129.289 497.259L122.479 495.98L129.256 494.311L130.81 487.459L132.365 494.311L139.158 495.98Z" fill="#877697"/>
<path d="M57.363 778.794L50.5358 780.055L49.0149 787.298L47.494 780.055L40.6836 778.794L47.4605 777.124L49.0149 770.273L50.5693 777.124L57.363 778.794Z" fill="#877697"/>
<path d="M250.97 743.48L244.159 744.758L242.639 752.001L241.118 744.758L234.29 743.48L241.084 741.81L242.639 734.959L244.193 741.81L250.97 743.48Z" fill="#877697"/>
<path d="M339.053 708.785L335.251 709.483L334.389 713.539L333.548 709.483L329.746 708.785L333.531 707.846L334.393 704.013L335.272 707.846L339.053 708.785Z" fill="#877697"/>
<path d="M102.874 692.708L99.0717 693.424L98.2266 697.479L97.3647 693.424L93.5625 692.708L97.3479 691.769L98.2266 687.952L99.0885 691.769L102.874 692.708Z" fill="#877697"/>
<path d="M220.939 522.667L217.123 523.383L216.278 527.418L215.433 523.383L211.617 522.667L215.419 521.728L216.281 517.911L217.143 521.728L220.939 522.667Z" fill="#877697"/>
<path d="M309.795 787.73L305.993 788.429L305.147 792.484L304.286 788.429L300.483 787.73L304.269 786.792L305.147 782.958L306.009 786.792L309.795 787.73Z" fill="#877697"/>
<path d="M278.822 797.116L275.006 797.814L274.161 801.87L273.299 797.814L269.497 797.116L273.282 796.177L274.161 792.343L275.023 796.177L278.822 797.116Z" fill="#877697"/>
<path d="M278.822 602.734L275.006 603.45L274.161 607.505L273.299 603.45L269.497 602.734L273.282 601.795L274.161 597.978L275.023 601.795L278.822 602.734Z" fill="#877697"/>
<path d="M113.439 595.747L109.623 596.446L108.777 600.501L107.915 596.446L104.113 595.747L107.915 594.809L108.777 590.975L109.639 594.809L113.439 595.747Z" fill="#877697"/>
<path d="M19.5741 590.699L15.7719 591.415L14.91 595.47L14.0649 591.415L10.2627 590.699L14.0481 589.76L14.91 585.943L15.7887 589.76L19.5741 590.699Z" fill="#877697"/>
<path d="M70.7807 832.516L66.9785 833.232L66.1333 837.268L65.2714 833.232L61.4692 832.516L65.2547 831.578L66.1333 827.761L66.9952 831.578L70.7807 832.516Z" fill="#877697"/>
<path d="M263.105 831.409C262.888 831.409 262.676 831.474 262.495 831.596C262.314 831.717 262.174 831.89 262.09 832.093C262.007 832.295 261.986 832.518 262.028 832.732C262.07 832.947 262.175 833.145 262.329 833.299C262.482 833.454 262.678 833.56 262.891 833.603C263.104 833.645 263.325 833.623 263.525 833.54C263.726 833.456 263.898 833.314 264.018 833.132C264.139 832.949 264.203 832.735 264.203 832.516C264.203 832.223 264.088 831.941 263.882 831.733C263.676 831.526 263.396 831.409 263.105 831.409Z" fill="#877697"/>
<path d="M279.886 631.137C279.661 631.109 279.433 631.15 279.232 631.256C279.03 631.362 278.866 631.527 278.76 631.729C278.654 631.931 278.612 632.162 278.639 632.389C278.666 632.616 278.761 632.829 278.911 633.001C279.061 633.172 279.26 633.293 279.48 633.348C279.7 633.403 279.932 633.389 280.144 633.308C280.356 633.227 280.539 633.082 280.668 632.894C280.796 632.706 280.865 632.482 280.865 632.253C280.864 631.979 280.765 631.714 280.585 631.509C280.405 631.304 280.156 631.171 279.886 631.137Z" fill="#877697"/>
<path d="M85.5178 510.465C85.2927 510.436 85.0643 510.478 84.8631 510.583C84.6618 510.689 84.4973 510.854 84.3914 511.057C84.2855 511.259 84.2432 511.489 84.2701 511.716C84.2971 511.943 84.392 512.157 84.5423 512.328C84.6926 512.5 84.891 512.621 85.1113 512.676C85.3316 512.731 85.5632 512.716 85.7754 512.635C85.9875 512.554 86.1701 512.41 86.2988 512.221C86.4276 512.033 86.4964 511.809 86.4961 511.581C86.4957 511.306 86.3961 511.042 86.216 510.836C86.0359 510.631 85.7876 510.499 85.5178 510.465Z" fill="#877697"/>
<path d="M1.236 600.605C1.01877 600.605 0.806436 600.67 0.62582 600.792C0.445204 600.913 0.304421 601.086 0.221293 601.289C0.138164 601.491 0.116423 601.714 0.158802 601.929C0.20118 602.143 0.305781 602.341 0.459382 602.496C0.612983 602.651 0.808676 602.756 1.02173 602.799C1.23478 602.841 1.45562 602.82 1.65631 602.736C1.857 602.652 2.02853 602.51 2.14921 602.328C2.2699 602.146 2.33432 601.932 2.33432 601.713C2.33432 601.419 2.21859 601.137 2.01262 600.929C1.80664 600.722 1.52729 600.605 1.236 600.605Z" fill="#877697"/>
<path d="M66.1316 733.066C65.9064 733.037 65.6781 733.079 65.4768 733.184C65.2756 733.29 65.1111 733.455 65.0052 733.657C64.8992 733.86 64.8569 734.09 64.8839 734.317C64.9108 734.544 65.0058 734.758 65.156 734.929C65.3063 735.101 65.5048 735.222 65.7251 735.277C65.9454 735.331 66.177 735.317 66.3891 735.236C66.6013 735.155 66.7839 735.011 66.9126 734.822C67.0414 734.634 67.1102 734.41 67.1098 734.182C67.1094 733.907 67.0099 733.643 66.8298 733.437C66.6497 733.232 66.4014 733.1 66.1316 733.066Z" fill="#877697"/>
<path d="M33.4315 708.538C33.2778 708.538 33.1275 708.584 32.9997 708.67C32.8719 708.756 32.7723 708.879 32.7135 709.022C32.6546 709.165 32.6392 709.323 32.6692 709.475C32.6992 709.627 32.7732 709.766 32.8819 709.876C32.9906 709.986 33.1291 710.06 33.2799 710.09C33.4306 710.121 33.5869 710.105 33.7289 710.046C33.8709 709.987 33.9923 709.886 34.0777 709.757C34.1631 709.628 34.2087 709.477 34.2087 709.322C34.2087 709.114 34.1268 708.915 33.9811 708.768C33.8353 708.621 33.6376 708.538 33.4315 708.538Z" fill="#877697"/>
<path d="M94.204 537.731C94.0502 537.731 93.9 537.777 93.7722 537.863C93.6444 537.949 93.5447 538.072 93.4859 538.215C93.4271 538.358 93.4117 538.516 93.4417 538.668C93.4717 538.82 93.5457 538.959 93.6544 539.069C93.7631 539.178 93.9016 539.253 94.0523 539.283C94.2031 539.313 94.3594 539.298 94.5014 539.239C94.6434 539.179 94.7648 539.079 94.8502 538.95C94.9356 538.821 94.9811 538.67 94.9811 538.515C94.9811 538.307 94.8993 538.107 94.7535 537.96C94.6078 537.814 94.4101 537.731 94.204 537.731Z" fill="#877697"/>
<path d="M117.374 681.926C117.214 681.902 117.05 681.929 116.905 682.001C116.76 682.074 116.641 682.19 116.563 682.333C116.485 682.476 116.452 682.64 116.469 682.802C116.486 682.965 116.552 683.118 116.658 683.241C116.764 683.365 116.905 683.453 117.062 683.494C117.218 683.534 117.384 683.525 117.536 683.468C117.687 683.411 117.818 683.309 117.911 683.175C118.003 683.041 118.053 682.881 118.053 682.718C118.053 682.526 117.984 682.34 117.86 682.195C117.735 682.049 117.563 681.954 117.374 681.926Z" fill="#877697"/>
<path d="M45.3132 860.208C45.1529 860.184 44.9893 860.21 44.8443 860.283C44.6993 860.356 44.5798 860.471 44.5018 860.614C44.4239 860.758 44.3912 860.921 44.4082 861.084C44.4252 861.246 44.491 861.399 44.5969 861.523C44.7028 861.647 44.8436 861.735 45.0005 861.775C45.1574 861.816 45.3228 861.807 45.4746 861.75C45.6264 861.693 45.7573 861.591 45.8497 861.457C45.9421 861.323 45.9917 861.163 45.9917 861C45.9917 860.808 45.9232 860.622 45.7986 860.476C45.674 860.331 45.5017 860.236 45.3132 860.208Z" fill="#877697"/>
<path d="M239.614 842.366C239.186 842.328 238.757 842.42 238.383 842.632C238.008 842.844 237.706 843.164 237.515 843.552C237.325 843.94 237.255 844.377 237.315 844.806C237.376 845.234 237.563 845.635 237.852 845.954C238.142 846.274 238.521 846.497 238.939 846.596C239.357 846.695 239.795 846.664 240.195 846.507C240.595 846.35 240.939 846.075 241.181 845.718C241.424 845.361 241.554 844.938 241.554 844.505C241.554 843.969 241.355 843.452 240.996 843.056C240.637 842.66 240.144 842.414 239.614 842.366Z" fill="#877697"/>
<path d="M366.888 684.4C366.47 684.4 366.062 684.525 365.714 684.759C365.367 684.993 365.096 685.326 364.936 685.715C364.776 686.104 364.734 686.533 364.816 686.946C364.898 687.359 365.099 687.739 365.394 688.037C365.69 688.335 366.066 688.538 366.476 688.62C366.886 688.702 367.311 688.66 367.697 688.499C368.083 688.338 368.413 688.064 368.645 687.714C368.877 687.364 369.001 686.952 369.001 686.53C369.001 685.965 368.778 685.424 368.382 685.024C367.986 684.624 367.449 684.4 366.888 684.4Z" fill="#877697"/>
<path d="M153.204 480.916C152.777 480.877 152.347 480.97 151.973 481.182C151.599 481.393 151.296 481.714 151.106 482.102C150.915 482.49 150.846 482.927 150.906 483.356C150.966 483.784 151.153 484.184 151.443 484.504C151.732 484.823 152.111 485.047 152.529 485.146C152.947 485.244 153.385 485.213 153.785 485.057C154.185 484.9 154.529 484.625 154.772 484.268C155.014 483.911 155.144 483.488 155.144 483.055C155.144 482.519 154.945 482.002 154.586 481.606C154.227 481.21 153.734 480.964 153.204 480.916Z" fill="#877697"/>
<path d="M125.402 583.171C124.975 583.132 124.546 583.225 124.171 583.437C123.797 583.648 123.495 583.969 123.304 584.357C123.114 584.745 123.044 585.182 123.104 585.61C123.164 586.039 123.351 586.439 123.641 586.759C123.931 587.078 124.309 587.302 124.727 587.401C125.145 587.499 125.583 587.468 125.983 587.311C126.384 587.155 126.727 586.88 126.97 586.523C127.212 586.165 127.342 585.743 127.342 585.31C127.342 584.773 127.143 584.256 126.784 583.861C126.425 583.465 125.932 583.219 125.402 583.171Z" fill="#877697"/>
<path d="M55.3009 852.965C54.8733 852.926 54.4442 853.019 54.0697 853.231C53.6952 853.442 53.393 853.763 53.2025 854.151C53.012 854.539 52.9423 854.976 53.0024 855.405C53.0626 855.833 53.2498 856.234 53.5395 856.553C53.8292 856.872 54.2078 857.096 54.6258 857.195C55.0438 857.293 55.4816 857.262 55.8818 857.106C56.282 856.949 56.6259 856.674 56.8684 856.317C57.1109 855.96 57.2406 855.537 57.2406 855.104C57.2407 854.568 57.0416 854.051 56.6826 853.655C56.3237 853.259 55.8308 853.013 55.3009 852.965Z" fill="#877697"/>
<path d="M255.157 424.056L248.329 425.334L246.808 432.577L245.288 425.334L238.477 424.056L245.254 422.386L246.809 415.535L248.364 422.386L255.157 424.056Z" fill="#877697"/>
<path d="M139.02 15.0729L132.193 16.3512L130.672 23.5939L129.151 16.3512L122.34 15.0729L129.117 13.4033L130.672 6.552L132.226 13.4033L139.02 15.0729Z" fill="#877697"/>
<path d="M57.2243 309.84L50.3971 311.101L48.8762 318.344L47.3554 311.101L40.5449 309.84L47.3219 308.17L48.8762 301.319L50.4306 308.17L57.2243 309.84Z" fill="#877697"/>
<path d="M250.831 273.067L244.021 274.345L242.5 281.588L240.979 274.345L234.151 273.067L240.946 271.397L242.5 264.546L244.054 271.397L250.831 273.067Z" fill="#877697"/>
<path d="M338.915 236.923L335.112 237.621L334.251 241.677L333.409 237.621L329.607 236.923L333.392 235.985L334.254 232.151L335.133 235.985L338.915 236.923Z" fill="#877697"/>
<path d="M102.735 220.195L98.9331 220.911L98.0879 224.966L97.226 220.911L93.4238 220.195L97.2093 219.256L98.0879 215.439L98.9498 219.256L102.735 220.195Z" fill="#877697"/>
<path d="M220.801 41.7592L216.984 42.4753L216.139 46.511L215.294 42.4753L211.478 41.7592L215.28 40.8207L216.142 37.0037L217.004 40.8207L220.801 41.7592Z" fill="#877697"/>
<path d="M309.656 319.07L305.854 319.768L305.009 323.824L304.147 319.768L300.345 319.07L304.13 318.131L305.009 314.297L305.871 318.131L309.656 319.07Z" fill="#877697"/>
<path d="M278.684 328.835L274.868 329.534L274.022 333.589L273.161 329.534L269.358 328.835L273.144 327.897L274.022 324.063L274.884 327.897L278.684 328.835Z" fill="#877697"/>
<path d="M278.684 126.572L274.868 127.288L274.022 131.344L273.161 127.288L269.358 126.572L273.144 125.634L274.022 121.817L274.884 125.634L278.684 126.572Z" fill="#877697"/>
<path d="M113.298 119.302L109.482 120.001L108.637 124.056L107.775 120.001L103.973 119.302L107.775 118.364L108.637 114.53L109.499 118.364L113.298 119.302Z" fill="#877697"/>
<path d="M19.4359 114.049L15.6337 114.766L14.7718 118.821L13.9267 114.766L10.1245 114.049L13.91 113.111L14.7718 109.294L15.6505 113.111L19.4359 114.049Z" fill="#877697"/>
<path d="M70.642 368.093L66.8398 368.809L65.9947 372.845L65.1328 368.809L61.3306 368.093L65.116 367.155L65.9947 363.338L66.8565 367.155L70.642 368.093Z" fill="#877697"/>
<path d="M262.966 366.986C262.749 366.986 262.537 367.051 262.356 367.172C262.176 367.294 262.035 367.467 261.952 367.669C261.869 367.872 261.847 368.094 261.889 368.309C261.932 368.524 262.036 368.721 262.19 368.876C262.343 369.031 262.539 369.137 262.752 369.179C262.965 369.222 263.186 369.2 263.387 369.116C263.587 369.033 263.759 368.891 263.88 368.708C264 368.526 264.065 368.312 264.065 368.093C264.065 367.799 263.949 367.518 263.743 367.31C263.537 367.102 263.258 366.986 262.966 366.986Z" fill="#877697"/>
<path d="M279.746 156.214C279.521 156.186 279.292 156.227 279.091 156.333C278.89 156.438 278.725 156.603 278.619 156.806C278.513 157.008 278.471 157.238 278.498 157.465C278.525 157.693 278.62 157.906 278.77 158.077C278.921 158.249 279.119 158.37 279.339 158.425C279.56 158.48 279.791 158.466 280.003 158.385C280.216 158.303 280.398 158.159 280.527 157.971C280.656 157.782 280.724 157.559 280.724 157.33C280.724 157.056 280.624 156.791 280.444 156.586C280.264 156.38 280.016 156.248 279.746 156.214Z" fill="#877697"/>
<path d="M85.3791 29.5573C85.154 29.5289 84.9256 29.5703 84.7244 29.676C84.5232 29.7817 84.3586 29.9467 84.2527 30.1491C84.1468 30.3514 84.1045 30.5815 84.1314 30.8086C84.1584 31.0358 84.2533 31.2493 84.4036 31.4207C84.5539 31.5921 84.7524 31.7133 84.9727 31.7682C85.1929 31.8231 85.4245 31.809 85.6367 31.7278C85.8488 31.6466 86.0314 31.5023 86.1602 31.3139C86.2889 31.1255 86.3577 30.902 86.3574 30.6732C86.357 30.399 86.2574 30.1344 86.0773 29.9289C85.8972 29.7235 85.649 29.5913 85.3791 29.5573Z" fill="#877697"/>
<path d="M1.0983 124.465C0.881079 124.465 0.668741 124.53 0.488125 124.652C0.307509 124.774 0.166726 124.947 0.0835973 125.149C0.000468902 125.351 -0.0212719 125.574 0.0211066 125.789C0.0634851 126.004 0.168086 126.201 0.321687 126.356C0.475288 126.511 0.670981 126.616 0.884032 126.659C1.09708 126.702 1.31792 126.68 1.51861 126.596C1.7193 126.512 1.89084 126.37 2.01152 126.188C2.1322 126.006 2.19662 125.792 2.19662 125.573C2.19662 125.279 2.08089 124.997 1.87492 124.79C1.66895 124.582 1.38959 124.465 1.0983 124.465Z" fill="#877697"/>
<path d="M65.9929 262.201C65.7678 262.173 65.5394 262.214 65.3382 262.32C65.1369 262.426 64.9724 262.591 64.8665 262.793C64.7606 262.996 64.7183 263.226 64.7452 263.453C64.7722 263.68 64.8671 263.893 65.0174 264.065C65.1676 264.236 65.3661 264.358 65.5864 264.412C65.8067 264.467 66.0383 264.453 66.2505 264.372C66.4626 264.291 66.6452 264.146 66.7739 263.958C66.9027 263.77 66.9715 263.546 66.9712 263.317C66.9708 263.043 66.8712 262.779 66.6911 262.573C66.511 262.368 66.2627 262.236 65.9929 262.201Z" fill="#877697"/>
<path d="M33.2928 236.683C33.1391 236.683 32.9888 236.729 32.861 236.815C32.7332 236.901 32.6336 237.023 32.5748 237.167C32.516 237.31 32.5006 237.467 32.5306 237.619C32.5605 237.771 32.6346 237.911 32.7433 238.021C32.8519 238.13 32.9904 238.205 33.1412 238.235C33.292 238.265 33.4482 238.25 33.5902 238.19C33.7322 238.131 33.8536 238.031 33.939 237.902C34.0244 237.773 34.07 237.621 34.07 237.466C34.07 237.259 33.9881 237.059 33.8424 236.912C33.6966 236.765 33.4989 236.683 33.2928 236.683Z" fill="#877697"/>
<path d="M94.0653 56.8235C93.9116 56.8235 93.7613 56.8694 93.6335 56.9556C93.5057 57.0417 93.4061 57.1641 93.3472 57.3073C93.2884 57.4505 93.273 57.608 93.303 57.76C93.333 57.9121 93.407 58.0517 93.5157 58.1613C93.6244 58.2709 93.7629 58.3455 93.9137 58.3758C94.0644 58.406 94.2207 58.3905 94.3627 58.3312C94.5047 58.2719 94.6261 58.1714 94.7115 58.0425C94.7969 57.9137 94.8425 57.7622 94.8425 57.6072C94.8425 57.3993 94.7606 57.2 94.6148 57.053C94.4691 56.9061 94.2714 56.8235 94.0653 56.8235Z" fill="#877697"/>
<path d="M117.236 209.013C117.075 208.989 116.912 209.016 116.767 209.088C116.622 209.161 116.502 209.277 116.424 209.42C116.346 209.563 116.314 209.727 116.331 209.889C116.348 210.052 116.413 210.205 116.519 210.328C116.625 210.452 116.766 210.54 116.923 210.581C117.08 210.621 117.245 210.612 117.397 210.555C117.549 210.498 117.68 210.396 117.772 210.262C117.865 210.128 117.914 209.968 117.914 209.805C117.914 209.613 117.846 209.427 117.721 209.282C117.596 209.136 117.424 209.041 117.236 209.013Z" fill="#877697"/>
<path d="M45.1745 395.785C45.0143 395.761 44.8506 395.787 44.7056 395.86C44.5606 395.933 44.4411 396.048 44.3631 396.191C44.2852 396.335 44.2525 396.498 44.2695 396.661C44.2865 396.823 44.3524 396.976 44.4582 397.1C44.5641 397.224 44.7049 397.312 44.8618 397.352C45.0187 397.393 45.1841 397.384 45.3359 397.327C45.4877 397.27 45.6186 397.168 45.711 397.034C45.8035 396.899 45.853 396.74 45.853 396.577C45.853 396.385 45.7845 396.199 45.6599 396.053C45.5353 395.908 45.3631 395.813 45.1745 395.785Z" fill="#877697"/>
<path d="M239.475 377.943C239.048 377.905 238.618 377.997 238.244 378.209C237.87 378.42 237.567 378.741 237.377 379.129C237.186 379.517 237.117 379.954 237.177 380.383C237.237 380.811 237.424 381.212 237.714 381.531C238.003 381.85 238.382 382.074 238.8 382.173C239.218 382.271 239.656 382.24 240.056 382.084C240.456 381.927 240.8 381.652 241.043 381.295C241.285 380.938 241.415 380.515 241.415 380.082C241.415 379.546 241.216 379.029 240.857 378.633C240.498 378.237 240.005 377.991 239.475 377.943Z" fill="#877697"/>
<path d="M366.75 211.638C366.332 211.638 365.923 211.763 365.576 211.997C365.228 212.231 364.957 212.564 364.798 212.953C364.638 213.343 364.596 213.771 364.677 214.184C364.759 214.597 364.96 214.977 365.256 215.275C365.551 215.573 365.928 215.776 366.337 215.858C366.747 215.94 367.172 215.898 367.558 215.737C367.944 215.576 368.274 215.303 368.506 214.952C368.738 214.602 368.862 214.19 368.862 213.769C368.862 213.203 368.64 212.662 368.244 212.262C367.847 211.863 367.31 211.638 366.75 211.638Z" fill="#877697"/>
<path d="M153.064 0.0085539C152.636 -0.0300412 152.207 0.0625683 151.832 0.274234C151.458 0.485901 151.156 0.806741 150.965 1.19468C150.775 1.58262 150.705 2.01954 150.765 2.44814C150.825 2.87674 151.012 3.27701 151.302 3.59646C151.592 3.91591 151.971 4.13962 152.389 4.23824C152.807 4.33687 153.244 4.30581 153.645 4.14914C154.045 3.99247 154.389 3.7175 154.631 3.3603C154.874 3.00309 155.003 2.58034 155.003 2.14747C155.003 1.61108 154.804 1.0941 154.445 0.698261C154.086 0.30242 153.593 0.0563788 153.064 0.0085539Z" fill="#877697"/>
<path d="M125.264 106.356C124.836 106.318 124.407 106.41 124.033 106.622C123.658 106.834 123.356 107.155 123.165 107.543C122.975 107.931 122.905 108.367 122.965 108.796C123.025 109.225 123.213 109.625 123.502 109.944C123.792 110.264 124.171 110.488 124.589 110.586C125.007 110.685 125.445 110.654 125.845 110.497C126.245 110.34 126.589 110.065 126.831 109.708C127.074 109.351 127.204 108.928 127.204 108.495C127.204 107.959 127.005 107.442 126.646 107.046C126.287 106.65 125.794 106.404 125.264 106.356Z" fill="#877697"/>
<path d="M55.1622 388.542C54.7347 388.503 54.3055 388.596 53.931 388.808C53.5566 389.019 53.2543 389.34 53.0638 389.728C52.8734 390.116 52.8036 390.553 52.8638 390.982C52.9239 391.41 53.1111 391.81 53.4008 392.13C53.6905 392.449 54.0692 392.673 54.4872 392.772C54.9052 392.87 55.343 392.839 55.7432 392.683C56.1433 392.526 56.4872 392.251 56.7297 391.894C56.9722 391.537 57.102 391.114 57.102 390.681C57.102 390.145 56.903 389.628 56.544 389.232C56.185 388.836 55.6921 388.59 55.1622 388.542Z" fill="#877697"/>
</svg>
