<svg width="658" height="551" viewBox="0 0 658 551" fill="none" xmlns="http://www.w3.org/2000/svg">
<path d="M237.134 460.265C255.404 460.149 273.383 462.757 291.387 465.339C308.619 467.831 325.884 469.782 343.274 470.829C379.166 472.996 415.174 471.991 451.05 469.865C471.196 468.678 491.327 467.125 511.457 465.58C512.246 465.514 512.288 464.268 511.457 464.335C439.266 469.899 366.958 474.823 294.909 464.592C275.767 461.851 256.55 458.895 237.131 459.02C236.975 459.034 236.831 459.106 236.726 459.221C236.622 459.336 236.563 459.487 236.563 459.642C236.563 459.798 236.622 459.948 236.726 460.064C236.831 460.179 236.975 460.251 237.131 460.265H237.134Z" fill="#E8E8E8"/>
<path d="M329.503 456.744C408.919 457.508 487.513 444.345 566.681 440.243C589.103 439.081 611.525 438.69 633.947 439.496C634.034 439.504 634.121 439.494 634.204 439.466C634.286 439.439 634.362 439.394 634.427 439.335C634.491 439.277 634.542 439.205 634.578 439.126C634.613 439.046 634.631 438.96 634.631 438.873C634.631 438.786 634.613 438.7 634.578 438.62C634.542 438.54 634.491 438.469 634.427 438.41C634.362 438.352 634.286 438.307 634.204 438.28C634.121 438.252 634.034 438.242 633.947 438.25C554.539 435.385 475.828 448.092 396.794 453.355C374.372 454.85 351.95 455.714 329.528 455.498C329.373 455.512 329.229 455.584 329.124 455.699C329.019 455.814 328.961 455.965 328.961 456.12C328.961 456.276 329.019 456.426 329.124 456.541C329.229 456.657 329.373 456.729 329.528 456.743L329.503 456.744Z" fill="#E8E8E8"/>
<path d="M226.327 410.446C251.282 421.118 278.928 414.839 304.739 411.41C334.901 407.396 365.201 404.738 395.64 403.435C413.013 402.693 430.396 402.397 447.789 402.546C447.944 402.531 448.088 402.459 448.193 402.344C448.298 402.229 448.356 402.079 448.356 401.923C448.356 401.767 448.298 401.617 448.193 401.502C448.088 401.387 447.944 401.315 447.789 401.3C418.175 401.068 388.589 402.106 359.031 404.414C344.132 405.588 329.267 407.089 314.435 408.915C300.708 410.576 287.03 412.96 273.295 414.31C257.649 415.846 241.622 415.639 226.956 409.327C226.225 409.02 225.594 410.091 226.325 410.407L226.327 410.446Z" fill="#E8E8E8"/>
<path d="M445.461 404.376C499.441 407.258 553.062 395.872 607.042 398.912C622.454 399.688 637.753 401.977 652.717 405.747C652.874 405.781 653.037 405.753 653.174 405.671C653.311 405.588 653.411 405.456 653.453 405.302C653.496 405.148 653.478 404.983 653.403 404.842C653.328 404.701 653.201 404.594 653.05 404.543C600.365 390.982 545.963 399.817 492.573 402.782C476.89 403.753 461.165 403.87 445.469 403.131C444.639 403.089 444.639 404.335 445.469 404.376H445.461Z" fill="#E8E8E8"/>
<path d="M301.009 513.248C318.656 521.337 338.097 522.383 357.189 520.805C378.241 519.053 399.127 514.892 419.929 511.372C465.231 503.71 510.689 495.909 556.663 493.859C582.407 492.712 608.201 493.452 633.745 496.94C634.527 497.048 634.866 495.852 634.069 495.744C590.138 489.731 545.708 491.974 501.853 497.446C457.748 502.96 414.24 512.311 370.191 518.132C347.245 521.172 323.154 522.035 301.637 512.17C300.914 511.846 300.275 512.917 301.006 513.25L301.009 513.248Z" fill="#E8E8E8"/>
<path d="M255.952 278.919C269.24 281.294 282.643 279.882 295.946 278.215C310.213 276.422 324.498 274.835 338.831 273.615C367.581 271.157 396.401 269.95 425.289 269.994C441.627 270.027 457.959 270.459 474.286 271.29C475.116 271.331 475.116 270.086 474.286 270.044C417.434 267.167 360.441 269.151 303.927 275.974C288.148 277.892 272.17 280.55 256.309 277.726C255.527 277.584 255.187 278.78 255.976 278.922L255.952 278.919Z" fill="#E8E8E8"/>
<path d="M454.828 222.622C507.146 231.384 558.958 215.214 611.06 212.416C626.314 211.462 641.626 212.139 656.736 214.434C657.517 214.559 657.857 213.363 657.059 213.238C604.707 204.794 552.978 221.02 500.818 223.66C485.557 224.566 470.242 223.817 455.143 221.426C454.361 221.293 454.021 222.489 454.81 222.622H454.828Z" fill="#E8E8E8"/>
<path d="M239.15 144.368C262.162 151.975 286.436 148.52 310.013 146.22C335.597 143.681 361.368 143.629 386.962 146.064C387.793 146.147 387.751 144.891 386.962 144.818C361.882 142.41 336.629 142.41 311.549 144.818C287.582 147.119 262.893 150.897 239.482 143.158C238.718 142.9 238.395 144.105 239.15 144.354V144.368Z" fill="#E8E8E8"/>
<path d="M374.778 117.611C407.166 125.085 440.467 124.379 473.447 123.133C507.902 121.821 542.208 121.473 576.65 123.415C596.339 124.51 615.988 126.131 635.612 128.066C636.442 128.149 636.442 126.893 635.612 126.82C601.306 123.432 566.842 121.035 532.379 120.659C498.945 120.301 465.577 123.15 432.16 122.66C412.993 122.378 393.85 120.742 375.15 116.405C374.368 116.231 374.037 117.427 374.817 117.61L374.778 117.611Z" fill="#E8E8E8"/>
<path d="M268.381 176.69C269.931 176.69 271.188 175.433 271.188 173.883C271.188 172.333 269.931 171.076 268.381 171.076C266.831 171.076 265.574 172.333 265.574 173.883C265.574 175.433 266.831 176.69 268.381 176.69Z" fill="#331C48"/>
<path d="M340.556 110.86C343.042 110.86 345.057 108.845 345.057 106.359C345.057 103.873 343.042 101.858 340.556 101.858C338.07 101.858 336.055 103.873 336.055 106.359C336.055 108.845 338.07 110.86 340.556 110.86Z" stroke="#461EB8" stroke-miterlimit="10"/>
<path d="M616.966 270.964C619.612 270.964 621.758 268.818 621.758 266.172C621.758 263.525 619.612 261.38 616.966 261.38C614.319 261.38 612.174 263.525 612.174 266.172C612.174 268.818 614.319 270.964 616.966 270.964Z" fill="#331C48"/>
<path d="M272.294 332.857C274.455 332.857 276.206 331.106 276.206 328.946C276.206 326.785 274.455 325.034 272.294 325.034C270.134 325.034 268.383 326.785 268.383 328.946C268.383 331.106 270.134 332.857 272.294 332.857Z" stroke="#461EB8" stroke-miterlimit="10"/>
<path d="M579.809 160.87C582.088 160.87 583.936 159.022 583.936 156.743C583.936 154.463 582.088 152.616 579.809 152.616C577.53 152.616 575.682 154.463 575.682 156.743C575.682 159.022 577.53 160.87 579.809 160.87Z" stroke="#461EB8" stroke-miterlimit="10"/>
<path d="M306.849 215.555C308.899 215.555 310.561 213.893 310.561 211.843C310.561 209.793 308.899 208.131 306.849 208.131C304.799 208.131 303.137 209.793 303.137 211.843C303.137 213.893 304.799 215.555 306.849 215.555Z" fill="#FEB15F"/>
<path d="M611.997 190.41C615.713 190.41 618.724 187.398 618.724 183.683C618.724 179.968 615.713 176.956 611.997 176.956C608.282 176.956 605.271 179.968 605.271 183.683C605.271 187.398 608.282 190.41 611.997 190.41Z" fill="#FEB15F"/>
<path d="M536.019 110.861C540.377 110.861 543.909 107.328 543.909 102.971C543.909 98.6138 540.377 95.0815 536.019 95.0815C531.662 95.0815 528.13 98.6138 528.13 102.971C528.13 107.328 531.662 110.861 536.019 110.861Z" stroke="#EC615B" stroke-miterlimit="10"/>
<path d="M384.014 341.003C385.614 341.003 386.912 339.706 386.912 338.105C386.912 336.504 385.614 335.207 384.014 335.207C382.413 335.207 381.115 336.504 381.115 338.105C381.115 339.706 382.413 341.003 384.014 341.003Z" stroke="#EC615B" stroke-miterlimit="10"/>
<path d="M463.449 404.899L496.493 409.234C500.313 417.896 506.209 431.092 513.683 447.103C529.287 480.504 537.019 494.58 534.992 495.883C532.268 497.635 514.48 474.939 509.589 468.711C500.592 457.241 492.247 445.275 484.592 432.869L465.416 434.322C467.499 424.522 466.818 414.335 463.449 404.899Z" fill="#877697"/>
<path d="M398.724 350.778C393.459 350.968 386.358 351.234 377.963 351.567C334.871 353.311 318.726 354.573 300.19 360.519C291.629 363.268 282.626 366.996 275.202 375.284C270.807 379.888 267.707 385.572 266.216 391.76C264.274 400.397 266.416 407.423 268.051 412.787C269.995 419.684 273.428 426.071 278.108 431.497C280.376 434.072 286.853 440.823 301.785 446.04C316.327 451.121 328.359 451.022 340.816 450.972C399.695 450.623 397.619 450.748 400.293 450.607C416.27 449.777 437.406 448.174 462.361 444.993C463.677 441.532 464.686 437.961 465.375 434.322C467.036 425.722 465.898 419.748 465.492 412.44C465.07 404.601 465.401 396.739 466.48 388.963L462.328 354.615L398.724 350.778Z" fill="white"/>
<path opacity="0.24" d="M346.904 388C359.771 389.481 372.348 392.862 384.224 398.031C406.148 407.59 431.801 426.143 428.687 434.712C427.649 437.578 423.28 439.695 387.646 438.757C340.219 437.486 316.227 436.646 301.22 426.3C293.854 421.226 279.13 408.935 270.295 381.688C266.715 389.628 265.424 398.409 266.566 407.043C268.625 422.054 277.62 431.525 281.514 435.088C291.098 443.857 301.644 446.05 313.902 448.599C323.984 450.692 331.59 450.883 342.544 451C368.122 451.282 380.911 451.423 394.145 450.834C411.851 450.052 434.995 448.442 462.342 444.962C463.964 440.542 465.168 435.98 465.938 431.335C466.693 427.127 467.016 422.853 466.902 418.579C466.221 407.335 458.927 398.557 454.403 394.029L346.904 388Z" fill="#9E9E9E"/>
<path d="M266.201 396.852C267.803 366.956 304.875 357.821 328.875 354.945C342.387 353.334 356.031 353.026 369.617 352.512L414.088 350.851C414.175 350.859 414.262 350.849 414.345 350.822C414.427 350.794 414.503 350.75 414.568 350.691C414.632 350.632 414.683 350.561 414.719 350.481C414.754 350.402 414.772 350.316 414.772 350.228C414.772 350.141 414.754 350.055 414.719 349.976C414.683 349.896 414.632 349.825 414.568 349.766C414.503 349.707 414.427 349.663 414.345 349.635C414.262 349.608 414.175 349.598 414.088 349.606L364.676 351.482C350.109 352.039 335.468 352.479 321.049 354.804C298.19 358.51 266.441 369.098 264.971 396.852C264.963 396.938 264.973 397.026 265.001 397.108C265.029 397.191 265.073 397.267 265.132 397.331C265.19 397.396 265.262 397.447 265.341 397.482C265.421 397.517 265.507 397.536 265.594 397.536C265.681 397.536 265.767 397.517 265.847 397.482C265.927 397.447 265.998 397.396 266.057 397.331C266.115 397.267 266.16 397.191 266.187 397.108C266.215 397.026 266.225 396.938 266.217 396.852H266.201Z" fill="black"/>
<path d="M264.613 395.98C265.07 407.756 268.484 419.573 275.481 429.198C283.022 439.518 293.698 444.976 305.973 447.767C321.751 451.355 338.128 451.711 354.247 451.977C371.221 452.248 388.187 451.927 405.145 451.014C424.284 449.984 443.356 448.195 462.363 445.649C463.152 445.541 463.193 444.295 462.363 444.403C431.42 448.532 400.245 450.673 369.028 450.814C353.366 450.881 337.537 450.814 321.961 449.154C307.644 447.59 292.181 444.769 281.502 434.322C271.329 424.357 266.396 410.073 265.857 396.046C265.865 395.96 265.855 395.872 265.827 395.79C265.799 395.707 265.755 395.631 265.696 395.567C265.638 395.502 265.566 395.451 265.487 395.416C265.407 395.381 265.321 395.362 265.234 395.362C265.147 395.362 265.061 395.381 264.981 395.416C264.901 395.451 264.83 395.502 264.771 395.567C264.713 395.631 264.668 395.707 264.641 395.79C264.613 395.872 264.603 395.96 264.611 396.046L264.613 395.98Z" fill="black"/>
<path d="M346.903 388.622L453.832 394.584C454.663 394.626 454.663 393.38 453.832 393.339L346.903 387.359C346.073 387.318 346.073 388.563 346.903 388.605V388.622Z" fill="black"/>
<path d="M454.071 394.584C461.869 399.135 465.258 409.142 466.18 417.663C467.126 426.349 465.532 435.002 463.131 443.323C463.108 443.474 463.141 443.628 463.225 443.756C463.308 443.884 463.435 443.977 463.582 444.018C463.729 444.059 463.886 444.045 464.023 443.978C464.16 443.911 464.268 443.797 464.327 443.656C467.042 434.238 468.695 424.372 467.001 414.59C465.622 406.601 462.018 397.748 454.701 393.488C454.631 393.444 454.551 393.415 454.469 393.402C454.387 393.389 454.302 393.393 454.221 393.413C454.14 393.433 454.064 393.47 453.998 393.52C453.931 393.57 453.875 393.633 453.833 393.705C453.79 393.777 453.763 393.856 453.752 393.939C453.742 394.022 453.747 394.106 453.77 394.186C453.792 394.267 453.83 394.342 453.881 394.408C453.933 394.473 453.997 394.528 454.071 394.568L454.071 394.584Z" fill="black"/>
<path d="M447.196 454.584L417.475 486.764C419.487 491.466 421.778 496.045 424.334 500.475C443.028 532.929 473.97 553.797 477.741 550.344C480.316 547.977 471.978 532.518 463.981 522.399C458.359 515.299 453.775 511.953 450.643 503.806C448.601 498.369 447.751 492.556 448.152 486.762L465.201 471.198L456.209 462.894L447.196 454.584Z" fill="#877697"/>
<path d="M488.821 348.486C492.542 344.264 498.405 337.906 506.128 330.714C519.149 318.596 534.274 304.779 556.835 296.209C578.302 288.054 589.007 291.293 591.756 292.222C594.505 293.151 601.804 295.735 606.861 302.777C611.919 309.819 612.002 317.293 612.01 322.359C612.01 337.365 605.442 348.718 603.306 352.297C583.284 385.897 553.139 413.601 553.139 413.601C538.265 427.283 515.636 448.48 486.951 476.79C481.244 476.866 475.576 475.837 470.259 473.759C461.954 470.437 456.89 465.454 452.199 460.687C446.076 454.44 441.038 447.216 437.292 439.312L462.903 403.364C461.076 387.818 459.252 372.272 457.43 356.726C460.644 353.886 469.887 346.545 482.12 347.284C484.393 347.423 486.642 347.827 488.822 348.488L488.821 348.486Z" fill="white"/>
<path opacity="0.21" d="M602.002 297.62C602.203 304.924 601.692 312.23 600.474 319.434C590.185 379.323 533.623 412.262 521.977 418.664C488.992 436.793 456.911 439.525 437.321 439.309C439.461 443.234 441.837 447.025 444.436 450.662C446.587 453.684 451.595 460.702 457.18 465.527C460.684 468.549 469.969 475.492 486.977 476.785C499.043 466.579 514.506 452.893 531.822 435.861C539.138 428.652 544.885 422.623 556.371 410.565C579.79 385.975 589.797 374.258 599.173 359.65C604.592 351.258 608.502 341.984 610.725 332.245C613.017 322.03 612.112 316.666 611.44 313.872C609.865 307.683 606.597 302.055 602.002 297.62Z" fill="#9E9E9E"/>
<path d="M489.258 348.906C504.355 331.565 522.09 316.711 541.809 304.888C559.655 294.233 588.057 281.711 604.923 301.276C612.971 310.619 612.397 324.072 609.325 335.258C606.127 346.425 600.912 356.913 593.937 366.201C586.462 376.382 577.718 385.634 569.289 395.01C561.441 403.713 553.569 412.349 545.521 420.837C527.002 440.361 507.602 459.038 486.517 475.813C485.886 476.311 486.774 477.191 487.398 476.693C507.882 460.425 526.786 442.304 544.824 423.378C553.959 413.811 562.853 404.037 571.681 394.204C580.176 384.737 588.979 375.386 596.328 364.981C607.606 349.019 620.005 322.329 608.112 303.528C596.072 284.485 570.26 288.837 553.203 297.208C528.513 309.333 506.415 327.379 488.377 348.032C487.846 348.63 488.726 349.517 489.258 348.912V348.906Z" fill="black"/>
<path d="M528.084 331.263C494.376 364.19 460.711 398.023 436.787 438.998C436.743 439.068 436.714 439.148 436.701 439.23C436.688 439.312 436.692 439.397 436.712 439.478C436.732 439.559 436.768 439.635 436.818 439.701C436.868 439.768 436.931 439.824 437.003 439.866C437.075 439.909 437.155 439.936 437.238 439.947C437.321 439.957 437.405 439.952 437.485 439.929C437.566 439.907 437.641 439.869 437.706 439.818C437.772 439.766 437.826 439.702 437.867 439.628C461.742 398.738 495.332 364.996 528.967 332.143C529.54 331.578 528.66 330.698 528.087 331.262L528.084 331.263Z" fill="black"/>
<path d="M437.238 439.786C447.481 458.628 463.314 478.394 486.982 477.413C487.069 477.421 487.156 477.411 487.239 477.384C487.321 477.356 487.397 477.312 487.462 477.253C487.526 477.194 487.578 477.123 487.613 477.043C487.648 476.964 487.666 476.878 487.666 476.791C487.666 476.703 487.648 476.617 487.613 476.538C487.578 476.458 487.526 476.387 487.462 476.328C487.397 476.269 487.321 476.225 487.239 476.197C487.156 476.17 487.069 476.16 486.982 476.168C463.73 477.131 448.35 457.615 438.31 439.155C437.927 438.457 436.856 439.076 437.238 439.786Z" fill="black"/>
<path d="M380.626 174.456C377.293 183.786 374.836 193.405 373.285 203.19C370.976 217.805 369.39 241.2 387.693 318.913C391.015 332.964 393.889 344.234 395.624 350.89C406.473 355.116 417.906 357.654 429.523 358.414C458.955 360.308 481.718 350.109 492.522 344.296C490.962 331.06 490.875 317.691 492.265 304.435C495.321 275.369 503.891 263.02 507.595 239.834C509.862 225.6 510.775 204.124 502.488 176.163L380.626 174.456Z" fill="#331C48"/>
<path d="M380.628 174.456C378.256 174.313 375.877 174.574 373.592 175.229C366.599 177.255 362.68 182.52 359.682 186.673C352.756 196.264 350.506 206.504 349.675 213.032C346.401 216.151 343.497 219.637 341.021 223.421C337.805 228.446 335.317 233.9 333.63 239.623C332.827 242.298 332.198 245.022 331.745 247.778C319.886 252.587 311.316 254.58 305.271 255.476C302.779 255.85 297.323 256.522 294.707 260.517C294.533 260.783 292.481 263.997 293.728 266.504C294.641 268.356 296.933 268.996 301.584 269.652C311.649 271.047 316.1 270.092 323.133 271.47C325.91 272.016 328.627 272.831 331.247 273.903C331.73 275.332 331.919 276.843 331.803 278.347C331.405 283.013 327.925 286.178 326.463 287.564C324.04 289.865 318.922 296.79 308.691 310.643C304.938 315.717 302.787 318.997 300.752 323.257C299.312 326.276 298.109 329.402 297.156 332.608C296.617 350.714 301.267 368.597 310.56 384.146C311.834 382.588 312.947 380.904 313.882 379.122C315.385 376.265 317.005 372.055 317.445 363.72C317.81 356.36 317.156 348.985 315.502 341.804C315.9 339.083 316.674 336.431 317.802 333.923C320.507 328.103 324.91 323.239 330.433 319.971C325.176 329.872 322.122 340.793 321.481 351.985C323.083 356.841 325.069 361.562 327.42 366.103C333.543 377.78 341.96 388.101 352.167 396.448C355.219 395.263 357.83 393.163 359.641 390.435C362.283 386.283 362.017 382.089 361.842 379.241C361.544 374.449 359.683 370.397 355.971 362.474C354.384 359.094 352.973 356.37 352.026 354.593L356.901 345.823C356.6 349.062 357.034 352.326 358.172 355.374C359.434 358.696 360.621 359.111 364.541 364.426C370.063 371.9 370.189 374.441 374.457 377.837C376.449 379.422 378.676 380.686 381.058 381.582C381.727 379.22 381.911 376.747 381.598 374.311C380.951 369.478 378.549 367.526 373.717 358.864C369.73 351.74 369.495 349.729 369.44 348.675C369.225 344.687 370.802 341.823 372.862 337.879C375.07 333.635 378.185 327.457 381.864 319.418C384.509 313.597 386.179 307.379 386.805 301.015C388.466 283.737 381.822 270.38 378.642 264.841C379.745 260.308 380.597 255.716 381.191 251.089C381.889 245.641 382.244 240.154 382.255 234.662C382.323 223.81 381.875 202.277 380.628 174.456Z" fill="white"/>
<path opacity="0.18" d="M378.742 174.43C374.312 176.818 370.567 180.3 367.864 184.545C361.478 194.726 363.786 205.464 364.334 207.798C362.051 209.011 357.176 212.05 354.926 217.763C351.604 226.317 355.424 237.403 364.891 244.529C360.455 244.304 356.007 244.485 351.604 245.068C338.383 246.82 329.478 251.714 321.342 256.296C314.591 260.091 311.235 262.109 311.377 264.526C311.601 269.882 327.239 273.113 331.235 273.885C319.401 270.414 311.238 269.857 305.674 270.115C303.415 270.215 298.199 270.613 295.301 267.391C295.002 267.068 292.942 264.75 293.449 262.317C294.279 258.323 301.123 257.11 312.267 253.938C317.15 252.56 324.026 250.467 332.264 247.469C334.044 233.705 340.602 221.004 350.794 211.583C350.796 208.775 351.092 205.975 351.674 203.228C352.794 198.252 354.787 193.513 357.562 189.233C361.208 183.163 363.45 179.433 368.151 176.876C371.413 175.162 375.063 174.318 378.747 174.427L378.742 174.43Z" fill="#9E9E9E"/>
<path opacity="0.18" d="M331.807 278.321C328.345 284.247 324.546 289.969 320.43 295.461C314.617 303.251 307.574 311.239 301.329 322.21C299.17 325.8 297.758 329.789 297.177 333.938C296.771 337.035 296.969 339.544 297.509 343.522C298.53 350.912 299.328 356.718 302.185 365.869C305.847 377.57 307.906 384.139 310.605 384.139C314.123 384.081 316.625 372.778 317.251 366.699C317.749 362.099 318.538 354.774 314.353 348.554C311.861 344.858 310.052 345.132 308.423 342.367C304.379 335.541 310.408 325.218 314.353 317.885C321.151 305.152 326.986 291.926 331.807 278.321Z" fill="#9E9E9E"/>
<path opacity="0.18" d="M330.02 320.807C327.468 326.998 326.583 333.749 327.454 340.389C327.992 344.342 329.161 348.183 330.916 351.766C332.791 354.384 335.488 356.299 338.578 357.205C345.097 359.058 350.404 355.337 351.102 354.839C353.124 357.621 354.955 360.537 356.583 363.566C359.273 368.599 360.883 371.605 361.565 376.023C362.349 380.308 361.903 384.726 360.278 388.767C358.713 392.468 356.169 395.671 352.92 398.035C348.521 394.124 344.416 389.894 340.638 385.38C334.049 377.798 328.634 369.273 324.572 360.086C323.143 356.764 322.148 353.983 321.499 352.006C322.138 341.134 325.041 330.516 330.021 320.831L330.02 320.807Z" fill="#9E9E9E"/>
<path opacity="0.18" d="M365.007 335.215C363.777 338.803 363.041 342.541 362.818 346.327C362.51 351.667 362.261 355.96 365.051 358.194C367.842 360.427 372.088 359.381 373.688 358.891C379.037 365.2 381.675 373.367 381.03 381.612C377.853 379.968 374.962 377.823 372.468 375.259C370.973 373.706 370.566 372.966 366.04 366.855C361.108 360.209 361.216 360.56 360.56 359.464C358.099 355.16 356.765 350.304 356.682 345.346C359.452 341.981 362.227 338.604 365.007 335.215Z" fill="#9E9E9E"/>
<path d="M380.628 173.833C360.838 172.654 352.077 197.26 349.07 212.864C348.921 213.646 350.117 213.985 350.267 213.197C353.174 198.099 361.47 173.941 380.62 175.079C380.707 175.087 380.794 175.077 380.877 175.049C380.959 175.022 381.035 174.977 381.1 174.918C381.164 174.86 381.215 174.788 381.251 174.709C381.286 174.629 381.304 174.543 381.304 174.456C381.304 174.369 381.286 174.283 381.251 174.203C381.215 174.124 381.164 174.052 381.1 173.993C381.035 173.935 380.959 173.89 380.877 173.863C380.794 173.835 380.707 173.825 380.62 173.833H380.628Z" fill="black"/>
<path d="M358.902 207.998C350.955 209.232 345.474 215.565 341.241 221.933C336.133 229.694 332.695 238.433 331.143 247.594C331.01 248.383 332.206 248.715 332.347 247.926C333.719 239.784 336.598 231.969 340.834 224.881C345.028 217.938 350.725 210.514 359.237 209.177C360.067 209.061 359.694 207.857 358.905 207.981L358.902 207.998Z" fill="black"/>
<path d="M360.473 245.817C355.075 244.461 349.476 244.093 343.947 244.73C338.051 245.444 332.886 247.661 327.404 249.787C321.923 251.914 316.11 252.758 310.289 253.807C305.406 254.679 299.709 255.701 295.69 258.831C293.39 260.625 291.537 263.481 292.974 266.396C294.311 269.12 297.874 269.859 300.573 270.183C311.543 271.479 327.355 269.054 335.521 278.189C336.061 278.787 336.941 277.898 336.402 277.308C331.536 271.86 324.293 270.741 317.351 270.175C312.369 269.768 307.386 269.51 302.403 269.087C301.115 269.031 299.834 268.87 298.572 268.606C296.014 267.95 295.832 267.717 295.002 264.91C294.064 261.754 294.545 260.99 297.361 259.171C298.668 258.377 300.061 257.734 301.513 257.253C310.499 253.969 320.199 254.022 329.142 250.393C339.349 246.24 349.173 244.364 360.085 247.013C360.867 247.204 361.198 245.996 360.418 245.817L360.473 245.817Z" fill="black"/>
<path d="M330.708 274.218C333.498 280.082 324.969 288.652 321.673 292.895C318.567 296.889 315.37 300.809 312.281 304.82C306.127 312.784 300.488 321.083 296.81 330.506C296.519 331.254 297.723 331.577 298.014 330.838C302.723 318.78 310.758 308.673 318.725 298.627C322.172 294.291 325.602 289.948 328.766 285.398C331.258 281.835 333.84 277.924 331.781 273.592C331.44 272.87 330.369 273.501 330.709 274.223L330.708 274.218Z" fill="black"/>
<path d="M296.605 330.466C295.951 348.782 300.084 366.952 308.597 383.183C308.971 383.897 310.042 383.266 309.677 382.552C301.267 366.516 297.191 348.561 297.852 330.466C297.86 330.379 297.85 330.292 297.822 330.209C297.795 330.126 297.75 330.05 297.691 329.986C297.633 329.922 297.561 329.87 297.482 329.835C297.402 329.8 297.316 329.782 297.229 329.782C297.142 329.782 297.056 329.8 296.976 329.835C296.896 329.87 296.825 329.922 296.766 329.986C296.708 330.05 296.663 330.126 296.636 330.209C296.608 330.292 296.598 330.379 296.606 330.466H296.605Z" fill="black"/>
<path d="M339.761 311.124C331.216 318.599 320.952 325.732 316.118 336.32C315.786 337.051 316.866 337.682 317.198 336.951C321.967 326.495 332.196 319.353 340.642 312.038C341.248 311.515 340.367 310.63 339.761 311.157V311.124Z" fill="black"/>
<path d="M315.785 336.784C314.49 339.666 315.137 342.656 315.487 345.711C315.985 350.137 316.581 354.556 316.782 358.999C317.181 367.755 315.877 376.754 310.136 383.696C309.63 384.311 310.51 385.191 311.017 384.577C315.343 379.353 317.403 373 317.959 366.307C318.235 362.045 318.124 357.767 317.627 353.526C317.171 348.913 314.912 341.783 316.88 337.415C317.203 336.693 316.132 336.053 315.8 336.784H315.785Z" fill="black"/>
<path d="M374.482 259.926C382.538 270.577 386.739 283.648 386.399 296.998C386 311.888 378.758 324.569 372.281 337.576C371.924 338.289 372.995 338.921 373.352 338.201C379.92 324.988 387.229 312.125 387.628 297.002C387.974 283.432 383.716 270.144 375.545 259.304C375.063 258.673 373.981 259.304 374.465 259.929L374.482 259.926Z" fill="black"/>
<path d="M329.919 319.658C324.648 329.64 321.613 340.651 321.025 351.924C320.975 352.754 322.221 352.754 322.27 351.924C322.851 340.87 325.826 330.074 330.99 320.284C331.364 319.58 330.293 318.947 329.919 319.658Z" fill="black"/>
<path d="M320.901 352.148C326.767 369.664 337.455 385.17 351.736 396.884C352.362 397.391 353.24 396.511 352.625 396.004C338.496 384.44 327.918 369.124 322.106 351.816C321.848 351.061 320.643 351.384 320.901 352.148Z" fill="black"/>
<path d="M366.686 332.417C360.549 339.243 354.503 346.145 350.567 354.524C350.226 355.246 351.306 355.877 351.646 355.155C355.533 346.85 361.498 340.04 367.566 333.297C368.106 332.708 367.225 331.819 366.686 332.417Z" fill="black"/>
<path d="M354.162 328.979C348.98 335.814 343.415 343.346 341.131 351.731C341.097 351.887 341.125 352.05 341.207 352.187C341.29 352.324 341.422 352.424 341.576 352.467C341.73 352.509 341.895 352.491 342.036 352.416C342.177 352.341 342.285 352.215 342.336 352.063C344.578 343.808 350.125 336.343 355.241 329.599C355.722 328.968 354.642 328.348 354.161 328.974L354.162 328.979Z" fill="black"/>
<path d="M341.081 351.899C341.721 358.9 346.147 364.174 349.577 370.028C354.211 377.924 357.093 387.018 353.804 395.979C353.529 396.727 354.734 397.059 355.008 396.311C357.499 389.435 356.668 382.194 353.804 375.55C350.424 367.576 343.141 360.743 342.327 351.866C342.249 351.036 341.006 351.036 341.081 351.866V351.899Z" fill="black"/>
<path d="M350.549 354.39C354.119 360.552 358.928 366.988 360.514 374.022C361.284 377.499 361.342 381.096 360.683 384.596C360.024 388.096 358.662 391.426 356.68 394.385C356.24 395.057 357.319 395.68 357.751 395.01C361.438 389.482 363.007 382.809 362.169 376.217C361.075 367.971 355.65 360.788 351.581 353.795C351.488 353.672 351.354 353.587 351.203 353.557C351.052 353.527 350.896 353.554 350.763 353.632C350.631 353.71 350.531 353.834 350.485 353.98C350.438 354.127 350.447 354.285 350.51 354.426L350.549 354.39Z" fill="black"/>
<path d="M372.613 336.96C369.781 343.329 367.348 348.544 370.611 355.312C372.331 358.867 374.946 361.856 376.956 365.278C379.73 369.912 380.576 375.094 381.283 380.367C381.39 381.149 382.636 381.198 382.528 380.367C381.606 373.433 380.136 367.578 376.133 361.76C373.957 358.604 371.483 355.431 370.504 351.653C369.159 346.493 371.667 342.185 373.685 337.626C374.008 336.904 372.937 336.264 372.613 337.001L372.613 336.96Z" fill="black"/>
<path d="M356.245 345.854C355.988 349.566 355.947 353.054 357.956 356.301C360.448 360.32 363.478 364.082 366.261 367.927C369.998 373.159 373.901 381.023 380.901 382.219C381.683 382.352 382.022 381.148 381.225 381.015C374.249 379.827 370.189 371.282 366.426 366.025C364.301 363.06 362.126 360.121 360.057 357.122C357.565 353.543 357.225 350.097 357.524 345.853C357.581 345.023 356.336 345.023 356.278 345.853L356.245 345.854Z" fill="black"/>
<path d="M364.458 254.653C366.454 259.48 367.212 264.729 366.66 269.923C366.109 275.118 364.267 280.091 361.302 284.392C360.854 285.048 361.933 285.679 362.382 285.017C365.444 280.574 367.347 275.435 367.919 270.069C368.49 264.703 367.712 259.28 365.654 254.291C365.355 253.56 364.143 253.876 364.45 254.623L364.458 254.653Z" fill="black"/>
<path d="M380.484 232.837C381.887 242.784 380.966 252.92 377.794 262.451C377.544 263.215 378.748 263.545 378.998 262.783C382.224 253.034 383.145 242.67 381.688 232.505C381.58 231.675 380.376 232.048 380.484 232.837Z" fill="black"/>
<path d="M504.189 179.497C508.894 179.593 513.484 180.959 517.477 183.45C523.028 186.996 525.523 191.854 528.696 198.198C531.817 204.465 533.983 211.164 535.124 218.071C538.217 221.024 540.985 224.3 543.378 227.844C548.405 235.356 551.708 243.886 553.053 252.824C555.804 254.546 558.747 255.94 561.823 256.976C566.279 258.48 567.921 258.164 575.739 259.684C585.497 261.578 588.022 263.064 589.734 265.182C590.565 266.179 592.226 268.222 591.653 270.165C590.615 273.902 582.244 274.649 576.588 275.147C565.419 276.144 559.857 274.15 555.429 278.153C554.305 279.184 553.404 280.433 552.78 281.824C554.478 285.732 556.466 289.507 558.726 293.119C561.859 298.1 565.475 302.762 569.521 307.035C574.438 312.4 580.936 321.087 587.542 335.487C587.701 339.235 587.651 342.989 587.393 346.731C587.075 351.437 586.451 356.116 585.524 360.741C582.85 373.328 577.219 384.04 574.266 389.2C571.763 385.999 569.884 382.357 568.726 378.462C567.937 375.738 567.314 372.167 568.179 358.056C568.893 346.43 569.474 346.255 568.918 343.564C567.93 338.839 564.765 332.769 555.249 326.698C559.993 336.149 562.743 346.475 563.329 357.033C561.321 363.115 558.711 368.982 555.54 374.547C549.373 385.294 541.233 394.78 531.548 402.508C530.064 401.828 528.71 400.895 527.545 399.751C522.861 395.126 522.945 388.424 522.986 385.077C523.069 378.567 525.311 373.775 527.371 369.357C528.994 365.888 530.97 362.596 533.267 359.532C529.896 352.282 528.517 350.721 527.927 350.912C527.097 351.186 528.384 354.948 527.164 359.508C526.258 362.896 524.888 363.253 520.702 368.941C518.377 372.106 514.69 377.578 509.907 383.375C508.976 384.505 507.224 386.597 505.082 386.415C504.25 386.314 503.472 385.954 502.856 385.385C502.874 381.92 503.512 378.486 504.741 375.245C505.979 372.081 507.739 369.341 510.886 364.45C513.779 359.957 514.639 359.102 515.039 356.835C515.554 354.061 514.931 351.71 513.81 348.489C512.132 343.667 510.089 338.981 507.697 334.47C507.249 333.64 502.459 324.638 500.066 316.872C497.6 308.397 497.089 299.473 498.571 290.772C499.793 282.692 502.574 274.927 506.759 267.909C505.887 265.72 505.16 263.475 504.583 261.191C503.131 255.273 502.645 249.16 503.146 243.087C504.118 227.724 500.862 226.22 501.353 206.746C501.592 197.603 502.541 188.493 504.189 179.497Z" fill="white"/>
<path opacity="0.27" d="M502.346 178.957C507.546 181.178 511.99 184.863 515.137 189.562C522.029 200.026 519.38 211.304 518.882 213.272C522.023 216.503 524.942 219.943 527.618 223.569C532.387 230.03 534.776 233.36 535.092 237.919C535.234 239.896 535.192 244.565 531.114 250.301C536.304 250.636 541.275 252.515 545.39 255.696C547.591 257.431 551.826 260.761 553.188 266.617C555.132 274.921 549.692 281.814 548.878 282.801C550.929 286.671 554.272 292.766 558.802 300.001C573.227 323.022 584.355 333.111 581.265 338.368C580.249 340.095 577.356 341.915 568.086 340.801C568.611 342.784 568.955 344.81 569.116 346.855C569.489 351.755 568.659 355.06 568.152 358.058C567.149 364.148 567.172 370.363 568.219 376.445C569.216 381.494 571.94 389.84 574.865 389.732C575.562 389.732 577.082 389.168 581.041 376.138C584.554 364.512 586.372 354.994 586.539 355.028C586.52 355.793 586.399 356.553 586.182 357.287C585.947 357.287 586.763 347.205 587.652 336.866C584.237 329.501 580.121 322.481 575.361 315.905C565.396 302.136 560.372 295.26 559.45 294.38C556.593 291.631 555.788 287.329 553.529 284.082C552.908 283.321 552.597 282.355 552.657 281.375C552.892 279.673 554.69 278.618 555.464 278.185C561.859 274.565 577.147 274.863 580.014 274.938C582.414 274.996 585.528 275.113 588.318 273.153C588.684 272.895 591.823 270.612 591.64 267.954C591.574 267.172 591.117 264.857 583.461 261.621C575.63 258.299 570.921 258.549 562.235 256.141C558.994 255.251 555.813 254.158 552.71 252.869C552.371 249.372 551.686 245.917 550.667 242.555C547.736 233.19 542.408 224.754 535.212 218.083C534.223 212.572 532.656 207.18 530.537 201.997C529.152 198.279 527.305 194.749 525.039 191.492C523.062 188.71 520.77 185.496 516.734 182.905C512.425 180.215 507.424 178.843 502.346 178.957Z" fill="#9E9E9E"/>
<path opacity="0.22" d="M511.664 342.332C513.765 344.059 516.373 346.808 516.913 350.578C517.585 355.195 514.77 358.724 516.157 359.887C517.303 360.842 520.383 359.405 522.203 357.62C526.355 353.554 524.851 346.765 524.644 345.892C526.617 348.004 527.833 350.712 528.099 353.59C528.324 356.63 527.269 358.896 525.94 361.62C524.279 365.1 523.249 365.473 518.59 371.909C516.73 374.484 516.099 375.546 513.5 379.024C510.901 382.502 509.705 384.007 507.604 385.294C506.052 386.246 504.351 386.928 502.571 387.312C503.148 382.019 504.517 376.842 506.632 371.956C510.385 363.319 514.685 360.072 514.937 353.338C514.969 349.424 513.829 345.591 511.664 342.332Z" fill="#9E9E9E"/>
<path opacity="0.25" d="M551.342 321.504C551.069 321.637 553.111 325.341 554.971 331.304C557.662 339.941 561.939 353.66 556.035 359.647C549.674 366.091 534.717 360.287 533.712 359.888C530.334 363.841 527.642 368.332 525.749 373.175C524.204 377.128 522.635 381.15 522.992 386.296C523.548 394.144 528.24 399.658 530.533 402C533.414 400.314 536.145 398.383 538.696 396.229C540.074 395.066 545.522 390.357 552.058 380.168C556.691 372.923 560.468 365.165 563.311 357.048C563.085 351.684 562.215 346.367 560.72 341.211C557.47 329.975 551.782 321.305 551.342 321.504Z" fill="#9E9E9E"/>
<path d="M504.189 180.136C523.331 178.998 531.632 203.156 534.534 218.253C534.69 219.084 535.887 218.71 535.738 217.921C532.74 202.317 523.979 177.71 504.18 178.89C503.35 178.94 503.35 180.186 504.18 180.136H504.189Z" fill="black"/>
<path d="M525.58 214.26C534.084 215.589 539.789 223.021 543.983 229.964C548.218 237.052 551.096 244.867 552.47 253.009C552.603 253.798 553.807 253.457 553.666 252.676C552.118 243.511 548.682 234.767 543.577 226.999C539.349 220.613 533.852 214.301 525.907 213.056C525.124 212.931 524.783 214.136 525.58 214.26Z" fill="black"/>
<path d="M524.711 252.08C535.615 249.431 545.472 251.307 555.654 255.451C564.59 259.088 574.323 258.98 583.283 262.311C585.716 263.216 589.512 264.661 590.616 267.294C592.95 272.874 586.323 273.783 583.233 274.07C578.001 274.56 572.745 274.774 567.504 275.207C560.562 275.781 553.32 276.868 548.445 282.341C547.914 282.939 548.794 283.819 549.326 283.221C557.535 274.045 573.259 276.576 584.279 275.216C586.995 274.876 590.508 274.161 591.878 271.429C593.332 268.547 591.429 265.616 589.163 263.872C585.143 260.732 579.438 259.719 574.564 258.839C568.751 257.793 562.987 256.987 557.448 254.819C552.216 252.776 547.234 250.667 541.62 249.837C535.861 249.076 530.01 249.413 524.376 250.829C523.595 251.02 523.928 252.216 524.709 252.033L524.711 252.08Z" fill="black"/>
<path d="M553.028 278.644C551.085 282.747 553.31 286.45 555.66 289.897C558.899 294.666 562.503 299.181 566.082 303.691C574.057 313.731 582.094 323.846 586.843 335.895C587.134 336.634 588.338 336.311 588.047 335.563C584.369 326.146 578.729 317.841 572.576 309.877C569.479 305.874 566.29 301.946 563.184 297.952C559.862 293.683 551.378 285.105 554.149 279.275C554.49 278.553 553.418 277.922 553.069 278.644H553.028Z" fill="black"/>
<path d="M586.961 335.53C587.627 353.626 583.553 371.581 575.143 387.617C574.769 388.32 575.847 388.954 576.223 388.248C584.737 372.018 588.868 353.846 588.206 335.53C588.214 335.444 588.204 335.356 588.176 335.274C588.149 335.191 588.104 335.115 588.046 335.051C587.987 334.986 587.916 334.935 587.836 334.9C587.756 334.865 587.67 334.846 587.583 334.846C587.496 334.846 587.41 334.865 587.33 334.9C587.251 334.935 587.179 334.986 587.121 335.051C587.062 335.115 587.018 335.191 586.99 335.274C586.962 335.356 586.952 335.444 586.961 335.53Z" fill="black"/>
<path d="M544.175 317.07C552.613 324.419 562.852 331.552 567.619 341.983C567.951 342.705 569.026 342.074 568.698 341.352C563.874 330.763 553.592 323.589 545.056 316.156C544.45 315.625 543.57 316.505 544.175 317.037V317.07Z" fill="black"/>
<path d="M567.951 342.482C569.828 346.634 567.735 353.428 567.279 357.812C566.724 362.31 566.588 366.85 566.871 371.373C567.428 378.075 569.487 384.42 573.806 389.643C574.321 390.269 575.193 389.377 574.686 388.763C568.939 381.82 567.635 372.818 568.04 364.065C568.231 359.913 568.779 355.719 569.253 351.55C569.635 348.278 570.432 344.948 569.045 341.851C568.713 341.12 567.638 341.752 567.965 342.482H567.951Z" fill="black"/>
<path d="M509.255 264.361C501.081 275.202 496.822 288.492 497.171 302.064C497.57 317.178 504.869 330.054 511.447 343.263C511.804 343.977 512.875 343.346 512.518 342.632C506.057 329.627 498.807 316.946 498.4 302.064C498.074 288.726 502.281 275.672 510.334 265.034C510.815 264.395 509.735 263.771 509.254 264.403L509.255 264.361Z" fill="black"/>
<path d="M553.826 325.348C558.989 335.136 561.964 345.929 562.546 356.98C562.587 357.81 563.833 357.81 563.791 356.98C563.194 345.709 560.159 334.702 554.897 324.717C554.523 324.004 553.452 324.635 553.826 325.348Z" fill="black"/>
<path d="M562.712 356.873C556.899 374.179 546.322 389.495 532.196 401.061C531.571 401.576 532.462 402.448 533.077 401.941C547.365 390.231 558.061 374.728 563.936 357.213C564.193 356.449 562.989 356.125 562.732 356.881L562.712 356.873Z" fill="black"/>
<path d="M517.25 338.362C523.321 345.106 529.283 351.932 533.17 360.211C533.511 360.934 534.59 360.303 534.249 359.581C530.313 351.202 524.284 344.3 518.13 337.482C517.592 336.884 516.712 337.764 517.25 338.362Z" fill="black"/>
<path d="M529.579 334.658C534.686 341.393 540.234 348.858 542.484 357.08C542.537 357.228 542.643 357.351 542.783 357.423C542.922 357.496 543.083 357.514 543.235 357.473C543.387 357.432 543.517 357.336 543.601 357.203C543.685 357.07 543.716 356.911 543.688 356.757C541.404 348.369 535.84 340.828 530.658 333.994C530.176 333.363 529.094 333.994 529.578 334.625L529.579 334.658Z" fill="black"/>
<path d="M542.489 356.956C541.659 365.842 534.392 372.671 531.004 380.64C528.189 387.286 527.283 394.492 529.807 401.401C530.081 402.149 531.286 401.825 531.011 401.069C527.689 392.108 530.605 383.023 535.238 375.117C538.668 369.304 543.094 363.989 543.734 356.989C543.812 356.158 542.561 356.2 542.488 356.989L542.489 356.956Z" fill="black"/>
<path d="M533.205 358.824C529.139 365.841 523.705 373.034 522.617 381.247C521.78 387.84 523.345 394.515 527.026 400.049C527.466 400.713 528.546 400.09 528.106 399.418C526.123 396.459 524.761 393.129 524.102 389.629C523.442 386.129 523.499 382.532 524.269 379.055C525.889 372.029 530.714 365.585 534.235 359.423C534.294 359.283 534.3 359.126 534.252 358.982C534.203 358.838 534.105 358.716 533.974 358.64C533.842 358.563 533.688 358.537 533.539 358.566C533.39 358.595 533.256 358.677 533.164 358.797L533.205 358.824Z" fill="black"/>
<path d="M511.124 342.647C513.15 347.206 515.658 351.517 514.313 356.666C513.325 360.453 510.85 363.616 508.684 366.781C504.68 372.594 503.211 378.449 502.281 385.388C502.182 386.177 503.427 386.17 503.526 385.388C504.199 380.364 504.964 375.357 507.514 370.888C509.573 367.276 512.389 364.137 514.207 360.366C517.479 353.582 515.038 348.399 512.206 342.013C511.879 341.286 510.808 341.919 511.124 342.647Z" fill="black"/>
<path d="M527.319 350.919C527.617 355.141 527.24 358.651 524.827 362.178C522.743 365.175 520.575 368.116 518.457 371.081C514.695 376.338 510.609 384.891 503.65 386.079C502.861 386.212 503.201 387.408 503.982 387.275C510.975 386.087 514.878 378.215 518.623 372.983C521.264 369.287 524.096 365.666 526.579 361.855C528.805 358.425 528.879 354.921 528.597 350.918C528.547 350.087 527.301 350.087 527.351 350.918L527.319 350.919Z" fill="black"/>
<path d="M519.154 259.377C517.102 264.367 516.326 269.79 516.897 275.155C517.469 280.52 519.369 285.658 522.426 290.104C522.875 290.76 523.954 290.104 523.497 289.473C520.535 285.171 518.696 280.197 518.147 275.002C517.599 269.808 518.359 264.559 520.358 259.734C520.657 258.995 519.453 258.671 519.154 259.402V259.377Z" fill="black"/>
<path d="M503.125 237.562C501.663 247.728 502.578 258.096 505.799 267.849C506.048 268.605 507.252 268.28 506.995 267.516C503.827 257.982 502.906 247.844 504.304 237.894C504.421 237.112 503.217 236.773 503.108 237.562H503.125Z" fill="black"/>
<path d="M446.704 102.007C435.079 102.896 427.272 108.801 422.713 112.255C414.456 118.588 408.002 126.975 403.995 136.579C402.782 136.266 399.768 135.665 397.634 137.292C394.585 139.626 395.533 144.857 396.164 148.362C396.795 151.867 397.684 156.75 401.844 159.084C403.927 160.184 406.316 160.564 408.637 160.164C410.13 163.464 411.793 166.685 413.62 169.814C417.479 176.483 422.042 182.72 427.231 188.416C427.99 193.764 428.748 199.115 429.506 204.469C430.798 206.083 432.358 207.463 434.119 208.546C435.78 209.563 441.22 212.557 447.705 210.805C450.178 210.116 452.454 208.856 454.351 207.126L457.806 190.293C461.593 188.263 465.069 185.698 468.126 182.678C473.855 176.931 477.959 169.767 480.018 161.917C481.511 162.739 483.229 163.059 484.918 162.83C491.03 161.759 493.505 151.968 494.119 149.543C495.365 144.627 496.802 140.931 494.759 138.947C492.94 137.178 489.203 137.427 485.441 139.229C485.333 137.726 483.198 113.667 464.957 104.989C457.143 101.303 449.328 101.809 446.704 102.007Z" fill="white"/>
<path opacity="0.24" d="M417.533 116.69C417.192 118.999 416.769 122.37 416.528 126.448C415.889 137.195 414.992 152.466 421.735 166.219C429.483 181.997 444.257 189.547 451.083 192.445C449.813 193.367 448.425 194.305 446.931 195.227C444.853 196.5 442.707 197.659 440.503 198.698L439.98 210.167C437.49 210.193 435.063 209.383 433.089 207.865C431.114 206.347 429.707 204.209 429.093 201.796L427.988 188.633C425.323 186.556 422.869 184.219 420.664 181.658C415.158 175.189 411.27 167.503 409.32 159.235C408.726 159.985 407.913 160.531 406.995 160.799C405.085 161.289 403.366 160.168 402.436 159.561C398.716 157.128 395.278 151.382 395.702 144.879C395.843 142.695 396.142 138.111 399.422 136.435C400.992 135.728 402.769 135.633 404.405 136.17C407.378 128.823 411.862 122.183 417.566 116.681L417.533 116.69Z" fill="#9E9E9E"/>
<path opacity="0.36" d="M407.666 146.777C408.984 150.918 410.61 154.954 412.532 158.852C421.351 176.756 434.531 188.034 443.884 194.486L433.553 196.629L433.436 208.13L430.439 205.39L427.522 189.465C425.029 187.064 422.735 184.465 420.663 181.692C411.129 168.892 408.471 155.272 407.666 146.777Z" fill="#9E9E9E"/>
<path d="M442.486 100.322C443.544 106.226 445.742 111.867 448.956 116.931C460.474 134.976 481.128 138.588 485.438 139.245C488.643 137.161 492.083 136.446 494 137.867C496.375 139.635 495.469 144.004 494.656 147.932C494.025 150.972 493.053 155.648 488.843 159.318C486.774 161.109 484.304 162.377 481.643 163.013L479.027 163.371C477.989 167.343 476.383 171.144 474.257 174.656C470.233 181.218 464.557 186.61 457.798 190.293C456.469 194.446 455.223 200.782 457.366 207.416C462.432 223.152 483.941 232.661 501.931 228.011C516.655 224.199 527.991 211.136 531.072 194.793C534.643 192.542 544.492 185.658 546.277 174.588C548.769 159.067 534.651 140.03 510.086 134.128C510.086 131.72 509.389 105.428 486.833 90.0558C467.201 76.6442 446.05 81.859 442.886 82.6893C436.921 81.2521 430.712 81.1613 424.707 82.4235C403.656 86.9996 387.287 109.281 381.898 138.463C377.264 139.219 367.257 141.512 358.728 149.691C346.795 161.126 340.458 181.455 348.945 197.483C349.834 199.144 357.773 213.61 373.934 215.67C380.284 216.414 386.712 215.258 392.406 212.35C397.546 220.903 405.384 227.041 412.336 226.152C422.003 224.906 432.001 209.592 427.567 189.437C419.665 180.854 413.508 170.817 409.438 159.884C407.652 160.606 405.687 160.762 403.809 160.332C398.492 159.003 396.086 152.634 395.696 148.399C395.239 143.416 397.14 136.574 400.869 135.942C402.813 135.629 404.689 137.105 405.852 138.234L442.486 100.322Z" fill="#FF9452"/>
<path d="M406.487 146.835C406.246 157.424 411.686 169.183 417.283 177.96C422.678 186.373 430.304 193.206 440.07 195.932C440.22 195.951 440.372 195.915 440.498 195.831C440.623 195.747 440.714 195.621 440.754 195.475C440.793 195.329 440.778 195.174 440.712 195.038C440.646 194.902 440.533 194.795 440.394 194.736C430.495 191.954 422.904 184.812 417.648 176.175C412.549 167.771 407.508 156.859 407.733 146.86C407.718 146.705 407.646 146.56 407.531 146.456C407.416 146.351 407.266 146.293 407.11 146.293C406.954 146.293 406.804 146.351 406.689 146.456C406.574 146.56 406.502 146.705 406.487 146.86V146.835Z" fill="black"/>
<path d="M440.313 196.031C450.35 195.255 459.823 191.079 467.167 184.192C474.511 177.306 479.286 168.121 480.706 158.154C480.814 157.324 479.618 157.033 479.502 157.822C478.154 167.524 473.535 176.476 466.41 183.197C459.284 189.918 450.077 194.006 440.313 194.785C439.482 194.855 439.482 196.098 440.313 196.031Z" fill="black"/>
<path d="M426.593 188.582C427.251 193.365 428.027 198.129 428.918 202.874C429.067 203.663 430.271 203.33 430.122 202.55C429.231 197.8 428.453 193.033 427.788 188.249C427.68 187.419 426.484 187.793 426.592 188.582H426.593Z" fill="black"/>
<path d="M457.203 190.099C456.544 194.749 455.672 199.355 454.587 203.918C454.404 204.7 455.604 205.03 455.791 204.25C456.897 199.689 457.768 195.074 458.399 190.423C458.515 189.641 457.311 189.302 457.203 190.099L457.203 190.099Z" fill="black"/>
<path d="M430.073 206.196C436.65 212.125 446.433 214.725 453.425 207.957C454.007 207.392 453.127 206.512 452.545 207.076C446.017 213.396 437.007 210.772 430.953 205.316C430.366 204.785 429.475 205.664 430.073 206.196Z" fill="black"/>
<path d="M408.322 159.624C402.243 162.595 398.124 153.595 396.985 149.152C396.427 147.08 396.2 144.934 396.313 142.791C396.562 139.32 399.344 134.046 403.679 137.119C404.335 137.584 404.959 136.504 404.31 136.039C403.231 135.275 401.907 134.937 400.594 135.09C399.28 135.243 398.07 135.877 397.196 136.869C394.779 139.419 394.829 143.638 395.269 146.835C396.1 152.764 401.082 164.54 408.951 160.703C409.674 160.354 409.043 159.275 408.32 159.623L408.322 159.624Z" fill="black"/>
<path d="M479.577 162.357C486.702 168.743 493.446 153.67 495.007 148.77C496.062 145.532 497.299 140.209 494.417 137.427C491.677 134.778 487.882 136.671 485.34 138.49C484.701 138.955 485.34 140.035 485.971 139.57C486.58 139.099 487.221 138.671 487.89 138.291C488.519 137.922 489.227 137.707 489.955 137.665C490.683 137.622 491.411 137.753 492.079 138.046C492.747 138.34 493.335 138.787 493.797 139.352C494.258 139.918 494.579 140.584 494.733 141.297C495.405 143.739 494.425 146.778 493.611 149.095C492.432 152.483 486.303 166.668 480.457 161.452C479.859 160.92 478.978 161.801 479.577 162.332L479.577 162.357Z" fill="black"/>
<path d="M441.638 129.67C440.195 142.017 440.059 154.482 441.232 166.858C441.289 167.414 442.103 167.788 442.394 167.17L446.547 158.451C446.895 157.737 445.816 157.097 445.475 157.825L441.323 166.536L442.477 166.849C441.304 154.473 441.441 142.009 442.884 129.662C442.984 128.839 441.738 128.839 441.638 129.67Z" fill="black"/>
<path d="M435.163 171.907C444.688 177.363 455.302 172.056 459.557 162.63C459.88 161.908 458.809 161.268 458.477 161.999C454.532 170.761 444.766 175.968 435.797 170.827C435.726 170.783 435.647 170.754 435.565 170.741C435.482 170.728 435.398 170.732 435.317 170.752C435.236 170.772 435.16 170.808 435.093 170.858C435.026 170.908 434.97 170.971 434.928 171.043C434.886 171.115 434.859 171.195 434.848 171.278C434.837 171.361 434.843 171.445 434.865 171.525C434.887 171.606 434.926 171.681 434.977 171.746C435.029 171.812 435.093 171.866 435.166 171.907H435.163Z" fill="black"/>
<path d="M422.233 153.122H422.399C422.554 153.107 422.698 153.035 422.803 152.92C422.907 152.805 422.966 152.655 422.966 152.499C422.966 152.343 422.907 152.193 422.803 152.078C422.698 151.962 422.554 151.891 422.399 151.876H422.233C422.146 151.868 422.059 151.878 421.976 151.906C421.893 151.933 421.818 151.978 421.753 152.036C421.689 152.095 421.637 152.166 421.602 152.246C421.567 152.326 421.549 152.412 421.549 152.499C421.549 152.586 421.567 152.672 421.602 152.752C421.637 152.831 421.689 152.903 421.753 152.961C421.818 153.02 421.893 153.064 421.976 153.092C422.059 153.12 422.146 153.13 422.233 153.122Z" fill="black"/>
<path d="M429.207 149.128V149.294C429.199 149.38 429.209 149.468 429.236 149.55C429.264 149.633 429.308 149.709 429.367 149.773C429.426 149.837 429.497 149.889 429.577 149.924C429.656 149.959 429.743 149.977 429.83 149.977C429.917 149.977 430.003 149.959 430.082 149.924C430.162 149.889 430.233 149.837 430.292 149.773C430.351 149.709 430.395 149.633 430.423 149.55C430.45 149.468 430.46 149.38 430.452 149.294V149.128C430.438 148.973 430.366 148.829 430.251 148.724C430.136 148.619 429.985 148.561 429.83 148.561C429.674 148.561 429.524 148.619 429.408 148.724C429.293 148.829 429.221 148.973 429.207 149.128Z" fill="black"/>
<path d="M429.83 157.349C429.953 157.349 430.074 157.312 430.177 157.243C430.28 157.175 430.36 157.077 430.407 156.963C430.455 156.848 430.467 156.723 430.443 156.601C430.419 156.48 430.359 156.369 430.272 156.281C430.184 156.194 430.073 156.134 429.952 156.11C429.83 156.086 429.705 156.098 429.59 156.146C429.476 156.193 429.378 156.273 429.31 156.376C429.241 156.479 429.204 156.6 429.204 156.723C429.204 156.889 429.27 157.048 429.387 157.166C429.505 157.283 429.664 157.349 429.83 157.349Z" fill="black"/>
<path d="M457.371 148.77C457.494 148.77 457.615 148.733 457.718 148.664C457.821 148.596 457.901 148.498 457.948 148.384C457.996 148.269 458.008 148.144 457.984 148.022C457.96 147.901 457.9 147.789 457.813 147.702C457.725 147.615 457.614 147.555 457.493 147.531C457.371 147.507 457.246 147.519 457.131 147.566C457.017 147.614 456.919 147.694 456.851 147.797C456.782 147.9 456.745 148.021 456.745 148.144C456.745 148.31 456.811 148.469 456.928 148.587C457.046 148.704 457.205 148.77 457.371 148.77Z" fill="black"/>
<path d="M466.662 148.396C466.785 148.396 466.906 148.359 467.009 148.291C467.112 148.222 467.192 148.124 467.239 148.01C467.287 147.896 467.299 147.77 467.275 147.648C467.251 147.527 467.191 147.416 467.104 147.328C467.016 147.241 466.905 147.181 466.784 147.157C466.662 147.133 466.537 147.145 466.422 147.193C466.308 147.24 466.21 147.32 466.142 147.423C466.073 147.526 466.036 147.647 466.036 147.77C466.036 147.936 466.102 148.095 466.219 148.213C466.337 148.33 466.496 148.396 466.662 148.396Z" fill="black"/>
<path d="M463.116 153.968C463.239 153.968 463.36 153.932 463.463 153.863C463.566 153.794 463.646 153.696 463.694 153.582C463.741 153.468 463.753 153.342 463.729 153.221C463.705 153.099 463.645 152.988 463.558 152.9C463.471 152.813 463.359 152.753 463.238 152.729C463.116 152.705 462.991 152.718 462.876 152.765C462.762 152.812 462.664 152.892 462.596 152.995C462.527 153.098 462.49 153.219 462.49 153.343C462.49 153.509 462.556 153.668 462.673 153.785C462.791 153.902 462.95 153.968 463.116 153.968Z" fill="black"/>
<path d="M421.966 139.635C425.088 135.077 431.707 133.465 435.402 138.356C435.875 138.987 436.966 138.356 436.482 137.725C432.213 132.078 424.598 133.573 420.895 139.005C420.438 139.668 421.518 140.291 421.966 139.635Z" fill="black"/>
<path d="M454.264 137.061C455.236 136.193 456.38 135.541 457.622 135.148C458.863 134.754 460.174 134.628 461.468 134.779C462.762 134.929 464.01 135.352 465.128 136.019C466.247 136.686 467.211 137.583 467.958 138.65C468.423 139.29 469.503 138.65 469.029 138.019C468.181 136.794 467.083 135.764 465.806 134.996C464.529 134.229 463.103 133.742 461.623 133.568C460.144 133.394 458.644 133.537 457.224 133.987C455.804 134.438 454.496 135.186 453.387 136.181C452.769 136.696 453.65 137.576 454.264 137.061Z" fill="black"/>
<path d="M423.902 122.893C425.857 118.45 432.414 113.609 435.96 119.413C436.376 120.103 437.455 119.471 437.032 118.788C433.012 112.202 425.226 116.82 422.831 122.268C422.507 122.992 423.578 123.632 423.902 122.893Z" fill="black"/>
<path d="M454.312 119.405C455.334 118.174 456.698 117.272 458.232 116.813C459.765 116.354 461.4 116.358 462.932 116.825C465.805 117.747 467.914 120.595 469.577 122.962C470.034 123.609 471.122 122.962 470.657 122.331C468.546 119.341 466.023 116.144 462.253 115.363C460.642 115.067 458.981 115.204 457.44 115.76C455.899 116.316 454.534 117.271 453.483 118.527C452.951 119.125 453.832 120.006 454.363 119.408L454.312 119.405Z" fill="black"/>
<path d="M444.734 364.845C428.046 357.751 401.179 343.011 383.015 313.742C378.938 307.186 351.516 263.275 369.439 243.767C379.257 233.058 399.992 231.548 415.382 240.065C434.514 250.655 436.821 271.996 436.985 273.856C436.749 272.206 433.914 250.159 450.51 235.635C465.615 222.37 488.836 222.433 500.802 232.57C520.677 249.409 503.129 291.641 498.465 302.937C485.076 335.34 460.612 354.741 444.734 364.845Z" fill="#EC615B" stroke="#331C48" stroke-width="2" stroke-miterlimit="10"/>
<path d="M296.272 121.402C293.845 124.471 290.806 127.001 287.347 128.83C285.035 130.033 282.507 130.764 279.909 130.981C279.25 131.046 278.586 131.056 277.925 131.013C276.392 132.318 274.837 133.562 273.249 134.663C264.864 140.369 255.244 144.002 245.18 145.261C242.787 145.567 240.379 145.753 237.968 145.818C237.265 148.556 236.392 151.248 235.354 153.878C231.488 163.408 225.472 171.916 217.776 178.738C209.104 186.498 197.155 192.305 183.905 194.545C180.309 195.126 176.674 195.44 173.032 195.486C174.829 195.643 176.688 195.756 178.597 195.808C182.239 195.862 185.881 195.713 189.507 195.361C192.493 195.047 195.459 194.566 198.391 193.921C199.669 193.689 200.785 193.346 201.79 193.099C202.794 192.852 203.653 192.601 204.349 192.375L206.541 191.72L204.592 192.927C203.83 193.407 203.041 193.843 202.23 194.234C201.286 194.701 200.22 195.28 198.977 195.757C196.085 196.975 193.084 197.918 190.015 198.572C182.432 200.193 174.574 200.021 167.069 198.07C164.032 197.282 161.075 196.209 158.24 194.863C157.52 194.544 156.816 194.188 156.132 193.796C152.924 193.101 149.771 192.171 146.699 191.014C137.118 187.394 128.34 181.927 120.866 174.924C116.261 170.59 112.176 165.735 108.693 160.457C107.311 161.621 105.86 162.701 104.35 163.692C98.2756 167.733 89.8824 170.958 80.2378 171.983C75.2033 172.514 70.1285 172.545 65.0877 172.077C59.6371 171.666 54.2554 170.604 49.0577 168.912C38.8099 165.343 30.3629 157.91 25.5189 148.199C21.5872 140.396 20.3447 131.512 21.9847 122.93C22.3114 121.23 22.7386 119.551 23.2641 117.901C22.7426 117.605 22.2098 117.283 21.6777 116.958C20.8517 121.403 20.3886 125.908 20.293 130.429C20.2172 137.6 21.8346 144.043 23.9993 148.305C24.8351 150.024 25.8476 151.652 27.0203 153.162C27.8707 154.24 28.3922 154.819 28.3922 154.819C27.7729 154.442 27.1738 154.032 26.5974 153.592C24.9995 152.368 23.5757 150.933 22.3652 149.325C19.1918 145.312 16.3465 138.335 16.4413 130.396C16.5663 125.277 17.5108 120.21 19.2388 115.389C12.911 111.179 7.72516 105.466 4.14473 98.762C1.83054 94.3727 0.444116 89.5543 0.0716591 84.6063C-0.24456 79.2986 0.487894 73.9806 2.22719 68.956C5.75911 58.68 12.059 50.3868 18.6953 44.0089C21.8796 40.9382 25.5316 38.393 29.5147 36.4684C37.4811 32.7587 46.5189 32.0495 54.9664 34.4712C57.8336 29.4737 61.4091 24.9175 65.5819 20.9446C71.8785 14.812 79.5529 10.2773 87.9623 7.72039C96.3718 5.16348 105.272 4.65876 113.916 6.2485C120.907 7.43329 127.626 9.87537 133.746 13.4563C135.213 14.3234 136.551 15.1958 137.781 16.0583C144.803 10.8233 152.572 6.67313 160.828 3.74659C171.702 0.0366566 183.322 -0.937332 194.662 0.910693C206.002 2.75872 216.712 7.37185 225.846 14.3423C233.184 20.0651 239.308 27.1937 243.858 35.311C244.865 37.1232 245.735 38.8732 246.501 40.5566C247.506 40.7082 248.912 40.9454 250.647 41.2698C249.856 39.4644 248.972 37.6242 247.961 35.7794C246.172 32.6439 244.145 29.6507 241.897 26.8261C240.016 24.5133 237.958 22.3491 235.744 20.3527C234.825 19.4432 233.882 18.7679 233.091 18.1069C232.418 17.5337 231.713 17.0002 230.978 16.5092L229.121 15.1761C229.121 15.1761 229.885 15.4641 231.266 15.981C232.116 16.2862 232.942 16.6523 233.739 17.0762C234.826 17.5881 235.88 18.1667 236.895 18.8088C239.584 20.4597 242.071 22.4182 244.307 24.6448C247.038 27.4141 249.396 30.527 251.324 33.9051C252.756 36.5254 253.919 39.2842 254.796 42.1391C260.392 43.358 265.828 45.2204 270.995 47.6894C275.246 49.7353 279.188 52.37 282.704 55.5157C284.667 57.2974 286.468 59.2505 288.085 61.3517C289.772 63.6074 291.252 66.0104 292.508 68.5315C298.096 79.9474 299.117 93.0649 295.364 105.208C292.138 115.163 286.196 124.018 278.207 130.776C278.749 130.685 279.284 130.557 279.809 130.392C282.159 129.71 284.372 128.624 286.35 127.184C289.222 125.06 291.698 122.448 293.663 119.465C296.066 115.827 297.889 111.839 299.07 107.642C301.336 99.9235 301.823 91.792 300.495 83.8582C300.063 81.41 299.473 78.9923 298.729 76.6201C298.147 74.9367 297.824 74.003 297.824 74.003C297.824 74.003 298.363 74.8276 299.28 76.3798C301.988 81.2687 303.69 86.6494 304.288 92.2056C304.886 97.7619 304.368 103.382 302.763 108.735C301.455 113.344 299.249 117.648 296.272 121.402ZM291.684 104.06C295.157 92.8067 294.406 80.673 289.573 69.9337C285.185 59.9799 277.3 53.411 270.094 49.394C265.315 46.7695 260.273 44.6531 255.052 43.0797C255.211 43.636 255.378 44.1939 255.511 44.7373C256.233 47.8087 256.594 50.9539 256.587 54.109C256.6 55.3104 256.539 56.5114 256.404 57.7053C256.346 58.6061 256.224 59.5015 256.037 60.3846C255.751 61.8315 255.594 62.6326 255.594 62.6326L255.435 60.3543C255.404 59.4705 255.321 58.5893 255.186 57.7152C255.034 56.695 254.959 55.5362 254.666 54.2757C254.132 51.3435 253.372 48.457 252.392 45.6423C251.948 44.4121 251.439 43.1449 250.894 41.8633C249.089 41.3736 247.63 41.0023 246.583 40.7491C248.313 44.5431 249.683 48.491 250.676 52.5409C251.163 54.6706 251.509 56.3259 251.661 57.4674C251.841 58.5967 251.938 59.1916 251.938 59.1916L251.497 57.5022C251.242 56.3858 250.754 54.7737 250.097 52.7076C248.157 46.9333 245.506 41.423 242.204 36.3039C237.354 28.773 231.146 22.2095 223.896 16.9481C215.002 10.6471 204.787 6.46087 194.029 4.70863C183.271 2.9564 172.256 3.6845 161.822 6.8374C153.951 9.31959 146.45 12.8496 139.52 17.3323C141.441 18.7719 143.252 20.353 144.937 22.0625C146.154 23.1941 146.93 24.2416 147.531 24.8706C148.104 25.5255 148.405 25.8711 148.405 25.8711C148.405 25.8711 148.064 25.5679 147.41 24.9866C146.738 24.4326 145.86 23.4943 144.535 22.509C142.56 20.8979 140.472 19.4313 138.286 18.1206C138.088 18.2494 137.876 18.3806 137.679 18.5071C132.587 21.889 127.707 25.5804 123.067 29.5607C121.416 30.9689 120.144 32.0815 119.298 32.85C118.452 33.6186 117.991 34.0119 117.991 34.0119L119.182 32.7326C119.955 31.8867 121.125 30.6672 122.658 29.1188C126.958 24.771 131.562 20.7343 136.434 17.039C135.311 16.41 134.113 15.7786 132.833 15.1579C126.72 12.2133 120.165 10.2897 113.43 9.46359C105.268 8.34727 96.9608 9.01023 89.0789 11.407C81.1969 13.8037 73.9269 17.8775 67.7678 23.3487C63.7512 26.8349 60.189 30.8123 57.1652 35.1875C58.4092 35.6299 59.6242 36.1499 60.8032 36.7442C61.6945 37.2104 62.1622 37.4529 62.1622 37.4529L60.7365 36.8966C59.4628 36.411 58.1605 36.0037 56.837 35.6771C56.1094 36.7617 55.4265 37.8349 54.8164 38.8846C52.4548 42.8577 50.5664 47.0935 49.1896 51.5055C48.6378 53.0623 48.4316 54.3288 48.1808 55.164L47.8458 56.4525L48.0178 55.136C48.1694 54.2795 48.2262 52.9759 48.606 51.3593C49.5195 46.7197 51.0369 42.2198 53.1194 37.9744C53.5529 37.0648 54.0448 36.1281 54.5647 35.1829C50.0224 34.3384 45.362 34.3531 40.8251 35.2261C37.286 35.9031 33.8706 37.115 30.6963 38.8202C27.091 40.821 23.8083 43.3544 20.9592 46.335C14.9019 52.6303 9.10761 60.7204 5.87658 70.1808C4.29027 74.7423 3.56877 79.5596 3.7491 84.3857C3.99183 88.872 5.11466 93.2667 7.05364 97.3197C10.087 103.575 14.5043 109.059 19.9709 113.354C20.2544 112.605 20.5378 111.883 20.8107 111.22C22.7343 106.619 24.2213 103.916 24.2213 103.916C24.2213 103.916 23.615 106.935 22.6471 111.781C22.4561 112.76 22.2454 113.827 22.0355 114.944C22.6474 115.39 23.2522 115.816 23.85 116.221C25.0148 113.005 26.5972 109.956 28.5566 107.152C29.4318 105.878 30.3941 104.665 31.4367 103.523L32.5274 102.34L31.5656 103.629C30.6509 104.855 29.8167 106.14 29.0682 107.474C27.3446 110.483 26.0161 113.702 25.1157 117.051C28.5235 119.238 32.0965 121.156 35.8024 122.787C39.2805 124.327 41.2708 125.042 41.2708 125.042C41.2708 125.042 39.2161 124.561 35.5864 123.348C31.831 122.102 28.1868 120.543 24.692 118.687C24.343 120.183 24.0728 121.697 23.8825 123.222C22.8735 131.324 24.4517 139.538 28.3914 146.689C33.1409 155.387 40.9531 162.01 50.3113 165.272C55.2277 166.866 60.3036 167.918 65.4485 168.409C70.2581 168.955 75.1071 169.068 79.937 168.746C88.141 168.281 96.1382 165.993 103.347 162.048C104.904 161.169 106.408 160.201 107.854 159.148C106.601 157.111 105.67 155.51 105.105 154.381L104.201 152.681L105.249 154.297C105.899 155.364 106.949 156.874 108.332 158.787C108.815 158.426 109.289 158.066 109.738 157.703C107.839 155.161 106.132 152.481 104.631 149.685C103.506 147.622 102.518 145.487 101.675 143.294L106.222 148.593C107.895 150.53 110.001 152.881 112.346 155.43C114.817 153.135 116.972 150.523 118.757 147.662C119.304 146.76 119.591 146.287 119.591 146.287C119.591 146.287 119.353 146.788 118.899 147.741C118.207 149.123 117.434 150.463 116.585 151.754C115.521 153.325 114.348 154.819 113.076 156.226C114.446 157.708 115.87 159.232 117.381 160.821C121.821 165.469 125.959 169.598 129.065 172.548C132.193 175.498 134.144 177.34 134.144 177.34C131.992 176.394 129.906 175.305 127.9 174.081C123.013 171.154 118.537 167.588 114.592 163.479C113.113 161.924 111.782 160.344 110.568 158.785C110.145 159.184 109.692 159.584 109.231 159.983C113.036 164.937 117.367 169.465 122.148 173.486C129.734 179.842 138.426 184.746 147.788 187.954C159.211 191.777 171.397 192.738 183.277 190.753C195.842 188.624 207.206 183.37 215.671 176.277C223.262 169.955 229.379 162.05 233.592 153.114C234.68 150.75 235.636 148.328 236.456 145.859C232.645 145.885 228.837 145.618 225.066 145.063C222.717 144.717 220.916 144.356 219.702 144.068L217.854 143.643L219.733 143.905C220.96 144.09 222.784 144.3 225.131 144.464C229.058 144.739 233 144.723 236.925 144.415C237.998 140.981 238.767 137.46 239.222 133.892C239.49 131.521 239.652 129.669 239.655 128.406C239.707 127.143 239.731 126.48 239.731 126.48C239.731 126.48 239.762 127.143 239.819 128.406C239.917 130.252 239.917 132.102 239.819 133.948C239.637 137.432 239.142 140.892 238.342 144.288C240.407 144.086 242.586 143.795 244.877 143.363C254.443 141.618 263.493 137.744 271.358 132.028C280.034 125.578 287.987 115.952 291.686 104.06H291.684Z" fill="#877697" fill-opacity="0.3"/>
<path d="M125.278 4.20518C120.581 6.14218 116.101 8.56746 111.911 11.4411C106.975 14.741 102.625 18.0903 99.4052 20.5058C96.1856 22.9213 94.1172 24.3902 94.1172 24.3902C94.1172 24.3902 95.4958 22.268 98.0743 19.1173C101.426 14.9385 105.37 11.2725 109.783 8.23581C114.286 5.17985 119.415 3.16717 124.795 2.34448C126.409 2.11087 128.041 2.02033 129.671 2.0739C130.82 2.1171 131.444 2.19592 131.444 2.19592C131.444 2.19592 130.838 2.36343 129.746 2.66811C128.653 2.9728 127.114 3.48136 125.278 4.20518Z" fill="#877697" fill-opacity="0.3"/>
<path d="M313.738 107.351C313.983 107.214 314.247 107.063 314.524 106.908C316.184 105.405 318.055 104.154 320.079 103.195C323.507 101.584 327.278 100.84 331.061 101.029C333.539 101.14 335.981 101.656 338.293 102.555C339.127 102.872 339.938 103.248 340.718 103.682C339.867 103.454 339.005 103.271 338.135 103.135C335.815 102.755 333.454 102.694 331.118 102.954C329.318 103.159 327.547 103.562 325.836 104.156C326.845 104.295 327.831 104.563 328.772 104.953C331.18 105.962 333.27 107.606 334.817 109.709C336.571 112.05 337.606 114.852 337.795 117.771C337.989 120.871 337.369 123.968 335.996 126.755C334.702 129.425 332.795 131.752 330.43 133.544C328.065 135.337 325.31 136.545 322.389 137.069C321.62 137.196 320.843 137.269 320.064 137.288C320.723 137.64 321.407 137.942 322.11 138.192C322.72 138.412 323.345 138.585 323.98 138.712L324.654 138.847L323.966 138.878C323.301 138.901 322.635 138.868 321.975 138.779C320.128 138.535 318.342 137.952 316.706 137.059C316.051 136.944 315.405 136.785 314.772 136.583C312.663 135.888 310.746 134.709 309.175 133.141C306.921 130.979 305.473 128.112 305.071 125.015C304.978 124.201 304.976 123.381 305.067 122.567C305.143 122.02 305.18 121.733 305.18 121.733L305.232 122.573C305.295 123.362 305.438 124.143 305.659 124.903C306.491 127.618 308.166 129.998 310.441 131.696C310.639 131.856 310.86 131.995 311.073 132.143C309.904 130.529 309.037 128.717 308.515 126.794C307.252 122.118 307.769 117.139 309.967 112.822C310.826 111.14 311.915 109.587 313.205 108.208L310.978 109.092C310.978 109.092 311.93 108.429 313.738 107.351ZM311.677 126.046C312.224 129.082 313.669 131.883 315.825 134.089C317.784 134.458 319.8 134.39 321.73 133.89C324.062 133.293 326.236 132.196 328.101 130.674C329.966 129.152 331.477 127.242 332.529 125.077C334.803 120.484 334.595 115.209 332.15 111.566C331.127 109.878 329.686 108.482 327.968 107.511C326.249 106.541 324.31 106.028 322.336 106.022C322.07 106.022 321.831 106.069 321.574 106.085C318.102 108.086 315.267 111.029 313.397 114.573C311.599 118.111 310.996 122.136 311.677 126.046H311.677Z" fill="#877697" fill-opacity="0.3"/>
<path d="M369.22 122.865C370.679 124.395 371.718 126.278 372.234 128.328C372.812 130.689 372.472 133.182 371.281 135.301C370.105 137.322 368.331 138.928 366.203 139.896C364.398 140.749 362.434 141.213 360.438 141.26C360.85 141.464 361.275 141.642 361.709 141.794C363.121 142.334 364.621 142.608 366.132 142.602C366.559 142.61 366.986 142.588 367.41 142.535L367.865 142.494L367.457 142.694C367.064 142.896 366.654 143.064 366.233 143.197C364.638 143.724 362.944 143.886 361.278 143.671C358.698 143.369 356.262 142.325 354.265 140.665C353.855 140.334 353.469 139.973 353.112 139.585C352.301 139.206 351.55 138.806 350.867 138.411C349.061 137.312 347.347 136.07 345.739 134.697L344 133.194L346.065 134.192C347.246 134.755 348.908 135.573 350.94 136.371C350.296 135.033 349.905 133.586 349.787 132.105C349.52 128.829 350.414 125.564 352.311 122.881C353.452 121.29 354.918 119.959 356.612 118.978C355.648 118.692 354.793 118.471 354.1 118.282L351.882 117.694C351.882 117.694 352.702 117.689 354.182 117.686C355.687 117.697 357.191 117.796 358.685 117.982C360.089 117.433 361.57 117.108 363.075 117.02C363.667 116.985 364.261 116.996 364.851 117.053C364.851 117.053 364.237 117.213 363.2 117.609C362.552 117.863 361.919 118.156 361.306 118.485C362.516 118.761 363.695 119.161 364.822 119.679C366.481 120.446 367.974 121.528 369.22 122.865ZM355.07 124.6C353.926 126.81 353.425 129.296 353.623 131.776C353.793 134.022 354.68 136.155 356.153 137.859C357.442 138.089 358.756 138.145 360.06 138.027C363.036 137.681 366.405 136.118 367.923 133.415C369.497 130.754 368.605 127.37 366.744 124.968C364.968 122.76 362.617 121.084 359.949 120.127C359.683 120.022 359.436 119.938 359.176 119.841C357.47 121.102 356.068 122.728 355.07 124.6Z" fill="#877697" fill-opacity="0.3"/>
</svg>
