<svg width="38" height="38" viewBox="0 0 38 38" fill="none" xmlns="http://www.w3.org/2000/svg">
<g clip-path="url(#clip0_1_3969)">
<path d="M19 37.4062C2.55312 37.4062 0.571185 23.1562 0.593748 19.5938V18.4062C0.571185 14.8438 2.55312 0.59375 19 0.59375C35.4469 0.59375 37.4288 14.8438 37.4062 18.4062V19.5938C37.4288 23.1562 35.4469 37.4062 19 37.4062Z" fill="url(#paint0_linear_1_3969)"/>
<path d="M27.3125 14.25C27.3125 12.6107 26.5151 11.2812 25.5312 11.2812C24.5474 11.2812 23.75 12.6107 23.75 14.25C23.75 14.3515 23.7619 14.4477 23.7678 14.5469C23.7619 14.646 23.75 14.7422 23.75 14.8438C23.75 16.4831 24.5474 17.8125 25.5312 17.8125C26.5151 17.8125 27.3125 16.4831 27.3125 14.8438C27.3125 14.7422 27.3006 14.646 27.2947 14.5469C27.3006 14.4477 27.3125 14.3515 27.3125 14.25Z" fill="#EDA406"/>
<path d="M14.25 14.25C14.25 12.6107 13.4526 11.2812 12.4687 11.2812C11.4849 11.2812 10.6875 12.6107 10.6875 14.25C10.6875 14.3515 10.6994 14.4477 10.7053 14.5469C10.6994 14.646 10.6875 14.7422 10.6875 14.8438C10.6875 16.4831 11.4849 17.8125 12.4687 17.8125C13.4526 17.8125 14.25 16.4831 14.25 14.8438C14.25 14.7422 14.2381 14.646 14.2322 14.5469C14.2381 14.4477 14.25 14.3515 14.25 14.25Z" fill="#EDA406"/>
<path d="M27.3125 14.8438C27.3125 13.2044 26.5151 11.875 25.5312 11.875C24.5474 11.875 23.75 13.2044 23.75 14.8438C23.75 14.9453 23.7619 15.0415 23.7678 15.1406C23.7619 15.2398 23.75 15.336 23.75 15.4375C23.75 17.0768 24.5474 18.4062 25.5312 18.4062C26.5151 18.4062 27.3125 17.0768 27.3125 15.4375C27.3125 15.336 27.3006 15.2398 27.2947 15.1406C27.3006 15.0415 27.3125 14.9453 27.3125 14.8438Z" fill="#FFD000"/>
<path d="M14.25 14.8438C14.25 13.2044 13.4526 11.875 12.4687 11.875C11.4849 11.875 10.6875 13.2044 10.6875 14.8438C10.6875 14.9453 10.6994 15.0415 10.7053 15.1406C10.6994 15.2398 10.6875 15.336 10.6875 15.4375C10.6875 17.0768 11.4849 18.4062 12.4687 18.4062C13.4526 18.4062 14.25 17.0768 14.25 15.4375C14.25 15.336 14.2381 15.2398 14.2322 15.1406C14.2381 15.0415 14.25 14.9453 14.25 14.8438Z" fill="#FFD000"/>
<path d="M25.5312 17.8125C26.515 17.8125 27.3125 16.4833 27.3125 14.8438C27.3125 13.2042 26.515 11.875 25.5312 11.875C24.5475 11.875 23.75 13.2042 23.75 14.8438C23.75 16.4833 24.5475 17.8125 25.5312 17.8125Z" fill="url(#paint1_linear_1_3969)"/>
<path d="M12.4687 17.8125C13.4525 17.8125 14.25 16.4833 14.25 14.8438C14.25 13.2042 13.4525 11.875 12.4687 11.875C11.485 11.875 10.6875 13.2042 10.6875 14.8438C10.6875 16.4833 11.485 17.8125 12.4687 17.8125Z" fill="url(#paint2_linear_1_3969)"/>
<path d="M25.5312 13.6562C26.3928 13.6562 27.1112 14.0826 27.2769 15.4375C27.3006 15.2405 27.3125 15.0422 27.3125 14.8438C27.3125 13.2044 26.5151 11.875 25.5312 11.875C24.5474 11.875 23.75 13.2044 23.75 14.8438C23.75 15.0422 23.7619 15.2405 23.7856 15.4375C23.9513 14.0826 24.6697 13.6562 25.5312 13.6562Z" fill="black"/>
<path d="M12.4687 13.6562C13.3303 13.6562 14.0487 14.0826 14.2144 15.4375C14.2381 15.2405 14.25 15.0422 14.25 14.8438C14.25 13.2044 13.4526 11.875 12.4687 11.875C11.4849 11.875 10.6875 13.2044 10.6875 14.8438C10.6875 15.0422 10.6994 15.2405 10.7231 15.4375C10.8888 14.0826 11.6072 13.6562 12.4687 13.6562Z" fill="black"/>
<path d="M19 27.3125C14.25 27.3125 11.2812 23.75 11.2812 23.75C11.5283 24.6407 11.9501 25.4733 12.5222 26.1993C13.0943 26.9253 13.8051 27.5302 14.6134 27.9787C15.9597 28.7104 17.4677 29.0938 19 29.0938C20.5323 29.0938 22.0403 28.7104 23.3866 27.9787C24.1948 27.5302 24.9057 26.9253 25.4778 26.1993C26.0499 25.4733 26.4717 24.6407 26.7187 23.75C26.7187 23.75 23.75 27.3125 19 27.3125Z" fill="#F9BF06"/>
<path d="M19 26.7188C16.1506 26.7066 13.4044 25.6504 11.2812 23.75C11.2812 23.75 11.8869 25.9006 14.6134 27.3849C15.9597 28.1167 17.4677 28.5 19 28.5C20.5323 28.5 22.0403 28.1167 23.3866 27.3849C26.1131 25.9006 26.7187 23.75 26.7187 23.75C24.5956 25.6504 21.8494 26.7066 19 26.7188Z" fill="#ED8D06"/>
<path d="M26.7187 23.75C26.7187 23.75 26.1131 25.9006 23.3866 27.3855C22.0402 28.117 20.5323 28.5001 19 28.5001C17.4677 28.5001 15.9598 28.117 14.6134 27.3855C11.8869 25.9006 11.2812 23.75 11.2812 23.75C11.2812 23.75 14.25 27.3125 19 27.3125C23.75 27.3125 26.7187 23.75 26.7187 23.75Z" fill="url(#paint3_linear_1_3969)"/>
</g>
<defs>
<linearGradient id="paint0_linear_1_3969" x1="19" y1="0.77425" x2="19" y2="37.5867" gradientUnits="userSpaceOnUse">
<stop stop-color="#FFE100"/>
<stop offset="1" stop-color="#F98900"/>
</linearGradient>
<linearGradient id="paint1_linear_1_3969" x1="25.5312" y1="17.6492" x2="25.5312" y2="11.9896" gradientUnits="userSpaceOnUse">
<stop offset="0.005" stop-color="#414D4D"/>
<stop offset="0.206" stop-color="#3A4545"/>
<stop offset="0.522" stop-color="#272E2E"/>
<stop offset="0.914" stop-color="#080909"/>
<stop offset="1"/>
</linearGradient>
<linearGradient id="paint2_linear_1_3969" x1="12.4687" y1="17.727" x2="12.4687" y2="12.3945" gradientUnits="userSpaceOnUse">
<stop offset="0.005" stop-color="#414D4D"/>
<stop offset="0.206" stop-color="#3A4545"/>
<stop offset="0.522" stop-color="#272E2E"/>
<stop offset="0.914" stop-color="#080909"/>
<stop offset="1"/>
</linearGradient>
<linearGradient id="paint3_linear_1_3969" x1="19" y1="28.6704" x2="19" y2="23.9477" gradientUnits="userSpaceOnUse">
<stop stop-color="#803F02"/>
<stop offset="0.174" stop-color="#6D3602"/>
<stop offset="0.515" stop-color="#4D2601"/>
<stop offset="0.802" stop-color="#3A1C01"/>
<stop offset="1" stop-color="#331901"/>
</linearGradient>
<clipPath id="clip0_1_3969">
<rect width="38" height="38" fill="white"/>
</clipPath>
</defs>
</svg>
