<svg width="120" height="112" viewBox="0 0 120 112" fill="none" xmlns="http://www.w3.org/2000/svg">
<path d="M117.785 94.4253H114.345L112.359 92.2554H104.764V95.5075H101.509V98.7627H98.2534V109.616C98.2551 110.191 98.4842 110.742 98.8908 111.149C99.2974 111.555 99.8483 111.784 100.423 111.786H117.785C118.36 111.784 118.911 111.555 119.317 111.149C119.724 110.742 119.953 110.191 119.955 109.616V96.5952C119.953 96.0202 119.724 95.4692 119.317 95.0627C118.911 94.6561 118.36 94.4269 117.785 94.4253ZM109.107 108.531C108.034 108.531 106.985 108.214 106.092 107.618C105.2 107.022 104.504 106.175 104.093 105.183C103.682 104.192 103.574 103.101 103.783 102.049C103.992 100.996 104.509 100.029 105.268 99.2704C106.026 98.5114 106.993 97.9945 108.045 97.785C109.098 97.5754 110.189 97.6827 111.18 98.0933C112.172 98.5038 113.019 99.1992 113.615 100.091C114.211 100.984 114.53 102.033 114.53 103.106C114.529 104.544 113.958 105.923 112.941 106.94C111.924 107.958 110.545 108.53 109.107 108.531Z" fill="#774A9F"/>
<path d="M98.2553 97.6804H100.425V94.426H103.68V92.2553H100.425V89H98.2553V92.2553H95V94.426H98.2553V97.6804Z" fill="#774A9F"/>
<path d="M109.104 99.6335C108.648 99.633 108.196 99.7225 107.775 99.8968C107.353 100.071 106.97 100.327 106.648 100.649C106.325 100.972 106.07 101.355 105.895 101.776C105.721 102.198 105.632 102.649 105.632 103.106C105.632 103.792 105.836 104.464 106.217 105.035C106.599 105.605 107.141 106.05 107.775 106.313C108.41 106.576 109.108 106.645 109.781 106.511C110.455 106.377 111.074 106.046 111.559 105.561C112.045 105.075 112.375 104.456 112.509 103.783C112.643 103.109 112.575 102.411 112.312 101.777C112.049 101.142 111.604 100.6 111.033 100.219C110.462 99.8372 109.791 99.6335 109.104 99.6335Z" fill="#774A9F"/>
<path d="M60.0006 1.31912e-06C48.6374 -0.00012616 37.5078 3.22654 27.9068 9.30455C18.3057 15.3826 10.6281 24.062 5.76711 34.333C0.906147 44.604 -0.938248 56.0441 0.448539 67.3224C1.83532 78.6006 6.39627 89.2532 13.6007 98.0406C14.9119 87.5422 25.3975 78.663 40.1014 74.4582C45.3775 79.5536 52.4068 82.4315 59.7414 82.4991C67.0759 82.5666 74.1571 79.8187 79.5261 74.8214C94.3565 79.3942 104.617 88.7918 104.955 99.7158C112.606 91.0615 117.595 80.3823 119.323 68.9611C121.052 57.5399 119.446 45.8626 114.698 35.3321C109.951 24.8015 102.264 15.8657 92.561 9.59802C82.858 3.33039 71.5518 -0.00242067 60.0006 1.31912e-06ZM60.0006 75.3942C56.2639 75.3797 52.596 74.3885 49.3606 72.519C41.6374 68.1246 36.3206 59.1319 36.3206 48.7495C36.3206 34.0575 46.9454 22.104 60.0054 22.104C73.0653 22.104 83.6901 34.0575 83.6901 48.7495C83.6901 59.2919 78.2061 68.3951 70.291 72.7134C67.1413 74.4593 63.6017 75.3814 60.0006 75.3942Z" fill="#331C48"/>
</svg>
