<svg width="48" height="48" viewBox="0 0 48 48" fill="none" xmlns="http://www.w3.org/2000/svg">
<g clip-path="url(#clip0_1_7234)">
<path d="M24.0002 47.25C3.22524 47.25 0.721738 29.25 0.750238 24.75V23.25C0.721738 18.75 3.22524 0.75 24.0002 0.75C44.7752 0.75 47.2787 18.75 47.2502 23.25V24.75C47.2787 29.25 44.7752 47.25 24.0002 47.25Z" fill="url(#paint0_linear_1_7234)"/>
<path d="M36.6048 27.7756C36.7214 27.7497 36.8426 27.7524 36.9579 27.7836C37.0732 27.8147 37.1793 27.8734 37.267 27.9545C37.3547 28.0355 37.4215 28.1367 37.4616 28.2492C37.5017 28.3617 37.5139 28.4823 37.4973 28.6006C37.4431 29.2237 37.3352 29.841 37.1748 30.4456C33.1524 32.6916 28.6066 33.8318 24.0003 33.7501C19.3938 33.8311 14.848 32.6901 10.8258 30.4433C10.6655 29.8387 10.5576 29.2214 10.5033 28.5983C10.4867 28.48 10.4989 28.3595 10.539 28.2469C10.5791 28.1344 10.6459 28.0333 10.7336 27.9522C10.8213 27.8711 10.9274 27.8125 11.0427 27.7813C11.158 27.7502 11.2792 27.7474 11.3958 27.7733C15.4994 28.9242 19.7384 29.5218 24.0003 29.5501C28.2621 29.5225 32.5011 28.9257 36.6048 27.7756Z" fill="url(#paint1_linear_1_7234)"/>
<path d="M37.5 27.7499H37.494C37.4963 27.6394 37.4734 27.5297 37.427 27.4293C37.3806 27.3289 37.3119 27.2404 37.2261 27.1706C37.1403 27.1007 37.0398 27.0513 36.9321 27.0262C36.8244 27.0011 36.7123 27.0008 36.6045 27.0254C32.5008 28.1756 28.2618 28.7724 24 28.7999C19.7381 28.7717 15.4991 28.1741 11.3955 27.0232C11.2875 26.9985 11.1753 26.9988 11.0674 27.0241C10.9595 27.0493 10.8588 27.0989 10.773 27.169C10.6872 27.2391 10.6185 27.3279 10.5723 27.4286C10.526 27.5293 10.5033 27.6392 10.506 27.7499H10.5V28.4999H10.506C10.5037 28.5332 10.5037 28.5665 10.506 28.5997C10.5602 29.2228 10.6681 29.8401 10.8285 30.4447C10.9261 30.8418 11.0489 31.2324 11.196 31.6139C11.9827 33.6095 13.3031 35.3503 15.0128 36.6457C17.5688 38.6776 20.7377 39.7837 24.003 39.7837C27.2683 39.7837 30.4372 38.6776 32.9933 36.6457C34.7029 35.3503 36.0233 33.6095 36.81 31.6139C36.9571 31.2324 37.0799 30.8418 37.1775 30.4447C37.3379 29.8401 37.4458 29.2228 37.5 28.5997C37.5023 28.5665 37.5023 28.5332 37.5 28.4999V27.7499Z" fill="#ED8D06"/>
<path d="M37.494 28.4999C37.4963 28.3894 37.4734 28.2797 37.427 28.1793C37.3806 28.0789 37.3119 27.9904 37.2261 27.9206C37.1403 27.8507 37.0398 27.8013 36.9321 27.7762C36.8244 27.7511 36.7123 27.7508 36.6045 27.7754C32.5008 28.9256 28.2618 29.5224 24 29.5499C19.7381 29.5217 15.4991 28.9241 11.3955 27.7732C11.2875 27.7485 11.1753 27.7488 11.0674 27.7741C10.9595 27.7993 10.8588 27.8489 10.773 27.919C10.6872 27.9891 10.6185 28.0779 10.5723 28.1786C10.526 28.2793 10.5033 28.3892 10.506 28.4999H10.5V29.2499H10.506C10.5037 29.2832 10.5037 29.3165 10.506 29.3497C10.5602 29.9728 10.6681 30.5901 10.8285 31.1947C10.9261 31.5918 11.0489 31.9824 11.196 32.3639C11.9827 34.3595 13.3031 36.1003 15.0128 37.3957C17.5688 39.4276 20.7377 40.5337 24.003 40.5337C27.2683 40.5337 30.4372 39.4276 32.9933 37.3957C34.7029 36.1003 36.0233 34.3595 36.81 32.3639C36.9571 31.9824 37.0799 31.5918 37.1775 31.1947C37.3379 30.5901 37.4458 29.9728 37.5 29.3497C37.5023 29.3165 37.5023 29.2832 37.5 29.2499V28.4999H37.494Z" fill="#F9BF06"/>
<path d="M29.1885 38.82C25.8407 40.06 22.1594 40.06 18.8115 38.82C19.0583 38.1675 20.175 36 24 36C27.825 36 28.9418 38.1675 29.1885 38.82Z" fill="#8F030E"/>
<path d="M36.8076 31.614C36.021 33.6096 34.7006 35.3503 32.9909 36.6457C31.8429 37.5617 30.5606 38.2953 29.1891 38.8207C28.9424 38.1675 27.8257 36 24.0007 36C20.1757 36 19.0589 38.1667 18.8122 38.8192C17.4407 38.2938 16.1585 37.5602 15.0104 36.6442C13.3007 35.3488 11.9803 33.6081 11.1937 31.6125C11.0464 31.231 10.9237 30.8404 10.8262 30.4432C14.8484 32.6901 19.3941 33.831 24.0007 33.75C28.6072 33.831 33.1529 32.6901 37.1751 30.4432C37.0777 30.8409 36.955 31.232 36.8076 31.614Z" fill="url(#paint2_linear_1_7234)"/>
<path d="M36.6048 27.7756C36.7214 27.7497 36.8426 27.7524 36.9579 27.7836C37.0732 27.8147 37.1793 27.8734 37.267 27.9545C37.3547 28.0355 37.4215 28.1367 37.4616 28.2492C37.5017 28.3617 37.5139 28.4823 37.4973 28.6006C37.4431 29.2237 37.3352 29.841 37.1748 30.4456C33.1524 32.6916 28.6066 33.8318 24.0003 33.7501C19.3938 33.8311 14.848 32.6901 10.8258 30.4433C10.6655 29.8387 10.5576 29.2214 10.5033 28.5983C10.4867 28.48 10.4989 28.3595 10.539 28.2469C10.5791 28.1344 10.6459 28.0333 10.7336 27.9522C10.8213 27.8711 10.9274 27.8125 11.0427 27.7813C11.158 27.7502 11.2792 27.7474 11.3958 27.7733C15.4994 28.9242 19.7384 29.5218 24.0003 29.5501C28.2621 29.5225 32.5011 28.9257 36.6048 27.7756Z" fill="url(#paint3_linear_1_7234)"/>
<path d="M36.6048 27.7756C36.7214 27.7497 36.8426 27.7524 36.9579 27.7836C37.0732 27.8147 37.1793 27.8734 37.267 27.9545C37.3547 28.0355 37.4215 28.1367 37.4616 28.2492C37.5017 28.3617 37.5139 28.4823 37.4973 28.6006C37.4431 29.2237 37.3352 29.841 37.1748 30.4456C33.1524 32.6916 28.6066 33.8318 24.0003 33.7501C19.3938 33.8311 14.848 32.6901 10.8258 30.4433C10.6655 29.8387 10.5576 29.2214 10.5033 28.5983C10.4867 28.48 10.4989 28.3595 10.539 28.2469C10.5791 28.1344 10.6459 28.0333 10.7336 27.9522C10.8213 27.8711 10.9274 27.8125 11.0427 27.7813C11.158 27.7502 11.2792 27.7474 11.3958 27.7733C15.4994 28.9242 19.7384 29.5218 24.0003 29.5501C28.2621 29.5225 32.5011 28.9257 36.6048 27.7756Z" fill="url(#paint4_linear_1_7234)"/>
<path d="M43.8508 9.63676C40.1833 8.67826 38.2505 10.5 38.2505 10.5C38.2505 10.5 37.25 7.91176 33.5825 6.95326C33.0104 6.75919 32.4038 6.68784 31.8022 6.74388C31.2007 6.79992 30.6177 6.98208 30.0912 7.27849C29.5647 7.57491 29.1067 7.97892 28.7468 8.46421C28.3869 8.9495 28.1333 9.50517 28.0025 10.095C27.7044 11.1639 27.6707 12.2892 27.9043 13.374C29.0339 17.6927 31.3136 21.6242 34.5005 24.75C38.7314 23.5823 42.5399 21.2287 45.4768 17.967C46.2326 17.1465 46.7798 16.1561 47.072 15.0795C47.465 13.65 47.5183 10.5953 43.8508 9.63676Z" fill="#EC3A4A"/>
<path d="M43.8508 9.63671C40.1833 8.67821 38.2505 10.5 38.2505 10.5C38.2505 10.5 37.25 7.91171 33.5825 6.95321C33.0103 6.75914 32.4037 6.68782 31.8021 6.74391C31.2005 6.79999 30.6174 6.98222 30.091 7.27871C29.5645 7.5752 29.1064 7.9793 28.7466 8.46467C28.3867 8.95005 28.1332 9.5058 28.0025 10.0957C27.7044 11.1643 27.6707 12.2894 27.9043 13.374C29.0339 17.6927 31.3136 21.6242 34.5005 24.75C38.7314 23.5822 42.5399 21.2286 45.4768 17.967C46.2326 17.1465 46.7798 16.1561 47.072 15.0795C47.465 13.65 47.5183 10.5952 43.8508 9.63671Z" fill="url(#paint5_linear_1_7234)"/>
<path d="M32.9807 8.29204C36.7982 9.29104 37.8647 11.8965 37.8647 11.8965C37.8647 11.8965 39.853 10.0898 43.6705 11.0888C46.0982 11.724 46.9705 13.1925 47.1842 14.5455C47.4295 12.9945 47.1092 10.4888 43.8505 9.63679C40.183 8.67829 38.2502 10.5 38.2502 10.5C38.2502 10.5 37.2497 7.91179 33.5822 6.95329C30.3602 6.11104 28.8002 8.06929 28.2002 9.52504C29.0822 8.48029 30.5844 7.66504 32.9807 8.29204Z" fill="url(#paint6_linear_1_7234)"/>
<path d="M42.2006 15.081C42.1748 15.2645 42.1904 15.4513 42.2462 15.6279C42.302 15.8046 42.3966 15.9665 42.5231 16.1018C42.6496 16.2371 42.8048 16.3425 42.9772 16.4101C43.1497 16.4777 43.3351 16.5058 43.5198 16.4925C43.7938 16.4628 44.063 16.3986 44.3208 16.3013C44.7349 16.1559 45.0943 15.8866 45.35 15.53C45.6058 15.1733 45.7455 14.7466 45.7503 14.3078C45.7084 13.8517 45.5221 13.4208 45.2186 13.0778C44.6778 12.432 42.7691 11.4225 42.1173 12.42C41.8173 12.8813 42.2043 13.7048 42.2313 14.214C42.2458 14.5034 42.2356 14.7934 42.2006 15.081Z" fill="url(#paint7_linear_1_7234)"/>
<path d="M35.3307 12.5543C35.2924 13.0913 35.5557 13.5533 35.8557 13.4948C35.9699 13.4734 36.0789 13.4301 36.1767 13.3673C36.3724 13.2084 36.5268 13.0046 36.6267 12.7732C36.7266 12.5418 36.769 12.2896 36.7504 12.0383C36.7389 11.753 36.6665 11.4735 36.5382 11.2185C36.3214 10.788 35.5579 10.1153 35.2977 10.7798C35.247 11.1796 35.2625 11.585 35.3434 11.9798C35.3488 12.1714 35.3446 12.3631 35.3307 12.5543Z" fill="url(#paint8_linear_1_7234)"/>
<path d="M4.14956 9.63671C7.81706 8.67821 9.74981 10.5 9.74981 10.5C9.74981 10.5 10.7503 7.91171 14.4178 6.95321C14.99 6.75914 15.5967 6.68782 16.1983 6.74391C16.7999 6.79999 17.3829 6.98222 17.9094 7.27871C18.4359 7.5752 18.8939 7.9793 19.2538 8.46467C19.6136 8.95005 19.8671 9.5058 19.9978 10.0957C20.2959 11.1643 20.3296 12.2894 20.0961 13.374C18.9664 17.6927 16.6868 21.6242 13.4998 24.75C9.26896 23.5822 5.46041 21.2286 2.52356 17.967C1.76771 17.1465 1.22054 16.1561 0.928307 15.0795C0.535307 13.65 0.482057 10.5952 4.14956 9.63671Z" fill="url(#paint9_linear_1_7234)"/>
<path d="M15.02 8.29202C11.2025 9.29102 10.136 11.8965 10.136 11.8965C10.136 11.8965 8.14778 10.0898 4.33028 11.0888C1.90253 11.724 1.03028 13.1925 0.816533 14.5455C0.571283 12.9945 0.891533 10.4888 4.15028 9.63677C7.81778 8.67827 9.75053 10.5 9.75053 10.5C9.75053 10.5 10.751 7.91177 14.4185 6.95327C17.6435 6.11102 19.2043 8.06927 19.8028 9.52802C18.9185 8.48027 17.4163 7.66502 15.02 8.29202Z" fill="url(#paint10_linear_1_7234)"/>
<path d="M15.7922 12.375C15.8725 12.5419 15.989 12.6887 16.1334 12.8047C16.2777 12.9207 16.4462 13.003 16.6265 13.0455C16.8067 13.088 16.9942 13.0896 17.1752 13.0503C17.3562 13.011 17.5261 12.9317 17.6724 12.8182C17.8841 12.6413 18.0723 12.4382 18.2327 12.2137C18.4961 11.8632 18.6452 11.4401 18.6598 11.0019C18.6745 10.5636 18.5539 10.1315 18.3144 9.76422C18.0263 9.40814 17.6323 9.15306 17.1894 9.03597C16.3809 8.79822 14.2329 9.01722 14.2442 10.209C14.2487 10.7595 15.0294 11.2297 15.3339 11.6385C15.5073 11.8705 15.6606 12.1169 15.7922 12.375Z" fill="url(#paint11_linear_1_7234)"/>
<path d="M8.67409 14.0805C8.94033 14.5485 9.41658 14.7862 9.63483 14.571C9.71781 14.4898 9.78428 14.3932 9.83058 14.2867C9.90501 14.0457 9.92008 13.7903 9.87451 13.5421C9.82893 13.294 9.72406 13.0606 9.56883 12.8617C9.40039 12.6309 9.1849 12.4384 8.93658 12.297C8.51809 12.0592 7.51159 11.922 7.66159 12.621C7.73209 12.9435 8.16634 13.314 8.36359 13.5907C8.47534 13.7505 8.57884 13.914 8.67409 14.0805Z" fill="url(#paint12_linear_1_7234)"/>
<path d="M27.9043 13.374C27.6707 12.2894 27.7044 11.1643 28.0025 10.0957C28.1854 9.44946 28.4909 8.84445 28.9025 8.31372C28.1023 8.96532 27.5255 9.8505 27.2525 10.8457C26.9544 11.9143 26.9207 13.0394 27.1543 14.124C28.2841 18.4426 30.5637 22.3741 33.7505 25.5C37.7766 24.3935 41.4229 22.206 44.294 19.1745C41.5482 21.8241 38.1806 23.7413 34.5005 24.75C31.3137 21.6241 29.0341 17.6926 27.9043 13.374Z" fill="#ED8D06"/>
<path d="M20.1005 13.374C18.9696 17.693 16.6887 21.6245 13.5005 24.75C9.82049 23.7413 6.45289 21.8241 3.70703 19.1745C6.57817 22.206 10.2245 24.3935 14.2505 25.5C17.4387 22.3745 19.7196 18.443 20.8505 14.124C21.0841 13.0394 21.0504 11.9143 20.7523 10.8457C20.4794 9.8505 19.9025 8.96532 19.1023 8.31372C19.5139 8.84445 19.8194 9.44946 20.0023 10.0957C20.3004 11.1643 20.3341 12.2894 20.1005 13.374Z" fill="#ED8D06"/>
</g>
<defs>
<linearGradient id="paint0_linear_1_7234" x1="24.0002" y1="0.978" x2="24.0002" y2="47.478" gradientUnits="userSpaceOnUse">
<stop stop-color="#FFE100"/>
<stop offset="1" stop-color="#F98900"/>
</linearGradient>
<linearGradient id="paint1_linear_1_7234" x1="10.5003" y1="30.7508" x2="37.5003" y2="30.7508" gradientUnits="userSpaceOnUse">
<stop stop-color="#B8B4B2"/>
<stop offset="0.143" stop-color="#D0CCC9"/>
<stop offset="0.374" stop-color="#F2EDEA"/>
<stop offset="0.5" stop-color="#FFFAF6"/>
<stop offset="0.638" stop-color="#F9F5F1"/>
<stop offset="0.825" stop-color="#E8E5E3"/>
<stop offset="1" stop-color="#D1D1D1"/>
</linearGradient>
<linearGradient id="paint2_linear_1_7234" x1="24.0007" y1="39.9562" x2="24.0007" y2="27.7807" gradientUnits="userSpaceOnUse">
<stop stop-color="#69101B"/>
<stop offset="0.427" stop-color="#400A10"/>
</linearGradient>
<linearGradient id="paint3_linear_1_7234" x1="24.0003" y1="28.6223" x2="24.0003" y2="33.6638" gradientUnits="userSpaceOnUse">
<stop stop-color="#B8B4B2"/>
<stop offset="0.143" stop-color="#D0CCC9"/>
<stop offset="0.374" stop-color="#F2EDEA"/>
<stop offset="0.5" stop-color="#FFFAF6"/>
<stop offset="0.638" stop-color="#F9F5F1"/>
<stop offset="0.825" stop-color="#E8E5E3"/>
<stop offset="1" stop-color="#D1D1D1"/>
</linearGradient>
<linearGradient id="paint4_linear_1_7234" x1="24.0003" y1="28.6223" x2="24.0003" y2="33.6638" gradientUnits="userSpaceOnUse">
<stop stop-color="#ABABAB" stop-opacity="0.5"/>
<stop offset="0.541" stop-color="#C1C1C1" stop-opacity="0.216"/>
<stop offset="1" stop-color="#D1D1D1" stop-opacity="0"/>
</linearGradient>
<linearGradient id="paint5_linear_1_7234" x1="39.4648" y1="6.90821" x2="33.5165" y2="24.4582" gradientUnits="userSpaceOnUse">
<stop stop-color="#FF5F6F"/>
<stop offset="0.346" stop-color="#FF2D44"/>
<stop offset="0.722" stop-color="#D41E32"/>
<stop offset="0.853" stop-color="#D61F33"/>
<stop offset="0.918" stop-color="#DE2337"/>
<stop offset="0.968" stop-color="#EB293E"/>
<stop offset="1" stop-color="#F82F44"/>
</linearGradient>
<linearGradient id="paint6_linear_1_7234" x1="38.7535" y1="6.67504" x2="37.4455" y2="13.2773" gradientUnits="userSpaceOnUse">
<stop stop-color="#FF8A95"/>
<stop offset="0.66" stop-color="#FF495D"/>
<stop offset="1" stop-color="#FF2D44"/>
</linearGradient>
<linearGradient id="paint7_linear_1_7234" x1="44.2766" y1="12.5475" x2="42.9206" y2="16.413" gradientUnits="userSpaceOnUse">
<stop stop-color="#FF5F5F"/>
<stop offset="0.283" stop-color="#FF565A"/>
<stop offset="0.746" stop-color="#FF3D4D"/>
<stop offset="1" stop-color="#FF2D44"/>
</linearGradient>
<linearGradient id="paint8_linear_1_7234" x1="36.2884" y1="10.8413" x2="35.3982" y2="13.38" gradientUnits="userSpaceOnUse">
<stop stop-color="#FF5F5F"/>
<stop offset="0.283" stop-color="#FF565A"/>
<stop offset="0.746" stop-color="#FF3D4D"/>
<stop offset="1" stop-color="#FF2D44"/>
</linearGradient>
<linearGradient id="paint9_linear_1_7234" x1="8.53556" y1="6.90821" x2="14.4838" y2="24.4582" gradientUnits="userSpaceOnUse">
<stop stop-color="#FF5F6F"/>
<stop offset="0.346" stop-color="#FF2D44"/>
<stop offset="0.722" stop-color="#D41E32"/>
<stop offset="0.853" stop-color="#D61F33"/>
<stop offset="0.918" stop-color="#DE2337"/>
<stop offset="0.968" stop-color="#EB293E"/>
<stop offset="1" stop-color="#F82F44"/>
</linearGradient>
<linearGradient id="paint10_linear_1_7234" x1="9.24728" y1="6.67502" x2="10.5553" y2="13.2773" gradientUnits="userSpaceOnUse">
<stop stop-color="#FF8A95"/>
<stop offset="0.66" stop-color="#FF495D"/>
<stop offset="1" stop-color="#FF2D44"/>
</linearGradient>
<linearGradient id="paint11_linear_1_7234" x1="16.1197" y1="9.0911" x2="17.1364" y2="13.0592" gradientUnits="userSpaceOnUse">
<stop stop-color="#FF5F5F"/>
<stop offset="0.283" stop-color="#FF565A"/>
<stop offset="0.746" stop-color="#FF3D4D"/>
<stop offset="1" stop-color="#FF2D44"/>
</linearGradient>
<linearGradient id="paint12_linear_1_7234" x1="8.52665" y1="12.105" x2="9.19435" y2="14.7117" gradientUnits="userSpaceOnUse">
<stop stop-color="#FF5F5F"/>
<stop offset="0.283" stop-color="#FF565A"/>
<stop offset="0.746" stop-color="#FF3D4D"/>
<stop offset="1" stop-color="#FF2D44"/>
</linearGradient>
<clipPath id="clip0_1_7234">
<rect width="48" height="48" fill="white"/>
</clipPath>
</defs>
</svg>
