<svg width="25" height="25" viewBox="0 0 25 25" fill="none" xmlns="http://www.w3.org/2000/svg">
<path d="M12.7503 24.2183C19.3492 24.2183 24.6988 18.8688 24.6988 12.2698C24.6988 5.67082 19.3492 0.321289 12.7503 0.321289C6.15129 0.321289 0.801758 5.67082 0.801758 12.2698C0.801758 18.8688 6.15129 24.2183 12.7503 24.2183Z" fill="#FFD93B"/>
<path d="M20.4747 15.2229C20.129 17.0173 19.1691 18.6353 17.76 19.7988C16.351 20.9624 14.5806 21.5988 12.7532 21.5988C10.9258 21.5988 9.15548 20.9624 7.74638 19.7988C6.33729 18.6353 5.37743 17.0173 5.03174 15.2229C5.01658 15.1423 5.02225 15.0592 5.04819 14.9814C5.07414 14.9036 5.11951 14.8338 5.18001 14.7784C5.24051 14.723 5.31413 14.684 5.39391 14.6651C5.47369 14.6461 5.55699 14.6479 5.63592 14.6701C10.2912 15.9746 15.2158 15.972 19.8698 14.6625C19.9493 14.6416 20.0328 14.6411 20.1125 14.6611C20.1923 14.681 20.2658 14.7208 20.3261 14.7767C20.3864 14.8325 20.4316 14.9027 20.4576 14.9807C20.4836 15.0587 20.4895 15.142 20.4747 15.2229Z" fill="#3E4347"/>
<path d="M6.44873 14.8652C7.58611 17.0486 9.84123 17.6906 12.7217 17.6906C15.6021 17.6906 17.8369 17.0509 18.9788 14.8826C14.862 15.8891 10.5627 15.8831 6.44873 14.8652Z" fill="white"/>
<path d="M24.6979 12.2692C24.6975 14.7409 23.9305 17.1516 22.5028 19.1692C21.0751 21.1869 19.0569 22.7121 16.7262 23.5349C14.3955 24.3576 11.8669 24.4374 9.48901 23.7631C7.11107 23.0889 5.00073 21.6938 3.44873 19.7701C5.7441 21.6207 8.6426 22.5573 11.5868 22.3998C14.531 22.2423 17.3131 21.0018 19.3979 18.917C21.4828 16.8321 22.7232 14.0501 22.8807 11.1059C23.0382 8.16164 22.1016 5.26314 20.2511 2.96777C21.6405 4.08709 22.7613 5.50374 23.5309 7.11345C24.3004 8.72317 24.6992 10.485 24.6979 12.2692Z" fill="#F4C534"/>
<path d="M11.619 7.59924C11.619 10.1935 8.54448 13.4145 5.39819 12.2062C4.65162 11.9178 4.00386 11.4206 3.53232 10.774C3.06079 10.1273 2.78543 9.35857 2.73915 8.5596C2.69287 7.76062 2.87764 6.96522 3.27136 6.26845C3.66508 5.57168 4.25111 5.00302 4.9594 4.63043C7.39049 3.39563 11.619 4.70369 11.619 7.59924Z" fill="white"/>
<path d="M20.107 12.2038C19.3693 12.4754 18.5697 12.5323 17.8009 12.3679C17.0322 12.2035 16.3258 11.8245 15.7637 11.2748C13.7669 9.53026 12.9059 6.54634 15.5228 4.94827C16.2708 4.50015 17.1152 4.2374 17.9854 4.18196C18.8557 4.12652 19.7266 4.27999 20.5254 4.62957C21.234 5.00056 21.8208 5.56759 22.2158 6.26298C22.6108 6.95837 22.7974 7.75275 22.7533 8.5513C22.7092 9.34985 22.4363 10.1188 21.967 10.7665C21.4978 11.4141 20.8521 11.9131 20.107 12.2038Z" fill="white"/>
<path d="M23.7571 3.91601H23.3606C22.26 3.94054 21.1605 3.82867 20.0874 3.58295C19.1113 3.33819 18.0893 3.34227 17.1152 3.59481C16.141 3.84735 15.2458 4.34029 14.5116 5.02846C14.2998 5.23444 14.0492 5.39627 13.7743 5.50453C13.4995 5.61279 13.2058 5.66533 12.9105 5.65908H12.6129C12.3148 5.66617 12.0183 5.61341 11.741 5.50392C11.4637 5.39444 11.2111 5.23046 10.9982 5.02167C10.2588 4.33765 9.36085 3.84836 8.38522 3.59786C7.4096 3.34736 6.38698 3.34354 5.40951 3.58673C4.34835 3.83204 3.26072 3.94393 2.17184 3.91978H1.74287C1.68003 3.92008 1.61787 3.9328 1.55997 3.95721C1.50207 3.98162 1.44956 4.01725 1.40548 4.06203C1.3614 4.10681 1.32661 4.15987 1.30312 4.21815C1.27962 4.27643 1.26789 4.33879 1.26858 4.40162V5.88263C1.27289 5.97439 1.30313 6.06305 1.3558 6.13831C1.40847 6.21357 1.48141 6.27235 1.56614 6.30782C1.67714 6.36497 1.77025 6.45159 1.83526 6.55816C1.90027 6.66474 1.93468 6.78717 1.9347 6.91201C1.93574 6.97191 1.92601 7.03151 1.906 7.08798C1.58994 8.15681 1.64358 9.301 2.05826 10.3356C2.47293 11.3702 3.2244 12.2346 4.19118 12.7893C5.15796 13.3439 6.28354 13.5563 7.38596 13.3921C8.48839 13.228 9.50322 12.6968 10.2664 11.8844C11.0973 11.0962 11.6951 10.0944 11.9944 8.98889C12.0399 8.82473 12.1389 8.68047 12.2757 8.57896C12.4125 8.47745 12.5793 8.4245 12.7496 8.42851C12.9195 8.42379 13.0861 8.47655 13.2223 8.57824C13.3586 8.67994 13.4565 8.82462 13.5003 8.98889C13.8004 10.0927 14.3985 11.0926 15.229 11.8792C15.9926 12.6923 17.0083 13.2239 18.1116 13.388C19.2149 13.5522 20.3414 13.3391 21.3086 12.7835C22.2758 12.2278 23.0271 11.3619 23.4411 10.3261C23.855 9.29031 23.9073 8.14511 23.5894 7.07589C23.5499 6.92777 23.562 6.7706 23.6238 6.6303C23.6856 6.48999 23.7933 6.37492 23.9293 6.30405C24.0143 6.26703 24.0872 6.20694 24.1398 6.13059C24.1924 6.05423 24.2226 5.96467 24.2268 5.87206V4.39784C24.2279 4.33528 24.2166 4.27312 24.1936 4.21495C24.1705 4.15679 24.1361 4.10377 24.0924 4.05897C24.0488 4.01416 23.9966 3.97846 23.9391 3.95392C23.8815 3.92938 23.8197 3.9165 23.7571 3.91601ZM9.50211 11.0076C8.99865 11.5133 8.36131 11.8649 7.66497 12.0209C6.96864 12.1769 6.24224 12.131 5.57112 11.8884C4.89999 11.6459 4.31203 11.2169 3.87631 10.6517C3.44059 10.0866 3.17521 9.40887 3.11135 8.69813C3.04077 7.94301 3.19469 7.18385 3.55381 6.51585C3.91294 5.84786 4.46128 5.30075 5.13008 4.94312C7.29155 3.83746 11.2663 4.97107 11.2663 7.60002C11.2244 8.25934 11.0459 8.90274 10.7421 9.48937C10.4382 10.076 10.0157 10.593 9.50135 11.0076H9.50211ZM22.3894 8.69813C22.3256 9.40902 22.0603 10.0869 21.6245 10.6522C21.1887 11.2175 20.6007 11.6466 19.9294 11.8892C19.2581 12.1317 18.5316 12.1776 17.8351 12.0215C17.1387 11.8653 16.5013 11.5136 15.9978 11.0076C15.4856 10.5917 15.065 10.0742 14.7626 9.48772C14.4601 8.90127 14.2823 8.25855 14.2404 7.60002C14.2404 4.97107 18.2152 3.83822 20.3623 4.94312C21.0327 5.29957 21.5827 5.84617 21.9434 6.51426C22.304 7.18235 22.4592 7.94213 22.3894 8.69813Z" fill="#3E4347"/>
<path d="M17.8338 10.298C18.8486 10.298 19.6713 9.47533 19.6713 8.46052C19.6713 7.44571 18.8486 6.62305 17.8338 6.62305C16.819 6.62305 15.9963 7.44571 15.9963 8.46052C15.9963 9.47533 16.819 10.298 17.8338 10.298Z" fill="#3E4347"/>
<path d="M18.8016 7.48994C18.5813 7.26962 18.2781 7.21558 18.1244 7.36924C17.9708 7.52291 18.0248 7.82608 18.2451 8.04639C18.4654 8.26671 18.7686 8.32075 18.9223 8.16708C19.0759 8.01342 19.0219 7.71025 18.8016 7.48994Z" fill="white"/>
<path d="M7.84138 10.299C8.85619 10.299 9.67886 9.47631 9.67886 8.4615C9.67886 7.44669 8.85619 6.62402 7.84138 6.62402C6.82657 6.62402 6.00391 7.44669 6.00391 8.4615C6.00391 9.47631 6.82657 10.299 7.84138 10.299Z" fill="#3E4347"/>
<path d="M8.80915 7.48994C8.58883 7.26962 8.28566 7.21558 8.132 7.36924C7.97834 7.52291 8.03237 7.82608 8.25269 8.04639C8.47301 8.26671 8.77618 8.32075 8.92984 8.16708C9.0835 8.01342 9.02947 7.71025 8.80915 7.48994Z" fill="white"/>
<path d="M9.84195 1.22638C9.87141 1.13273 5.50844 1.24904 4.21247 3.67333C3.88319 3.6688 7.07706 -2.57318 9.84195 1.22638Z" fill="#3E4347"/>
<path d="M15.6588 1.22638C15.6294 1.13273 19.9924 1.24904 21.2883 3.67333C21.6176 3.6688 18.423 -2.57318 15.6588 1.22638Z" fill="#3E4347"/>
<path d="M12.0894 19.0289C9.59266 19.0289 8.51343 17.6755 8.0112 19.1089C7.92005 19.3732 7.88607 19.6538 7.91151 19.9321C9.29274 21.0138 10.9968 21.6012 12.7512 21.6002C14.5056 21.5993 16.209 21.0101 17.589 19.9268C17.6135 19.6499 17.5792 19.371 17.4886 19.1082C16.9924 17.6755 14.5855 19.0289 12.0894 19.0289Z" fill="#E24B4B"/>
</svg>
