<svg width="25" height="25" viewBox="0 0 25 25" fill="none" xmlns="http://www.w3.org/2000/svg">
<path d="M12.8798 24.156C19.5503 24.156 24.9578 18.7485 24.9578 12.078C24.9578 5.4075 19.5503 0 12.8798 0C6.20926 0 0.801758 5.4075 0.801758 12.078C0.801758 18.7485 6.20926 24.156 12.8798 24.156Z" fill="#FFD93B"/>
<path d="M24.8953 12.0518C24.8963 14.5461 24.1233 16.9792 22.6831 19.0157C21.2429 21.0521 19.2063 22.5916 16.8543 23.4217C14.5022 24.2519 11.9505 24.3318 9.55108 23.6506C7.15165 22.9693 5.02268 21.5604 3.45776 19.6182C5.77299 21.4862 8.69728 22.4321 11.668 22.2738C14.6386 22.1155 17.4458 20.8642 19.5494 18.7606C21.653 16.657 22.9043 13.8498 23.0626 10.8791C23.2209 7.90846 22.2751 4.98418 20.407 2.66895C21.809 3.79789 22.94 5.22685 23.7167 6.85066C24.4935 8.47447 24.8962 10.2518 24.8953 12.0518Z" fill="#F4C534"/>
<path d="M19.0725 14.5602C20.1316 14.8505 18.4346 20.4815 12.8406 20.5228C7.24649 20.4815 5.54954 14.8498 6.60863 14.5602C7.4556 14.1427 9.72648 16.4557 12.8406 16.4557C15.9975 16.455 18.2285 14.1427 19.0725 14.5602Z" fill="#3E4347"/>
<path d="M8.95105 12.0885C8.91987 12.1272 8.87596 12.1534 8.82718 12.1627C8.77839 12.1719 8.72791 12.1635 8.68477 12.1389C8.00779 11.7824 5.28033 10.2584 5.01857 8.83451C4.95206 8.46561 5.01277 8.08507 5.19074 7.75517C5.36872 7.42528 5.65343 7.16558 5.99825 7.0186C6.34308 6.87161 6.72759 6.84605 7.08883 6.9461C7.45008 7.04615 7.76665 7.26588 7.98673 7.56932C8.06423 7.2655 8.2276 6.99042 8.4573 6.77699C8.68701 6.56357 8.97332 6.42081 9.28201 6.36581C9.49578 6.32597 9.71532 6.32879 9.928 6.37411C10.1407 6.41943 10.3423 6.50636 10.5213 6.62988C10.7002 6.75341 10.853 6.91109 10.9708 7.09388C11.0886 7.27666 11.1691 7.48093 11.2076 7.69494C11.4656 9.11583 9.45652 11.5108 8.95105 12.0885Z" fill="#E24B4B"/>
<path d="M9.23611 11.7528C9.12102 11.8935 9.02023 12.0086 8.94952 12.0898C8.91835 12.1285 8.87444 12.1548 8.82565 12.164C8.77687 12.1732 8.72639 12.1648 8.68324 12.1402C8.00627 11.7837 5.27881 10.2597 5.01704 8.83583C4.94413 8.45121 5.0109 8.05319 5.20533 7.71342C5.39976 7.37364 5.70909 7.11442 6.07764 6.98242C5.88241 7.17199 5.73712 7.4069 5.6547 7.66624C5.57228 7.92557 5.5553 8.20127 5.60526 8.46876C5.86101 9.8701 8.50723 11.3707 9.23611 11.7528Z" fill="#D03F3F"/>
<g opacity="0.2">
<path opacity="0.2" d="M10.4554 7.50425C10.3236 7.1686 10.0334 6.96849 9.8072 7.05729C9.58098 7.1461 9.50441 7.49019 9.63618 7.82584C9.76794 8.16149 10.0581 8.3616 10.2844 8.2728C10.5106 8.184 10.5871 7.8399 10.4554 7.50425Z" fill="white"/>
</g>
<path d="M16.4549 12.0882C16.486 12.1267 16.5298 12.1529 16.5784 12.1621C16.627 12.1713 16.6773 12.163 16.7204 12.1386C17.3974 11.7821 20.1248 10.2581 20.3866 8.83423C20.4531 8.46533 20.3924 8.08479 20.2144 7.75489C20.0365 7.42499 19.7518 7.1653 19.4069 7.01831C19.0621 6.87133 18.6776 6.84577 18.3163 6.94582C17.9551 7.04587 17.6385 7.2656 17.4185 7.56904C17.341 7.26521 17.1776 6.99014 16.9479 6.77671C16.7182 6.56328 16.4319 6.42053 16.1232 6.36552C15.9098 6.32598 15.6908 6.3289 15.4786 6.37414C15.2664 6.41938 15.0652 6.50604 14.8865 6.62915C14.7078 6.75227 14.5552 6.90942 14.4374 7.09161C14.3196 7.27381 14.2388 7.47745 14.1998 7.69089C13.9388 9.11555 15.9472 11.5105 16.4549 12.0882Z" fill="#E24B4B"/>
<path d="M16.1676 11.7521C16.2827 11.8928 16.3835 12.0078 16.4542 12.0891C16.4854 12.1277 16.5293 12.154 16.5781 12.1633C16.6269 12.1725 16.6773 12.1641 16.7205 12.1395C17.3974 11.7829 20.1249 10.259 20.3867 8.83508C20.4594 8.45067 20.3927 8.0529 20.1984 7.7133C20.0041 7.3737 19.6951 7.11454 19.3268 6.98242C19.5221 7.17199 19.6673 7.4069 19.7498 7.66624C19.8322 7.92557 19.8492 8.20127 19.7992 8.46876C19.5427 9.86935 16.8957 11.37 16.1676 11.7521Z" fill="#D03F3F"/>
<g opacity="0.2">
<path opacity="0.2" d="M15.595 7.05827C15.3688 6.96946 15.0786 7.16957 14.9468 7.50523C14.8151 7.84088 14.8916 8.18497 15.1179 8.27378C15.3441 8.36258 15.6343 8.16247 15.766 7.82682C15.8978 7.49116 15.8212 7.14707 15.595 7.05827Z" fill="white"/>
</g>
<path d="M12.8414 20.5219C13.8074 20.5235 14.7637 20.329 15.6524 19.9502C15.4738 19.4241 15.1506 18.959 14.7197 18.6083C14.5466 18.4745 14.3426 18.3864 14.1265 18.3521C13.9104 18.3178 13.6891 18.3384 13.4831 18.412C13.217 18.4952 12.9397 18.5371 12.6609 18.5361C12.4406 18.5362 12.221 18.5109 12.0065 18.4609C11.7821 18.4047 11.5469 18.408 11.3241 18.4703C11.1013 18.5327 10.8986 18.6521 10.736 18.8167C10.4174 19.1366 10.1765 19.5255 10.032 19.9532C10.9204 20.3309 11.8761 20.5243 12.8414 20.5219Z" fill="#E24B4B"/>
</svg>
