<svg width="25" height="25" viewBox="0 0 25 25" fill="none" xmlns="http://www.w3.org/2000/svg">
<path d="M12.8803 24.157C19.551 24.157 24.9588 18.7493 24.9588 12.0785C24.9588 5.40773 19.551 0 12.8803 0C6.20949 0 0.801758 5.40773 0.801758 12.0785C0.801758 18.7493 6.20949 24.157 12.8803 24.157Z" fill="#FFD93B"/>
<path d="M24.6788 11.938C24.6785 14.4075 23.9125 16.8162 22.4861 18.8321C21.0598 20.8481 19.0433 22.3721 16.7147 23.1942C14.386 24.0164 11.8597 24.0961 9.48382 23.4225C7.10794 22.7489 4.9994 21.3551 3.44873 19.4332C5.74243 21.2787 8.63713 22.2118 11.5769 22.0531C14.5166 21.8945 17.2941 20.6553 19.3758 18.5735C21.4575 16.4918 22.6967 13.7143 22.8554 10.7746C23.014 7.83489 22.081 4.94018 20.2354 2.64648C21.6233 3.76475 22.7429 5.17989 23.5119 6.78784C24.2808 8.39578 24.6796 10.1556 24.6788 11.938Z" fill="#F4C534"/>
<path d="M24.0501 8.51757C24.0686 9.21408 23.9462 9.90715 23.6903 10.5552C23.4345 11.2033 23.0503 11.793 22.561 12.289C22.0717 12.785 21.4872 13.1771 20.8427 13.4417C20.1981 13.7064 19.5068 13.8381 18.8101 13.829C17.7628 13.8441 16.7345 13.5492 15.8542 12.9817C14.974 12.4141 14.2811 11.599 13.8627 10.6388C13.5776 9.94981 13.2052 9.4759 12.7381 9.4759C12.271 9.4759 11.8986 9.95056 11.6143 10.6471C11.202 11.6047 10.5148 12.4183 9.63963 12.9849C8.7645 13.5515 7.74088 13.8455 6.69847 13.8298H6.67515C0.883009 13.8298 -0.631223 5.78699 4.78255 3.7131C7.33682 2.81187 10.0297 2.36679 12.7381 2.39821C15.45 2.36498 18.1463 2.81271 20.7019 3.72062C21.691 4.07042 22.5458 4.72113 23.1463 5.58144C23.7468 6.44176 24.0628 7.4685 24.0501 8.51757Z" fill="#303538"/>
<path d="M18.8101 12.8398C17.958 12.8583 17.1196 12.6231 16.4015 12.1639C15.6835 11.7047 15.1181 11.0424 14.7774 10.2611C14.1719 8.79355 13.3347 8.48589 12.7389 8.48589C12.1432 8.48589 11.3037 8.79581 10.6989 10.2717C10.3585 11.0457 9.7975 11.7022 9.08596 12.159C8.37442 12.6157 7.54398 12.8526 6.69854 12.8398C5.69381 12.8714 4.71214 12.5348 3.93827 11.8933C3.1644 11.2517 2.65168 10.3494 2.4966 9.35622C2.28684 8.38289 2.43928 7.36646 2.92535 6.49749C3.41142 5.62852 4.19775 4.96666 5.13691 4.636C7.57789 3.77661 10.1513 3.35442 12.7389 3.38881C15.3298 3.35298 17.9065 3.77835 20.3484 4.64503C21.1503 4.92405 21.8439 5.44839 22.3311 6.14372C22.8182 6.83905 23.0741 7.67008 23.0625 8.51899C23.0785 9.08499 22.98 9.64839 22.7729 10.1754C22.5657 10.7023 22.2542 11.182 21.8571 11.5856C21.4599 11.9891 20.9853 12.3083 20.4617 12.5238C19.9381 12.7393 19.3763 12.8468 18.8101 12.8398Z" fill="#3E4347"/>
<path d="M7.49651 3.94265L2.44531 8.9931C2.4581 9.11646 2.4739 9.23682 2.49496 9.35492C2.54469 9.61731 2.61744 9.87482 2.71235 10.1244L9.20106 3.63574C8.61532 3.71849 8.04714 3.82079 7.49651 3.94265Z" fill="#5A5F63"/>
<path d="M10.033 3.5334L2.93652 10.6299C3.35909 11.4677 4.06363 12.1297 4.92616 12.4992L14.004 3.42132C13.585 3.40101 13.163 3.38672 12.738 3.38672C11.8344 3.38808 10.9315 3.43705 10.033 3.5334Z" fill="#5A5F63"/>
<path d="M20.3468 4.64308C20.3122 4.62954 20.2715 4.61901 20.2407 4.60547L14.7148 10.1313C14.7352 10.1765 14.757 10.2118 14.7758 10.26C14.8923 10.5326 15.0392 10.7912 15.2136 11.031L21.1742 5.07034C20.9138 4.89991 20.6365 4.75673 20.3468 4.64308Z" fill="#5A5F63"/>
<path d="M18.0593 12.7754L23.0059 7.82952C22.8589 6.86532 22.3582 5.99035 21.6015 5.375L15.5393 11.4372C16.2051 12.1537 17.0928 12.6252 18.0593 12.7754Z" fill="#5A5F63"/>
<path d="M18.1594 18.3104C17.426 19.514 16.0585 20.634 12.593 21.3517C9.08609 22.1708 8.00063 20.6408 7.28376 18.0727C6.51423 15.4738 7.31535 13.7783 12.9255 15.0412C18.4942 16.1448 18.9124 17.1023 18.1594 18.3104Z" fill="#3E4347"/>
<path d="M15.2777 18.3715C15.994 18.5255 16.7282 18.5789 17.4592 18.5302C16.0485 19.64 14.3831 20.3802 12.6141 20.6838C9.12976 21.3556 8.36851 19.5946 8.05483 18.5422C8.86793 18.6398 9.69129 18.6096 10.4951 18.4527C9.56697 18.2218 8.66413 17.8993 7.79983 17.4899C7.60575 16.4157 7.71783 14.8112 12.6201 15.7665C14.3502 16.0033 16.0334 16.5054 17.6104 17.2552C16.92 17.7873 16.1251 18.1677 15.2777 18.3715Z" fill="white"/>
</svg>
