<svg width="38" height="38" viewBox="0 0 38 38" fill="none" xmlns="http://www.w3.org/2000/svg">
<g clip-path="url(#clip0_1_5339)">
<path d="M19.0002 37.4062C2.55331 37.4062 0.571376 23.1562 0.593938 19.5938V18.4062C0.571376 14.8438 2.55331 0.59375 19.0002 0.59375C35.4471 0.59375 37.429 14.8438 37.4064 18.4062V19.5938C37.429 23.1562 35.4471 37.4062 19.0002 37.4062Z" fill="url(#paint0_linear_1_5339)"/>
<path d="M28.5002 0.59375V2.96875H34.4377L27.9065 11.2812V12.4688H37.4065V10.0938H32.0627L37.4065 2.96875V0.59375H28.5002Z" fill="url(#paint1_linear_1_5339)"/>
<path d="M27.9065 12.4688V13.0625H36.5675C36.5082 12.8666 36.4488 12.6688 36.3841 12.4688H27.9065Z" fill="#F99C06"/>
<path d="M26.1252 3.5625H21.969V5.34375H24.6919L22.143 7.89272C22.0316 8.00404 21.969 8.15504 21.969 8.3125V9.5C21.969 9.65747 22.0315 9.8085 22.1429 9.91985C22.2542 10.0312 22.4053 10.0938 22.5627 10.0938H26.719V8.3125H23.9961L26.545 5.76353C26.6564 5.65221 26.719 5.50121 26.719 5.34375V4.15625C26.719 3.99878 26.6564 3.84776 26.5451 3.73641C26.4337 3.62506 26.2827 3.5625 26.1252 3.5625Z" fill="#F99C06"/>
<path d="M19.7424 5.34375H16.6252V7.125H18.1607L16.6508 8.63491C16.5394 8.74623 16.4768 8.89723 16.4768 9.05469V9.5C16.4802 9.52483 16.4852 9.54942 16.4917 9.57363C16.4849 9.59818 16.48 9.62318 16.4768 9.64844V10.0938C16.4768 10.2512 16.5394 10.4022 16.6507 10.5136C16.7621 10.6249 16.9131 10.6875 17.0706 10.6875H20.1877V8.90625H18.6523L20.1622 7.39634C20.2736 7.28502 20.3361 7.13402 20.3362 6.97656V6.53125C20.3328 6.50642 20.3278 6.48183 20.3213 6.45763C20.328 6.43307 20.333 6.40807 20.3362 6.38281V5.9375C20.3362 5.78003 20.2736 5.62901 20.1623 5.51766C20.0509 5.40631 19.8999 5.34375 19.7424 5.34375Z" fill="#F99C06"/>
<path d="M26.719 9.5H22.5627C22.4053 9.5 22.2542 9.43744 22.1429 9.32609C22.0315 9.21475 21.969 9.06372 21.969 8.90625V8.3125C21.969 8.15504 22.0316 8.00404 22.143 7.89272L25.2857 4.75H21.969V3.5625H26.1252C26.2827 3.5625 26.4337 3.62506 26.5451 3.73641C26.6564 3.84776 26.719 3.99878 26.719 4.15625V4.75C26.719 4.90746 26.6564 5.05846 26.545 5.16978L23.4023 8.3125H26.719V9.5Z" fill="url(#paint2_linear_1_5339)"/>
<path d="M20.1877 10.0938H17.0706C16.9131 10.0938 16.7621 10.0312 16.6507 9.91985C16.5394 9.8085 16.4768 9.65747 16.4768 9.5V9.05469C16.4768 8.89723 16.5394 8.74623 16.6508 8.63491L18.7544 6.53125H16.6252V5.34375H19.7424C19.8999 5.34375 20.0509 5.40631 20.1623 5.51766C20.2736 5.62901 20.3362 5.78003 20.3362 5.9375V6.38281C20.3361 6.54027 20.2736 6.69127 20.1622 6.80259L18.0586 8.90625H20.1877V10.0938Z" fill="url(#paint3_linear_1_5339)"/>
<path d="M21.969 29.6875C21.969 28.9001 21.6562 28.145 21.0995 27.5883C20.5427 27.0315 19.7876 26.7188 19.0002 26.7188C18.2129 26.7188 17.4578 27.0315 16.901 27.5883C16.3443 28.145 16.0315 28.9001 16.0315 29.6875C16.0315 29.789 16.0517 29.8852 16.0612 29.9844C16.0517 30.0835 16.0315 30.1797 16.0315 30.2812C16.0315 31.0686 16.3443 31.8237 16.901 32.3805C17.4578 32.9372 18.2129 33.25 19.0002 33.25C19.7876 33.25 20.5427 32.9372 21.0995 32.3805C21.6562 31.8237 21.969 31.0686 21.969 30.2812C21.969 30.1797 21.9488 30.0835 21.9393 29.9844C21.9488 29.8852 21.969 29.789 21.969 29.6875Z" fill="#F9BF06"/>
<path d="M21.969 29.0938C21.969 28.3064 21.6562 27.5513 21.0995 26.9945C20.5427 26.4378 19.7876 26.125 19.0002 26.125C18.2129 26.125 17.4578 26.4378 16.901 26.9945C16.3443 27.5513 16.0315 28.3064 16.0315 29.0938C16.0315 29.1953 16.0517 29.2915 16.0612 29.3906C16.0517 29.4898 16.0315 29.586 16.0315 29.6875C16.0315 30.4749 16.3443 31.23 16.901 31.7867C17.4578 32.3435 18.2129 32.6562 19.0002 32.6562C19.7876 32.6562 20.5427 32.3435 21.0995 31.7867C21.6562 31.23 21.969 30.4749 21.969 29.6875C21.969 29.586 21.9488 29.4898 21.9393 29.3906C21.9488 29.2915 21.969 29.1953 21.969 29.0938Z" fill="#ED8D06"/>
<path d="M19.0002 32.6562C20.6398 32.6562 21.969 31.3271 21.969 29.6875C21.969 28.0479 20.6398 26.7188 19.0002 26.7188C17.3606 26.7188 16.0315 28.0479 16.0315 29.6875C16.0315 31.3271 17.3606 32.6562 19.0002 32.6562Z" fill="url(#paint4_linear_1_5339)"/>
<path d="M29.8409 17.4212C28.8241 17.6994 27.7729 17.8312 26.7189 17.8124C25.665 17.8312 24.6137 17.6994 23.597 17.4212C23.4839 17.3885 23.3637 17.3905 23.2518 17.4269C23.1399 17.4633 23.0415 17.5324 22.9693 17.6253C22.8971 17.7181 22.8543 17.8305 22.8466 17.9479C22.8389 18.0653 22.8666 18.1824 22.9261 18.2839C22.8615 18.3855 22.8309 18.505 22.8386 18.6251C22.8462 18.7453 22.8918 18.8599 22.9688 18.9524C23.414 19.5221 23.983 19.9828 24.6328 20.2996C25.2826 20.6165 25.996 20.7812 26.7189 20.7812C27.4418 20.7812 28.1553 20.6165 28.8051 20.2996C29.4548 19.9828 30.0239 19.5221 30.4691 18.9524C30.546 18.8599 30.5916 18.7453 30.5993 18.6251C30.607 18.505 30.5763 18.3855 30.5118 18.2839C30.5713 18.1824 30.5989 18.0653 30.5912 17.9479C30.5835 17.8305 30.5408 17.7181 30.4686 17.6253C30.3963 17.5324 30.2979 17.4633 30.186 17.4269C30.0741 17.3905 29.9539 17.3885 29.8409 17.4212Z" fill="#F99C06"/>
<path d="M14.4034 17.4212C13.3866 17.6994 12.3354 17.8312 11.2814 17.8124C10.2275 17.8312 9.17622 17.6994 8.15949 17.4212C8.04645 17.3885 7.92622 17.3905 7.81433 17.4269C7.70243 17.4633 7.60402 17.5324 7.53179 17.6253C7.45956 17.7181 7.41683 17.8305 7.40912 17.9479C7.40142 18.0653 7.42908 18.1824 7.48855 18.2839C7.42401 18.3855 7.39338 18.505 7.40106 18.6251C7.40874 18.7453 7.45435 18.8599 7.5313 18.9524C7.97646 19.5221 8.54552 19.9828 9.1953 20.2996C9.84508 20.6165 10.5585 20.7812 11.2814 20.7812C12.0044 20.7812 12.7178 20.6165 13.3676 20.2996C14.0173 19.9828 14.5864 19.5221 15.0316 18.9524C15.1085 18.8599 15.1541 18.7453 15.1618 18.6251C15.1695 18.505 15.1388 18.3855 15.0743 18.2839C15.1338 18.1824 15.1614 18.0653 15.1537 17.9479C15.146 17.8305 15.1033 17.7181 15.0311 17.6253C14.9588 17.5324 14.8604 17.4633 14.7485 17.4269C14.6366 17.3905 14.5164 17.3885 14.4034 17.4212Z" fill="#F99C06"/>
<g opacity="0.98">
<path opacity="0.98" d="M22.9686 18.3588C22.8914 18.2602 22.8473 18.1397 22.8427 18.0145C22.8381 17.8894 22.8732 17.766 22.9429 17.662C23.0127 17.5579 23.1135 17.4786 23.2311 17.4354C23.3486 17.3922 23.4769 17.3872 23.5974 17.4213C24.6139 17.6996 25.665 17.8314 26.7187 17.8126C27.7725 17.8314 28.8236 17.6996 29.8401 17.4213C29.9606 17.3872 30.0888 17.3922 30.2064 17.4354C30.3239 17.4786 30.4248 17.5579 30.4945 17.662C30.5643 17.766 30.5994 17.8894 30.5948 18.0145C30.5902 18.1397 30.5461 18.2602 30.4689 18.3588C30.0237 18.9284 29.4546 19.3891 28.8049 19.706C28.1551 20.0229 27.4417 20.1875 26.7187 20.1875C25.9958 20.1875 25.2824 20.0229 24.6326 19.706C23.9828 19.3891 23.4138 18.9284 22.9686 18.3588Z" fill="url(#paint5_linear_1_5339)"/>
<path opacity="0.98" d="M7.5311 18.3588C7.45387 18.2602 7.4098 18.1397 7.40519 18.0145C7.40058 17.8894 7.43566 17.766 7.50542 17.662C7.57518 17.5579 7.67605 17.4786 7.7936 17.4354C7.91115 17.3922 8.03935 17.3872 8.15989 17.4213C9.17641 17.6996 10.2275 17.8314 11.2812 17.8126C12.335 17.8314 13.3861 17.6996 14.4026 17.4213C14.5231 17.3872 14.6513 17.3922 14.7689 17.4354C14.8864 17.4786 14.9873 17.5579 15.057 17.662C15.1268 17.766 15.1619 17.8894 15.1573 18.0145C15.1527 18.1397 15.1086 18.2602 15.0314 18.3588C14.5862 18.9284 14.0171 19.3891 13.3674 19.706C12.7176 20.0229 12.0042 20.1875 11.2812 20.1875C10.5583 20.1875 9.84488 20.0229 9.1951 19.706C8.54532 19.3891 7.97626 18.9284 7.5311 18.3588Z" fill="url(#paint6_linear_1_5339)"/>
</g>
</g>
<defs>
<linearGradient id="paint0_linear_1_5339" x1="19.0002" y1="0.77425" x2="19.0002" y2="37.5867" gradientUnits="userSpaceOnUse">
<stop stop-color="#FFE100"/>
<stop offset="1" stop-color="#F98900"/>
</linearGradient>
<linearGradient id="paint1_linear_1_5339" x1="32.6565" y1="0.727344" x2="32.6565" y2="12.3156" gradientUnits="userSpaceOnUse">
<stop stop-color="#6073FF"/>
<stop offset="0.114" stop-color="#586AEB"/>
<stop offset="0.393" stop-color="#4856BF"/>
<stop offset="0.644" stop-color="#3C489F"/>
<stop offset="0.855" stop-color="#353F8C"/>
<stop offset="1" stop-color="#323C85"/>
</linearGradient>
<linearGradient id="paint2_linear_1_5339" x1="24.344" y1="3.71628" x2="24.344" y2="9.462" gradientUnits="userSpaceOnUse">
<stop stop-color="#6073FF"/>
<stop offset="0.114" stop-color="#586AEB"/>
<stop offset="0.393" stop-color="#4856BF"/>
<stop offset="0.644" stop-color="#3C489F"/>
<stop offset="0.855" stop-color="#353F8C"/>
<stop offset="1" stop-color="#323C85"/>
</linearGradient>
<linearGradient id="paint3_linear_1_5339" x1="18.4065" y1="5.40312" x2="18.4065" y2="9.94353" gradientUnits="userSpaceOnUse">
<stop stop-color="#6073FF"/>
<stop offset="0.114" stop-color="#586AEB"/>
<stop offset="0.393" stop-color="#4856BF"/>
<stop offset="0.644" stop-color="#3C489F"/>
<stop offset="0.855" stop-color="#353F8C"/>
<stop offset="1" stop-color="#323C85"/>
</linearGradient>
<linearGradient id="paint4_linear_1_5339" x1="19.0002" y1="32.623" x2="19.0002" y2="25.7212" gradientUnits="userSpaceOnUse">
<stop stop-color="#911625"/>
<stop offset="0.587" stop-color="#630F19"/>
<stop offset="1" stop-color="#400A10"/>
</linearGradient>
<linearGradient id="paint5_linear_1_5339" x1="26.7187" y1="20.1988" x2="26.7187" y2="18.0257" gradientUnits="userSpaceOnUse">
<stop stop-color="#803F02"/>
<stop offset="0.174" stop-color="#6D3602"/>
<stop offset="0.515" stop-color="#4D2601"/>
<stop offset="0.802" stop-color="#3A1C01"/>
<stop offset="1" stop-color="#331901"/>
</linearGradient>
<linearGradient id="paint6_linear_1_5339" x1="11.2812" y1="20.143" x2="11.2812" y2="17.8939" gradientUnits="userSpaceOnUse">
<stop stop-color="#803F02"/>
<stop offset="0.174" stop-color="#6D3602"/>
<stop offset="0.515" stop-color="#4D2601"/>
<stop offset="0.802" stop-color="#3A1C01"/>
<stop offset="1" stop-color="#331901"/>
</linearGradient>
<clipPath id="clip0_1_5339">
<rect width="38" height="38" fill="white"/>
</clipPath>
</defs>
</svg>
