<svg width="121" height="94" viewBox="0 0 121 94" fill="none" xmlns="http://www.w3.org/2000/svg">
<path d="M13.0513 0.187988H107.719C114.919 0.187988 120.719 4.11999 120.719 9.00499V84.832C120.719 89.717 114.919 93.649 107.719 93.649H13.0513C5.85127 93.649 0.0512695 89.717 0.0512695 84.832V9.00499C0.0512695 4.11999 5.85127 0.187988 13.0513 0.187988Z" fill="#C9BED4" fill-opacity="0.2"/>
<path d="M26.8671 44.942C23.5888 44.9238 20.3579 45.724 17.4671 47.27L-0.00292969 57.435V86.297C-0.00292969 90.497 5.80707 93.752 13.0171 93.875H101.803L35.8761 47.275C33.1779 45.6048 30.0368 44.7914 26.8671 44.942Z" fill="#331C48"/>
<path d="M81.6841 36.691C78.4558 36.6308 75.2722 37.4523 72.4761 39.067L-0.00292969 84.098V85.785C-0.00292969 90.267 5.80407 93.875 13.0171 93.875H107.835C115.048 93.875 120.855 90.267 120.855 85.785V57.685L90.8861 39.065C88.0907 37.4501 84.9078 36.6286 81.6801 36.689L81.6841 36.691Z" fill="#331C48"/>
<path d="M60.1059 36.692C57.1517 36.692 54.2638 35.816 51.8074 34.1747C49.351 32.5334 47.4365 30.2005 46.306 27.4711C45.1754 24.7418 44.8796 21.7384 45.456 18.8409C46.0323 15.9434 47.4549 13.2819 49.5439 11.1929C51.6329 9.10397 54.2944 7.68136 57.1919 7.10501C60.0894 6.52866 63.0927 6.82447 65.8221 7.95501C68.5515 9.08556 70.8843 11.0001 72.5256 13.4564C74.1669 15.9128 75.0429 18.8007 75.0429 21.755C75.0429 23.7166 74.6566 25.6589 73.9059 27.4711C73.1553 29.2834 72.055 30.93 70.668 32.3171C69.281 33.7041 67.6343 34.8043 65.8221 35.555C64.0098 36.3056 62.0675 36.692 60.1059 36.692Z" fill="#FF9452"/>
</svg>
